<svg width="175" height="283" viewBox="0 0 175 283" fill="none" xmlns="http://www.w3.org/2000/svg">
<path d="M6 86.75C6 41.6007 42.6007 5 87.75 5C132.899 5 169.5 41.6007 169.5 86.75V277.5H6V86.75Z" fill="white"/>
<path d="M99.0546 4.88799L98.8504 0.893207L99.0546 4.88799ZM102.145 5.68431L100.079 9.10936L102.145 5.68431ZM103.603 6.56405L101.537 9.98909L103.603 6.56405ZM105.062 7.44378L107.128 4.01873L105.062 7.44378ZM108.223 8.1806L107.888 4.19461L108.223 8.1806ZM114.827 8.38112L116.378 4.6939L114.827 8.38112ZM116.323 9.01039L114.773 12.6976L116.323 9.01039ZM117.82 9.63966L119.37 5.95244L117.82 9.63966ZM120.717 11.0829L122.727 7.62439L120.717 11.0829ZM123.519 12.7109L121.509 16.1694L123.519 12.7109ZM126.311 14.3254L124.317 17.7927L126.311 14.3254ZM129.095 15.9266L131.089 12.4593L129.095 15.9266ZM131.855 17.5727L133.958 14.1701L131.855 17.5727ZM134.591 19.2637L132.488 22.6664L134.591 19.2637ZM137.011 21.3549L140.067 18.7748L137.011 21.3549ZM139.114 23.8463L136.057 26.4264L139.114 23.8463ZM141.373 26.1213L143.967 23.0767L141.373 26.1213ZM143.789 28.18L141.195 31.2247L143.789 28.18ZM146.132 30.3272L148.939 27.4779L146.132 30.3272ZM147.266 31.4449L144.459 34.2942L147.266 31.4449ZM148.401 32.5627L145.593 35.412L148.401 32.5627ZM150.652 34.8367L153.529 32.0581L150.652 34.8367ZM151.768 35.993L154.645 33.2144L151.768 35.993ZM152.885 37.1493L150.007 39.9278L152.885 37.1493ZM154.95 39.6055L158.181 37.2474L154.95 39.6055ZM155.899 40.9055L152.668 43.2636L155.899 40.9055ZM156.848 42.2055L160.079 39.8474L156.848 42.2055ZM158.451 44.9782L154.797 46.6037L158.451 44.9782ZM159.761 47.9237L163.416 46.2982L159.761 47.9237ZM161.242 50.7825L157.806 52.83L161.242 50.7825ZM162.894 53.5546L166.33 51.5071L162.894 53.5546ZM164.208 56.4746L160.396 57.6873L164.208 56.4746ZM164.696 58.0086L168.508 56.7959L164.696 58.0086ZM165.184 59.5425L168.996 58.3298L165.184 59.5425ZM165.891 62.6738L169.854 62.1296L165.891 62.6738ZM166.33 65.8683L162.367 66.4125L166.33 65.8683ZM167.262 68.9568L170.871 67.2319L167.262 68.9568ZM168.687 71.9391L165.078 73.664L168.687 71.9391ZM169.419 75.0511L173.419 75.0043L169.419 75.0511ZM169.457 78.2925L165.457 78.3392L169.457 78.2925ZM169.323 81.5183L173.305 81.8971L169.323 81.5183ZM169.018 84.7283L165.036 84.3495L169.018 84.7283ZM168.742 87.9331L172.731 88.239L168.742 87.9331ZM168.62 89.5328L172.608 89.8388L168.62 89.5328ZM168.497 91.1326L164.509 90.8266L168.497 91.1326ZM168.758 94.3323L172.648 93.3987L168.758 94.3323ZM169.526 97.5323L165.637 98.4659L169.526 97.5323ZM169.521 100.732L173.407 101.679L169.521 100.732ZM168.742 103.932L164.855 102.986L168.742 103.932ZM168.873 107.132L172.676 105.895L168.873 107.132ZM169.914 110.332L166.11 111.57L169.914 110.332ZM170.067 113.532L173.965 114.428L170.067 113.532ZM169.332 116.732L165.433 115.837L169.332 116.732ZM168.883 119.932L164.888 119.729L168.883 119.932ZM168.72 123.132L172.715 123.336L168.72 123.132ZM168.844 126.332L172.811 125.821L168.844 126.332ZM169.05 127.932L165.083 128.443L169.05 127.932ZM169.256 129.532L173.224 129.021L169.256 129.532ZM169.656 135.932L173.653 135.771L169.656 135.932ZM169.601 139.132L173.589 139.431L169.601 139.132ZM169.361 142.332L165.372 142.033L169.361 142.332ZM169.255 145.532L165.255 145.567L169.255 145.532ZM169.283 148.732L173.283 148.697L169.283 148.732ZM169.619 151.932L165.697 152.721L169.619 151.932ZM170.262 155.132L174.184 154.344L170.262 155.132ZM170.533 158.332L174.531 158.458L170.533 158.332ZM170.432 161.532L166.434 161.406L170.432 161.532ZM170.429 164.732L174.427 164.615L170.429 164.732ZM170.523 167.932L174.521 167.815L170.523 167.932ZM169.985 171.132L173.742 172.506L169.985 171.132ZM168.815 174.332L165.058 172.959L168.815 174.332ZM168.781 177.532L164.999 178.834L168.781 177.532ZM169.882 180.732L173.664 179.431L169.882 180.732ZM170.099 183.932L166.183 183.116L170.099 183.932ZM169.766 185.532L165.85 184.716L169.766 185.532ZM169.432 187.132L173.348 187.948L169.432 187.132ZM169.395 190.332L165.462 191.06L169.395 190.332ZM169.691 191.932L173.625 191.204L169.691 191.932ZM169.988 193.532L166.054 194.26L169.988 193.532ZM169.995 196.732L173.931 197.443L169.995 196.732ZM169.706 198.332L165.77 197.622L169.706 198.332ZM169.417 199.932L173.354 200.643L169.417 199.932ZM169.326 203.132L173.296 202.641L169.326 203.132ZM169.722 206.332L173.692 205.841L169.722 206.332ZM169.955 209.532L165.955 209.618L169.955 209.532ZM169.989 211.132L165.99 211.218L169.989 211.132ZM170.023 212.732L174.023 212.646L170.023 212.732ZM169.749 215.932L173.677 216.689L169.749 215.932ZM169.441 217.532L165.513 216.775L169.441 217.532ZM169.133 219.132L173.06 219.889L169.133 219.132ZM168.863 222.332L164.865 222.43L168.863 222.332ZM168.942 225.532L172.941 225.434L168.942 225.532ZM169.301 228.732L165.378 229.516L169.301 228.732ZM169.62 230.332L173.543 229.549L169.62 230.332ZM169.94 231.932L166.018 232.716L169.94 231.932ZM170.366 235.132L166.374 235.396L170.366 235.132ZM170.577 238.332L174.569 238.068L170.577 238.332ZM170.28 241.532L166.401 240.555L170.28 241.532ZM169.877 243.132L173.755 244.11L169.877 243.132ZM169.473 244.732L173.352 245.71L169.473 244.732ZM169.401 247.932L165.485 248.743L169.401 247.932ZM169.733 249.532L165.816 250.343L169.733 249.532ZM170.064 251.132L166.147 251.943L170.064 251.132ZM170.319 254.332L174.314 254.524L170.319 254.332ZM170.166 257.532L166.17 257.341L170.166 257.532ZM170.112 260.732L174.112 260.675L170.112 260.732ZM170.158 263.932L174.157 263.875L170.158 263.932ZM169.967 267.132L173.932 267.661L169.967 267.132ZM169.541 270.332L165.576 269.804L169.541 270.332ZM169.162 273.46L173.139 273.889L169.162 273.46ZM168.998 274.988L165.021 274.558L168.998 274.988ZM168.833 276.515L164.856 276.086L168.833 276.515ZM167.068 277.692L167.926 273.785L167.068 277.692ZM165.468 277.34L164.61 281.247L165.468 277.34ZM163.868 276.989L164.726 273.082L163.868 276.989ZM160.668 276.903L160.013 272.957L160.668 276.903ZM157.468 277.434L158.122 281.38L157.468 277.434ZM154.268 277.847L153.899 273.864L154.268 277.847ZM151.068 278.144L150.699 274.161L151.068 278.144ZM147.868 278.229L147.712 282.226L147.868 278.229ZM144.668 278.105L144.823 274.108L144.668 278.105ZM141.468 277.868L141.033 281.844L141.468 277.868ZM135.068 277.129L135.598 273.165L135.068 277.129ZM131.868 276.702L131.338 280.666L131.868 276.702ZM128.668 276.633L128.306 272.65L128.668 276.633ZM125.468 276.924L125.83 280.907L125.468 276.924ZM122.268 277.387L121.488 273.464L122.268 277.387ZM120.668 277.706L121.448 281.629L120.668 277.706ZM119.068 278.024L119.848 281.947L119.068 278.024ZM115.868 278.16L115.415 282.134L115.868 278.16ZM112.668 277.796L112.215 281.77L112.668 277.796ZM109.468 277.538L109.656 273.542L109.468 277.538ZM106.268 277.387L106.079 281.383L106.268 277.387ZM103.068 277.143L103.486 273.165L103.068 277.143ZM101.468 276.975L101.049 280.953L101.468 276.975ZM99.8677 276.807L100.286 272.829L99.8677 276.807ZM93.4677 277.345L92.8857 273.387L93.4677 277.345ZM90.2677 277.292L89.5602 281.229L90.2677 277.292ZM88.6677 277.005L89.3752 273.068L88.6677 277.005ZM82.2677 277.59L80.9038 273.83L82.2677 277.59ZM80.6677 278.171L82.0316 281.931L80.6677 278.171ZM77.4677 278.186L76.1362 281.958L77.4677 278.186ZM74.2677 277.057L72.9362 280.829L74.2677 277.057ZM71.0677 277.039L72.361 280.824L71.0677 277.039ZM67.8677 278.132L66.5743 274.347L67.8677 278.132ZM64.6677 278.313L65.5596 274.413L64.6677 278.313ZM61.4677 277.581L60.5758 281.48L61.4677 277.581ZM58.2677 277.53L59.0403 281.454L58.2677 277.53ZM55.0677 278.16L54.2951 274.235L55.0677 278.16ZM51.8677 278.363L52.1474 274.372L51.8677 278.363ZM50.2677 278.25L50.5474 274.26L50.2677 278.25ZM48.6677 278.138L48.388 282.128L48.6677 278.138ZM45.4677 277.869L45.0771 281.85L45.4677 277.869ZM42.2677 277.555L42.6582 273.574L42.2677 277.555ZM32.6677 277.211L32.796 281.209L32.6677 277.211ZM31.0677 277.262L30.9394 273.265L31.0677 277.262ZM29.4677 277.314L29.3394 273.316L29.4677 277.314ZM24.6677 277.386L24.6932 281.385L24.6677 277.386ZM23.0677 277.396L23.0422 273.396L23.0677 277.396ZM19.8677 277.606L20.365 281.575L19.8677 277.606ZM18.2677 277.807L17.7704 273.838L18.2677 277.807ZM16.6677 278.007L17.165 281.976L16.6677 278.007ZM13.4677 278.074L13.1354 282.061L13.4677 278.074ZM10.2677 277.808L10.6 273.822L10.2677 277.808ZM6.93939 275.721L9.93512 273.07L6.93939 275.721ZM6.07524 274.744L3.07951 277.395L6.07524 274.744ZM5.11625 268.968L1.11703 269.047L5.11625 268.968ZM5.15778 265.768L1.16195 265.585L5.15778 265.768ZM5.23092 264.168L9.22675 264.35L5.23092 264.168ZM5.84938 259.368L9.68582 260.5L5.84938 259.368ZM6.79372 256.168L2.95729 255.036L6.79372 256.168ZM6.78711 252.968L10.6192 251.821L6.78711 252.968ZM5.82954 249.768L1.99743 250.914L5.82954 249.768ZM5.224 246.568L1.23649 246.884L5.224 246.568ZM4.97048 243.368L8.95798 243.052L4.97048 243.368ZM5.09193 240.168L1.13921 239.554L5.09193 240.168ZM6.10572 233.768L10.0503 234.431L6.10572 233.768ZM6.37488 232.168L10.3195 232.831L6.37488 232.168ZM6.64404 230.568L2.69946 229.904L6.64404 230.568ZM6.5474 227.368L10.4468 226.476L6.5474 227.368ZM5.81581 224.168L1.91642 225.059L5.81581 224.168ZM5.85546 220.968L9.73291 221.95L5.85546 220.968ZM6.66633 217.768L2.78888 216.785L6.66633 217.768ZM7.1196 214.568L3.12139 214.448L7.1196 214.568ZM7.21527 211.368L11.2135 211.487L7.21527 211.368ZM7.08655 208.168L3.11068 208.606L7.08655 208.168ZM6.73346 204.968L10.7093 204.529L6.73346 204.968ZM6.1749 201.768L2.28426 202.697L6.1749 201.768ZM5.41086 198.568L1.52022 199.497L5.41086 198.568ZM5.12586 188.968L1.16087 188.44L5.12586 188.968ZM5.55206 185.768L1.58707 185.24L5.55206 185.768ZM5.92242 182.568L9.90324 182.959L5.92242 182.568ZM6.23694 179.368L2.25613 178.976L6.23694 179.368ZM6.50736 176.168L2.51732 175.886L6.50736 176.168ZM6.73367 172.968L10.7237 173.25L6.73367 172.968ZM6.47994 169.768L10.3787 168.874L6.47994 169.768ZM6.11305 168.168L2.21424 169.062L6.11305 168.168ZM5.74616 166.568L1.84735 167.462L5.74616 166.568ZM5.66316 163.368L9.60165 164.066L5.66316 163.368ZM6.23092 160.168L2.29244 159.469L6.23092 160.168ZM5.96969 153.768L1.99523 154.219L5.96969 153.768ZM5.95259 150.568L1.9736 150.158L5.95259 150.568ZM6.28182 147.368L10.2608 147.777L6.28182 147.368ZM6.11717 144.168L10.0351 143.361L6.11717 144.168ZM5.2769 137.768L1.2938 137.4L5.2769 137.768ZM5.42445 136.168L1.44135 135.8L5.42445 136.168ZM5.572 134.568L9.5551 134.935L5.572 134.568ZM5.87898 124.968L1.91053 124.466L5.87898 124.968ZM6.59531 118.568L2.60471 118.294L6.59531 118.568ZM6.70435 112.168L2.74181 112.714L6.70435 112.168ZM6.26329 108.968L10.2258 108.422L6.26329 108.968ZM5.7489 102.568L1.75638 102.812L5.7489 102.568ZM5.93039 96.1677L1.93715 95.9352L5.93039 96.1677ZM6.58578 89.7677L2.61294 89.3023L6.58578 89.7677ZM6.34631 86.5512L2.47889 87.5725L6.34631 86.5512ZM5.49254 83.3182L9.35996 82.2969L5.49254 83.3182ZM5.44892 80.1197L1.56136 79.1779L5.44892 80.1197ZM6.21544 76.9555L10.103 77.8972L6.21544 76.9555ZM6.70452 73.7563L2.71306 73.4951L6.70452 73.7563ZM7.83044 67.4621L4.34074 65.5071L7.83044 67.4621ZM9.44737 64.5759L12.9371 66.5309L9.44737 64.5759ZM10.8726 61.6735L7.18825 60.1161L10.8726 61.6735ZM12.1063 58.7549L15.7907 60.3122L12.1063 58.7549ZM12.9365 55.6476L8.96956 55.134L12.9365 55.6476ZM14.3989 49.3169L17.8395 51.357L14.3989 49.3169ZM15.2213 47.93L11.7807 45.8898L15.2213 47.93ZM17.5962 43.7063L21.1688 45.5054L17.5962 43.7063ZM18.3263 42.2564L21.8989 44.0555L18.3263 42.2564ZM19.0564 40.8066L15.4838 39.0075L19.0564 40.8066ZM20.9103 38.1836L23.7988 40.9507L20.9103 38.1836ZM22.0341 37.0105L19.1456 34.2434L22.0341 37.0105ZM23.1579 35.8374L20.2694 33.0704L23.1579 35.8374ZM25.2291 33.3483L21.9828 31.0113L25.2291 33.3483ZM26.1765 32.0322L29.4228 34.3692L26.1765 32.0322ZM29.5865 28.6683L27.8468 25.0664L29.5865 28.6683ZM32.6167 27.2047L34.3564 30.8066L32.6167 27.2047ZM35.2893 25.3886L32.5547 22.4694L35.2893 25.3886ZM36.4468 24.3044L39.1814 27.2236L36.4468 24.3044ZM37.6043 23.2201L40.3389 26.1393L37.6043 23.2201ZM40.0958 21.2794L42.2567 24.6455L40.0958 21.2794ZM42.7639 19.5665L40.6031 16.2005L42.7639 19.5665ZM45.4207 17.8323L47.6326 21.165L45.4207 17.8323ZM48.066 16.0766L50.2779 19.4093L48.066 16.0766ZM53.4714 12.657L51.3573 9.26127L53.4714 12.657ZM56.4038 11.4573L55.5287 7.55426L56.4038 11.4573ZM59.5469 10.7526L60.4221 14.6557L59.5469 10.7526ZM65.6504 8.98596L64.4588 5.16757L65.6504 8.98596ZM68.702 8.15318L67.7889 4.25881L68.702 8.15318ZM71.7841 7.43046L72.6973 11.3248L71.7841 7.43046ZM74.8697 6.59575L73.6976 2.77132L74.8697 6.59575ZM76.4143 6.1224L75.2422 2.29796L76.4143 6.1224ZM84.296 4.5413L83.7711 0.575889L84.296 4.5413ZM86.3576 4.49738L87.7158 0.735005L86.3576 4.49738ZM87.2859 4.83246L85.9277 8.59484L87.2859 4.83246ZM89.352 5.03456L89.2657 9.03363L89.352 5.03456ZM90.954 5.06912L90.8677 9.06819L92.4697 9.10275L92.556 5.10368L92.6422 1.10461L91.0403 1.07005L90.954 5.06912ZM92.556 5.10368L92.4697 9.10275C93.6364 9.12792 94.8114 9.11006 95.9943 9.04961L95.7902 5.05482L95.586 1.06003C94.5927 1.1108 93.6115 1.12552 92.6422 1.10461L92.556 5.10368ZM95.7902 5.05482L95.9943 9.04961L97.6265 8.96619L97.4224 4.97141L97.2182 0.976621L95.586 1.06003L95.7902 5.05482ZM97.4224 4.97141L97.6265 8.96619L99.2588 8.88278L99.0546 4.88799L98.8504 0.893207L97.2182 0.976621L97.4224 4.97141ZM99.0546 4.88799L99.2588 8.88278C99.5155 8.86966 99.7594 8.91656 100.079 9.10936L102.145 5.68431L104.211 2.25927C102.586 1.27909 100.77 0.795108 98.8504 0.893207L99.0546 4.88799ZM102.145 5.68431L100.079 9.10936L101.537 9.98909L103.603 6.56405L105.67 3.139L104.211 2.25927L102.145 5.68431ZM103.603 6.56405L101.537 9.98909L102.996 10.8688L105.062 7.44378L107.128 4.01873L105.67 3.139L103.603 6.56405ZM105.062 7.44378L102.996 10.8688C104.692 11.8919 106.586 12.3321 108.557 12.1666L108.223 8.1806L107.888 4.19461C107.589 4.21968 107.376 4.16862 107.128 4.01873L105.062 7.44378ZM108.223 8.1806L108.557 12.1666L110.26 12.0237L109.925 8.03768L109.591 4.0517L107.888 4.19461L108.223 8.1806ZM109.925 8.03768L110.26 12.0237L111.963 11.8807L111.628 7.89476L111.293 3.90878L109.591 4.0517L109.925 8.03768ZM111.628 7.89476L111.963 11.8807C112.489 11.8365 112.905 11.9123 113.276 12.0683L114.827 8.38112L116.378 4.6939C114.754 4.0109 113.037 3.76244 111.293 3.90878L111.628 7.89476ZM114.827 8.38112L113.276 12.0683L114.773 12.6976L116.323 9.01039L117.874 5.32317L116.378 4.6939L114.827 8.38112ZM116.323 9.01039L114.773 12.6976L116.269 13.3269L117.82 9.63966L119.37 5.95244L117.874 5.32317L116.323 9.01039ZM117.82 9.63966L116.269 13.3269C117.109 13.6802 117.922 14.0849 118.707 14.5414L120.717 11.0829L122.727 7.62439C121.644 6.9956 120.525 6.43816 119.37 5.95244L117.82 9.63966ZM120.717 11.0829L118.707 14.5414L120.108 15.3554L122.118 11.8969L124.127 8.43837L122.727 7.62439L120.717 11.0829ZM122.118 11.8969L120.108 15.3554L121.509 16.1694L123.519 12.7109L125.528 9.25234L124.127 8.43837L122.118 11.8969ZM123.519 12.7109L121.509 16.1694C122.448 16.7149 123.384 17.2561 124.317 17.7927L126.311 14.3254L128.306 10.8581C127.383 10.3273 126.457 9.79208 125.528 9.25234L123.519 12.7109ZM126.311 14.3254L124.317 17.7927L125.709 18.5933L127.703 15.126L129.697 11.6587L128.306 10.8581L126.311 14.3254ZM127.703 15.126L125.709 18.5933L127.1 19.3939L129.095 15.9266L131.089 12.4593L129.697 11.6587L127.703 15.126ZM129.095 15.9266L127.1 19.3939C127.992 19.9066 128.876 20.4338 129.752 20.9754L131.855 17.5727L133.958 14.1701C133.01 13.5843 132.054 13.0141 131.089 12.4593L129.095 15.9266ZM131.855 17.5727L129.752 20.9754L131.12 21.8209L133.223 18.4182L135.326 15.0156L133.958 14.1701L131.855 17.5727ZM133.223 18.4182L131.12 21.8209L132.488 22.6664L134.591 19.2637L136.694 15.8611L135.326 15.0156L133.223 18.4182ZM134.591 19.2637L132.488 22.6664C133.036 23.0049 133.522 23.4229 133.954 23.935L137.011 21.3549L140.067 18.7748C139.098 17.626 137.97 16.6499 136.694 15.8611L134.591 19.2637ZM137.011 21.3549L133.954 23.935L135.005 25.1807L138.062 22.6006L141.119 20.0205L140.067 18.7748L137.011 21.3549ZM138.062 22.6006L135.005 25.1807L136.057 26.4264L139.114 23.8463L142.17 21.2662L141.119 20.0205L138.062 22.6006ZM139.114 23.8463L136.057 26.4264C136.895 27.4195 137.802 28.334 138.779 29.166L141.373 26.1213L143.967 23.0767C143.333 22.5361 142.734 21.9339 142.17 21.2662L139.114 23.8463ZM141.373 26.1213L138.779 29.166L139.987 30.1953L142.581 27.1507L145.175 24.106L143.967 23.0767L141.373 26.1213ZM142.581 27.1507L139.987 30.1953L141.195 31.2247L143.789 28.18L146.383 25.1354L145.175 24.106L142.581 27.1507ZM143.789 28.18L141.195 31.2247C141.927 31.8482 142.636 32.4987 143.324 33.1764L146.132 30.3272L148.939 27.4779C148.114 26.6653 147.263 25.8844 146.383 25.1354L143.789 28.18ZM146.132 30.3272L143.324 33.1764L144.459 34.2942L147.266 31.4449L150.074 28.5957L148.939 27.4779L146.132 30.3272ZM147.266 31.4449L144.459 34.2942L145.593 35.412L148.401 32.5627L151.208 29.7135L150.074 28.5957L147.266 31.4449ZM148.401 32.5627L145.593 35.412C146.326 36.1337 147.053 36.8681 147.774 37.6153L150.652 34.8367L153.529 32.0581C152.762 31.2637 151.988 30.4821 151.208 29.7135L148.401 32.5627ZM150.652 34.8367L147.774 37.6153L148.891 38.7716L151.768 35.993L154.645 33.2144L153.529 32.0581L150.652 34.8367ZM151.768 35.993L148.891 38.7716L150.007 39.9278L152.885 37.1493L155.762 34.3707L154.645 33.2144L151.768 35.993ZM152.885 37.1493L150.007 39.9278C150.624 40.5666 151.194 41.2449 151.719 41.9636L154.95 39.6055L158.181 37.2474C157.44 36.2328 156.634 35.2736 155.762 34.3707L152.885 37.1493ZM154.95 39.6055L151.719 41.9636L152.668 43.2636L155.899 40.9055L159.13 38.5474L158.181 37.2474L154.95 39.6055ZM155.899 40.9055L152.668 43.2636L153.617 44.5636L156.848 42.2055L160.079 39.8474L159.13 38.5474L155.899 40.9055ZM156.848 42.2055L153.617 44.5636C154.082 45.2014 154.475 45.88 154.797 46.6037L158.451 44.9782L162.106 43.3527C161.555 42.1128 160.878 40.9429 160.079 39.8474L156.848 42.2055ZM158.451 44.9782L154.797 46.6037L155.452 48.0765L159.106 46.451L162.761 44.8255L162.106 43.3527L158.451 44.9782ZM159.106 46.451L155.452 48.0765L156.107 49.5492L159.761 47.9237L163.416 46.2982L162.761 44.8255L159.106 46.451ZM159.761 47.9237L156.107 49.5492C156.608 50.6761 157.174 51.7699 157.806 52.83L161.242 50.7825L164.679 48.7351C164.209 47.9471 163.788 47.1351 163.416 46.2982L159.761 47.9237ZM161.242 50.7825L157.806 52.83L158.632 54.216L162.068 52.1686L165.504 50.1211L164.679 48.7351L161.242 50.7825ZM162.068 52.1686L158.632 54.216L159.458 55.602L162.894 53.5546L166.33 51.5071L165.504 50.1211L162.068 52.1686ZM162.894 53.5546L159.458 55.602C159.852 56.2637 160.164 56.957 160.396 57.6873L164.208 56.4746L168.02 55.2619C167.601 53.9469 167.037 52.6935 166.33 51.5071L162.894 53.5546ZM164.208 56.4746L160.396 57.6873L160.884 59.2212L164.696 58.0086L168.508 56.7959L168.02 55.2619L164.208 56.4746ZM164.696 58.0086L160.884 59.2212L161.372 60.7552L165.184 59.5425L168.996 58.3298L168.508 56.7959L164.696 58.0086ZM165.184 59.5425L161.372 60.7552C161.628 61.5594 161.813 62.3795 161.928 63.218L165.891 62.6738L169.854 62.1296C169.677 60.8384 169.391 59.5709 168.996 58.3298L165.184 59.5425ZM165.891 62.6738L161.928 63.218L162.148 64.8152L166.111 64.271L170.073 63.7269L169.854 62.1296L165.891 62.6738ZM166.111 64.271L162.148 64.8152L162.367 66.4125L166.33 65.8683L170.293 65.3241L170.073 63.7269L166.111 64.271ZM166.33 65.8683L162.367 66.4125C162.571 67.8971 163.004 69.3241 163.653 70.6817L167.262 68.9568L170.871 67.2319C170.57 66.6012 170.381 65.9692 170.293 65.3241L166.33 65.8683ZM167.262 68.9568L163.653 70.6817L164.366 72.1728L167.975 70.448L171.584 68.7231L170.871 67.2319L167.262 68.9568ZM167.975 70.448L164.366 72.1728L165.078 73.664L168.687 71.9391L172.296 70.2142L171.584 68.7231L167.975 70.448ZM168.687 71.9391L165.078 73.664C165.308 74.1444 165.414 74.6101 165.419 75.0978L169.419 75.0511L173.419 75.0043C173.399 73.331 173.017 71.7221 172.296 70.2142L168.687 71.9391ZM169.419 75.0511L165.419 75.0978L165.438 76.7185L169.438 76.6718L173.438 76.6251L173.419 75.0043L169.419 75.0511ZM169.438 76.6718L165.438 76.7185L165.457 78.3392L169.457 78.2925L173.457 78.2458L173.438 76.6251L169.438 76.6718ZM169.457 78.2925L165.457 78.3392C165.468 79.2784 165.429 80.2116 165.341 81.1394L169.323 81.5183L173.305 81.8971C173.42 80.6849 173.471 79.4676 173.457 78.2458L169.457 78.2925ZM169.323 81.5183L165.341 81.1394L165.188 82.7445L169.17 83.1233L173.152 83.5021L173.305 81.8971L169.323 81.5183ZM169.17 83.1233L165.188 82.7445L165.036 84.3495L169.018 84.7283L173 85.1071L173.152 83.5021L169.17 83.1233ZM169.018 84.7283L165.036 84.3495C164.932 85.4436 164.838 86.5362 164.754 87.6271L168.742 87.9331L172.731 88.239C172.811 87.197 172.9 86.153 173 85.1071L169.018 84.7283ZM168.742 87.9331L164.754 87.6271L164.631 89.2268L168.62 89.5328L172.608 89.8388L172.731 88.239L168.742 87.9331ZM168.62 89.5328L164.631 89.2268L164.509 90.8266L168.497 91.1326L172.485 91.4385L172.608 89.8388L168.62 89.5328ZM168.497 91.1326L164.509 90.8266C164.394 92.3195 164.518 93.8042 164.869 95.2659L168.758 94.3323L172.648 93.3987C172.486 92.7271 172.436 92.0786 172.485 91.4385L168.497 91.1326ZM168.758 94.3323L164.869 95.2659L165.253 96.8659L169.142 95.9323L173.032 94.9987L172.648 93.3987L168.758 94.3323ZM169.142 95.9323L165.253 96.8659L165.637 98.4659L169.526 97.5323L173.416 96.5987L173.032 94.9987L169.142 95.9323ZM169.526 97.5323L165.637 98.4659C165.744 98.9141 165.744 99.3364 165.634 99.7861L169.521 100.732L173.407 101.679C173.817 99.9949 173.82 98.2838 173.416 96.5987L169.526 97.5323ZM169.521 100.732L165.634 99.7861L165.245 101.386L169.131 102.332L173.018 103.279L173.407 101.679L169.521 100.732ZM169.131 102.332L165.245 101.386L164.855 102.986L168.742 103.932L172.628 104.879L173.018 103.279L169.131 102.332ZM168.742 103.932L164.855 102.986C164.416 104.791 164.497 106.613 165.069 108.37L168.873 107.132L172.676 105.895C172.554 105.518 172.548 105.207 172.628 104.879L168.742 103.932ZM168.873 107.132L165.069 108.37L165.589 109.97L169.393 108.732L173.197 107.495L172.676 105.895L168.873 107.132ZM169.393 108.732L165.589 109.97L166.11 111.57L169.914 110.332L173.717 109.095L173.197 107.495L169.393 108.732ZM169.914 110.332L166.11 111.57C166.238 111.965 166.247 112.295 166.168 112.637L170.067 113.532L173.965 114.428C174.377 112.636 174.283 110.833 173.717 109.095L169.914 110.332ZM170.067 113.532L166.168 112.637L165.801 114.237L169.699 115.132L173.598 116.028L173.965 114.428L170.067 113.532ZM169.699 115.132L165.801 114.237L165.433 115.837L169.332 116.732L173.23 117.628L173.598 116.028L169.699 115.132ZM169.332 116.732L165.433 115.837C165.137 117.125 164.954 118.423 164.888 119.729L168.883 119.932L172.878 120.136C172.92 119.308 173.036 118.473 173.23 117.628L169.332 116.732ZM168.883 119.932L164.888 119.729L164.806 121.329L168.801 121.532L172.796 121.736L172.878 120.136L168.883 119.932ZM168.801 121.532L164.806 121.329L164.725 122.929L168.72 123.132L172.715 123.336L172.796 121.736L168.801 121.532ZM168.72 123.132L164.725 122.929C164.658 124.236 164.709 125.541 164.877 126.843L168.844 126.332L172.811 125.821C172.704 124.99 172.672 124.162 172.715 123.336L168.72 123.132ZM168.844 126.332L164.877 126.843L165.083 128.443L169.05 127.932L173.018 127.421L172.811 125.821L168.844 126.332ZM169.05 127.932L165.083 128.443L165.289 130.043L169.256 129.532L173.224 129.021L173.018 127.421L169.05 127.932ZM169.256 129.532L165.289 130.043C165.412 130.995 165.492 131.945 165.53 132.894L169.527 132.732L173.524 132.571C173.476 131.387 173.376 130.203 173.224 129.021L169.256 129.532ZM169.527 132.732L165.53 132.894L165.595 134.494L169.591 134.332L173.588 134.171L173.524 132.571L169.527 132.732ZM169.591 134.332L165.595 134.494L165.659 136.094L169.656 135.932L173.653 135.771L173.588 134.171L169.591 134.332ZM169.656 135.932L165.659 136.094C165.696 137.007 165.68 137.92 165.612 138.833L169.601 139.132L173.589 139.431C173.681 138.212 173.702 136.991 173.653 135.771L169.656 135.932ZM169.601 139.132L165.612 138.833L165.492 140.433L169.481 140.732L173.47 141.031L173.589 139.431L169.601 139.132ZM169.481 140.732L165.492 140.433L165.372 142.033L169.361 142.332L173.35 142.631L173.47 141.031L169.481 140.732ZM169.361 142.332L165.372 142.033C165.284 143.211 165.245 144.389 165.255 145.567L169.255 145.532L173.255 145.497C173.247 144.542 173.278 143.587 173.35 142.631L169.361 142.332ZM169.255 145.532L165.255 145.567L165.269 147.167L169.269 147.132L173.269 147.097L173.255 145.497L169.255 145.532ZM169.269 147.132L165.269 147.167L165.283 148.767L169.283 148.732L173.283 148.697L173.269 147.097L169.269 147.132ZM169.283 148.732L165.283 148.767C165.295 150.092 165.434 151.411 165.697 152.721L169.619 151.932L173.54 151.144C173.374 150.32 173.29 149.506 173.283 148.697L169.283 148.732ZM169.619 151.932L165.697 152.721L166.019 154.321L169.94 153.532L173.862 152.744L173.54 151.144L169.619 151.932ZM169.94 153.532L166.019 154.321L166.341 155.921L170.262 155.132L174.184 154.344L173.862 152.744L169.94 153.532ZM170.262 155.132L166.341 155.921C166.496 156.693 166.559 157.452 166.535 158.206L170.533 158.332L174.531 158.458C174.575 157.079 174.457 155.705 174.184 154.344L170.262 155.132ZM170.533 158.332L166.535 158.206L166.485 159.806L170.483 159.932L174.481 160.058L174.531 158.458L170.533 158.332ZM170.483 159.932L166.485 159.806L166.434 161.406L170.432 161.532L174.43 161.658L174.481 160.058L170.483 159.932ZM170.432 161.532L166.434 161.406C166.398 162.554 166.397 163.702 166.431 164.85L170.429 164.732L174.427 164.615C174.398 163.629 174.399 162.644 174.43 161.658L170.432 161.532ZM170.429 164.732L166.431 164.85L166.478 166.45L170.476 166.332L174.474 166.215L174.427 164.615L170.429 164.732ZM170.476 166.332L166.478 166.45L166.525 168.05L170.523 167.932L174.521 167.815L174.474 166.215L170.476 166.332ZM170.523 167.932L166.525 168.05C166.54 168.577 166.455 169.138 166.228 169.759L169.985 171.132L173.742 172.506C174.295 170.993 174.568 169.421 174.521 167.815L170.523 167.932ZM169.985 171.132L166.228 169.759L165.643 171.359L169.4 172.732L173.157 174.106L173.742 172.506L169.985 171.132ZM169.4 172.732L165.643 171.359L165.058 172.959L168.815 174.332L172.572 175.706L173.157 174.106L169.4 172.732ZM168.815 174.332L165.058 172.959C164.356 174.882 164.331 176.893 164.999 178.834L168.781 177.532L172.563 176.231C172.497 176.039 172.495 175.916 172.572 175.706L168.815 174.332ZM168.781 177.532L164.999 178.834L165.549 180.434L169.331 179.132L173.114 177.831L172.563 176.231L168.781 177.532ZM169.331 179.132L165.549 180.434L166.1 182.034L169.882 180.732L173.664 179.431L173.114 177.831L169.331 179.132ZM169.882 180.732L166.1 182.034C166.241 182.445 166.253 182.78 166.183 183.116L170.099 183.932L174.015 184.748C174.39 182.951 174.257 181.153 173.664 179.431L169.882 180.732ZM170.099 183.932L166.183 183.116L165.85 184.716L169.766 185.532L173.682 186.348L174.015 184.748L170.099 183.932ZM169.766 185.532L165.85 184.716L165.517 186.316L169.432 187.132L173.348 187.948L173.682 186.348L169.766 185.532ZM169.432 187.132L165.517 186.316C165.189 187.889 165.17 189.48 165.462 191.06L169.395 190.332L173.328 189.604C173.226 189.051 173.232 188.509 173.348 187.948L169.432 187.132ZM169.395 190.332L165.462 191.06L165.758 192.66L169.691 191.932L173.625 191.204L173.328 189.604L169.395 190.332ZM169.691 191.932L165.758 192.66L166.054 194.26L169.988 193.532L173.921 192.804L173.625 191.204L169.691 191.932ZM169.988 193.532L166.054 194.26C166.164 194.852 166.165 195.431 166.058 196.022L169.995 196.732L173.931 197.443C174.21 195.9 174.206 194.346 173.921 192.804L169.988 193.532ZM169.995 196.732L166.058 196.022L165.77 197.622L169.706 198.332L173.642 199.043L173.931 197.443L169.995 196.732ZM169.706 198.332L165.77 197.622L165.481 199.222L169.417 199.932L173.354 200.643L173.642 199.043L169.706 198.332ZM169.417 199.932L165.481 199.222C165.217 200.682 165.175 202.153 165.357 203.623L169.326 203.132L173.296 202.641C173.214 201.978 173.232 201.316 173.354 200.643L169.417 199.932ZM169.326 203.132L165.357 203.623L165.555 205.223L169.524 204.732L173.494 204.241L173.296 202.641L169.326 203.132ZM169.524 204.732L165.555 205.223L165.752 206.823L169.722 206.332L173.692 205.841L173.494 204.241L169.524 204.732ZM169.722 206.332L165.752 206.823C165.868 207.757 165.935 208.688 165.955 209.618L169.955 209.532L173.954 209.446C173.928 208.243 173.84 207.041 173.692 205.841L169.722 206.332ZM169.955 209.532L165.955 209.618L165.99 211.218L169.989 211.132L173.988 211.046L173.954 209.446L169.955 209.532ZM169.989 211.132L165.99 211.218L166.024 212.818L170.023 212.732L174.023 212.646L173.988 211.046L169.989 211.132ZM170.023 212.732L166.024 212.818C166.041 213.597 165.975 214.381 165.822 215.175L169.749 215.932L173.677 216.689C173.935 215.35 174.052 214.001 174.023 212.646L170.023 212.732ZM169.749 215.932L165.822 215.175L165.513 216.775L169.441 217.532L173.369 218.289L173.677 216.689L169.749 215.932ZM169.441 217.532L165.513 216.775L165.205 218.375L169.133 219.132L173.06 219.889L173.369 218.289L169.441 217.532ZM169.133 219.132L165.205 218.375C164.946 219.718 164.831 221.072 164.865 222.43L168.863 222.332L172.862 222.234C172.843 221.46 172.908 220.68 173.06 219.889L169.133 219.132ZM168.863 222.332L164.865 222.43L164.904 224.03L168.903 223.932L172.901 223.834L172.862 222.234L168.863 222.332ZM168.903 223.932L164.904 224.03L164.943 225.63L168.942 225.532L172.941 225.434L172.901 223.834L168.903 223.932ZM168.942 225.532L164.943 225.63C164.975 226.932 165.121 228.228 165.378 229.516L169.301 228.732L173.223 227.949C173.054 227.104 172.961 226.266 172.941 225.434L168.942 225.532ZM169.301 228.732L165.378 229.516L165.698 231.116L169.62 230.332L173.543 229.549L173.223 227.949L169.301 228.732ZM169.62 230.332L165.698 231.116L166.018 232.716L169.94 231.932L173.862 231.149L173.543 229.549L169.62 230.332ZM169.94 231.932L166.018 232.716C166.197 233.614 166.315 234.507 166.374 235.396L170.366 235.132L174.357 234.868C174.274 233.624 174.109 232.384 173.862 231.149L169.94 231.932ZM170.366 235.132L166.374 235.396L166.48 236.996L170.471 236.732L174.463 236.468L174.357 234.868L170.366 235.132ZM170.471 236.732L166.48 236.996L166.586 238.596L170.577 238.332L174.569 238.068L174.463 236.468L170.471 236.732ZM170.577 238.332L166.586 238.596C166.628 239.234 166.571 239.882 166.401 240.555L170.28 241.532L174.159 242.51C174.527 241.05 174.667 239.564 174.569 238.068L170.577 238.332ZM170.28 241.532L166.401 240.555L165.998 242.155L169.877 243.132L173.755 244.11L174.159 242.51L170.28 241.532ZM169.877 243.132L165.998 242.155L165.595 243.755L169.473 244.732L173.352 245.71L173.755 244.11L169.877 243.132ZM169.473 244.732L165.595 243.755C165.18 245.401 165.14 247.079 165.485 248.743L169.401 247.932L173.318 247.121C173.221 246.652 173.229 246.197 173.352 245.71L169.473 244.732ZM169.401 247.932L165.485 248.743L165.816 250.343L169.733 249.532L173.65 248.721L173.318 247.121L169.401 247.932ZM169.733 249.532L165.816 250.343L166.147 251.943L170.064 251.132L173.981 250.321L173.65 248.721L169.733 249.532ZM170.064 251.132L166.147 251.943C166.301 252.687 166.358 253.417 166.323 254.141L170.319 254.332L174.314 254.524C174.382 253.114 174.269 251.711 173.981 250.321L170.064 251.132ZM170.319 254.332L166.323 254.141L166.247 255.741L170.242 255.932L174.238 256.124L174.314 254.524L170.319 254.332ZM170.242 255.932L166.247 255.741L166.17 257.341L170.166 257.532L174.161 257.724L174.238 256.124L170.242 255.932ZM170.166 257.532L166.17 257.341C166.115 258.49 166.096 259.64 166.112 260.79L170.112 260.732L174.112 260.675C174.097 259.691 174.114 258.708 174.161 257.724L170.166 257.532ZM170.112 260.732L166.112 260.79L166.135 262.39L170.135 262.332L174.134 262.275L174.112 260.675L170.112 260.732ZM170.135 262.332L166.135 262.39L166.158 263.99L170.158 263.932L174.157 263.875L174.134 262.275L170.135 262.332ZM170.158 263.932L166.158 263.99C166.171 264.859 166.119 265.729 166.002 266.604L169.967 267.132L173.932 267.661C174.1 266.402 174.175 265.139 174.157 263.875L170.158 263.932ZM169.967 267.132L166.002 266.604L165.789 268.204L169.754 268.732L173.719 269.261L173.932 267.661L169.967 267.132ZM169.754 268.732L165.789 268.204L165.576 269.804L169.541 270.332L173.506 270.861L173.719 269.261L169.754 268.732ZM169.541 270.332L165.576 269.804C165.429 270.902 165.299 271.977 165.186 273.031L169.162 273.46L173.139 273.889C173.245 272.906 173.368 271.896 173.506 270.861L169.541 270.332ZM169.162 273.46L165.186 273.031L165.021 274.558L168.998 274.988L172.974 275.417L173.139 273.889L169.162 273.46ZM168.998 274.988L165.021 274.558L164.856 276.086L168.833 276.515L172.809 276.945L172.974 275.417L168.998 274.988ZM168.833 276.515L164.856 276.086C164.869 275.962 165.017 274.96 166.09 274.245C166.582 273.917 167.063 273.8 167.398 273.768C167.712 273.738 167.906 273.78 167.926 273.785L167.068 277.692L166.21 281.599C167.237 281.824 168.939 281.961 170.527 280.902C172.189 279.794 172.686 278.087 172.809 276.945L168.833 276.515ZM167.068 277.692L167.926 273.785L166.326 273.433L165.468 277.34L164.61 281.247L166.21 281.599L167.068 277.692ZM165.468 277.34L166.326 273.433L164.726 273.082L163.868 276.989L163.01 280.896L164.61 281.247L165.468 277.34ZM163.868 276.989L164.726 273.082C163.167 272.74 161.587 272.696 160.013 272.957L160.668 276.903L161.322 280.849C161.882 280.756 162.435 280.77 163.01 280.896L163.868 276.989ZM160.668 276.903L160.013 272.957L158.413 273.222L159.068 277.168L159.722 281.114L161.322 280.849L160.668 276.903ZM159.068 277.168L158.413 273.222L156.813 273.487L157.468 277.434L158.122 281.38L159.722 281.114L159.068 277.168ZM157.468 277.434L156.813 273.487C155.84 273.649 154.869 273.774 153.899 273.864L154.268 277.847L154.637 281.83C155.8 281.722 156.962 281.572 158.122 281.38L157.468 277.434ZM154.268 277.847L153.899 273.864L152.299 274.012L152.668 277.995L153.037 281.978L154.637 281.83L154.268 277.847ZM152.668 277.995L152.299 274.012L150.699 274.161L151.068 278.144L151.437 282.126L153.037 281.978L152.668 277.995ZM151.068 278.144L150.699 274.161C149.806 274.243 148.914 274.267 148.023 274.233L147.868 278.229L147.712 282.226C148.954 282.275 150.196 282.241 151.437 282.126L151.068 278.144ZM147.868 278.229L148.023 274.233L146.423 274.17L146.268 278.167L146.112 282.164L147.712 282.226L147.868 278.229ZM146.268 278.167L146.423 274.17L144.823 274.108L144.668 278.105L144.512 282.102L146.112 282.164L146.268 278.167ZM144.668 278.105L144.823 274.108C143.85 274.07 142.877 273.998 141.902 273.892L141.468 277.868L141.033 281.844C142.192 281.971 143.352 282.057 144.512 282.102L144.668 278.105ZM141.468 277.868L141.902 273.892L140.302 273.717L139.868 277.693L139.433 281.669L141.033 281.844L141.468 277.868ZM139.868 277.693L140.302 273.717L138.702 273.542L138.268 277.518L137.833 281.495L139.433 281.669L139.868 277.693ZM138.268 277.518L138.702 273.542C137.668 273.429 136.633 273.303 135.598 273.165L135.068 277.129L134.538 281.094C135.636 281.241 136.735 281.374 137.833 281.495L138.268 277.518ZM135.068 277.129L135.598 273.165L133.998 272.951L133.468 276.916L132.938 280.88L134.538 281.094L135.068 277.129ZM133.468 276.916L133.998 272.951L132.398 272.737L131.868 276.702L131.338 280.666L132.938 280.88L133.468 276.916ZM131.868 276.702L132.398 272.737C131.037 272.555 129.671 272.526 128.306 272.65L128.668 276.633L129.03 280.617C129.798 280.547 130.565 280.563 131.338 280.666L131.868 276.702ZM128.668 276.633L128.306 272.65L126.706 272.795L127.068 276.779L127.43 280.762L129.03 280.617L128.668 276.633ZM127.068 276.779L126.706 272.795L125.106 272.94L125.468 276.924L125.83 280.907L127.43 280.762L127.068 276.779ZM125.468 276.924L125.106 272.94C123.897 273.05 122.69 273.225 121.488 273.464L122.268 277.387L123.048 281.311C123.978 281.125 124.905 280.991 125.83 280.907L125.468 276.924ZM122.268 277.387L121.488 273.464L119.888 273.782L120.668 277.706L121.448 281.629L123.048 281.311L122.268 277.387ZM120.668 277.706L119.888 273.782L118.288 274.101L119.068 278.024L119.848 281.947L121.448 281.629L120.668 277.706ZM119.068 278.024L118.288 274.101C117.621 274.233 116.97 274.259 116.32 274.185L115.868 278.16L115.415 282.134C116.898 282.303 118.381 282.239 119.848 281.947L119.068 278.024ZM115.868 278.16L116.32 274.185L114.72 274.003L114.268 277.978L113.815 281.952L115.415 282.134L115.868 278.16ZM114.268 277.978L114.72 274.003L113.12 273.821L112.668 277.796L112.215 281.77L113.815 281.952L114.268 277.978ZM112.668 277.796L113.12 273.821C111.966 273.69 110.811 273.597 109.656 273.542L109.468 277.538L109.279 281.534C110.257 281.58 111.236 281.658 112.215 281.77L112.668 277.796ZM109.468 277.538L109.656 273.542L108.056 273.467L107.868 277.463L107.679 281.458L109.279 281.534L109.468 277.538ZM107.868 277.463L108.056 273.467L106.456 273.392L106.268 277.387L106.079 281.383L107.679 281.458L107.868 277.463ZM106.268 277.387L106.456 273.392C105.467 273.345 104.477 273.269 103.486 273.165L103.068 277.143L102.649 281.121C103.792 281.242 104.935 281.329 106.079 281.383L106.268 277.387ZM103.068 277.143L103.486 273.165L101.886 272.997L101.468 276.975L101.049 280.953L102.649 281.121L103.068 277.143ZM101.468 276.975L101.886 272.997L100.286 272.829L99.8677 276.807L99.4494 280.785L101.049 280.953L101.468 276.975ZM99.8677 276.807L100.286 272.829C98.8846 272.681 97.4819 272.711 96.0857 272.917L96.6677 276.874L97.2497 280.831C97.9868 280.723 98.7174 280.708 99.4494 280.785L99.8677 276.807ZM96.6677 276.874L96.0857 272.917L94.4857 273.152L95.0677 277.109L95.6497 281.067L97.2497 280.831L96.6677 276.874ZM95.0677 277.109L94.4857 273.152L92.8857 273.387L93.4677 277.345L94.0497 281.302L95.6497 281.067L95.0677 277.109ZM93.4677 277.345L92.8857 273.387C92.2494 273.481 91.6182 273.471 90.9752 273.355L90.2677 277.292L89.5602 281.229C91.0505 281.497 92.5527 281.522 94.0497 281.302L93.4677 277.345ZM90.2677 277.292L90.9752 273.355L89.3752 273.068L88.6677 277.005L87.9602 280.942L89.5602 281.229L90.2677 277.292ZM88.6677 277.005L89.3752 273.068L87.7752 272.78L87.0677 276.717L86.3602 280.654L87.9602 280.942L88.6677 277.005ZM87.0677 276.717L87.7752 272.78C85.9814 272.458 84.2008 272.634 82.5038 273.25L83.8677 277.01L85.2316 280.77C85.6679 280.612 86.0207 280.593 86.3602 280.654L87.0677 276.717ZM83.8677 277.01L82.5038 273.25L80.9038 273.83L82.2677 277.59L83.6316 281.351L85.2316 280.77L83.8677 277.01ZM82.2677 277.59L80.9038 273.83L79.3038 274.41L80.6677 278.171L82.0316 281.931L83.6316 281.351L82.2677 277.59ZM80.6677 278.171L79.3038 274.41C79.1042 274.483 78.9902 274.482 78.7992 274.414L77.4677 278.186L76.1362 281.958C78.0785 282.644 80.0978 282.632 82.0316 281.931L80.6677 278.171ZM77.4677 278.186L78.7992 274.414L77.1992 273.85L75.8677 277.621L74.5362 281.393L76.1362 281.958L77.4677 278.186ZM75.8677 277.621L77.1992 273.85L75.5992 273.285L74.2677 277.057L72.9362 280.829L74.5362 281.393L75.8677 277.621ZM74.2677 277.057L75.5992 273.285C73.6872 272.61 71.6958 272.597 69.7743 273.253L71.0677 277.039L72.361 280.824C72.5729 280.751 72.7148 280.75 72.9362 280.829L74.2677 277.057ZM71.0677 277.039L69.7743 273.253L68.1743 273.8L69.4677 277.585L70.761 281.37L72.361 280.824L71.0677 277.039ZM69.4677 277.585L68.1743 273.8L66.5743 274.347L67.8677 278.132L69.161 281.917L70.761 281.37L69.4677 277.585ZM67.8677 278.132L66.5743 274.347C66.189 274.478 65.8787 274.486 65.5596 274.413L64.6677 278.313L63.7758 282.212C65.59 282.627 67.413 282.514 69.161 281.917L67.8677 278.132ZM64.6677 278.313L65.5596 274.413L63.9596 274.047L63.0677 277.947L62.1758 281.846L63.7758 282.212L64.6677 278.313ZM63.0677 277.947L63.9596 274.047L62.3596 273.681L61.4677 277.581L60.5758 281.48L62.1758 281.846L63.0677 277.947ZM61.4677 277.581L62.3596 273.681C60.7497 273.313 59.1159 273.286 57.4951 273.605L58.2677 277.53L59.0403 281.454C59.5528 281.354 60.0524 281.36 60.5758 281.48L61.4677 277.581ZM58.2677 277.53L57.4951 273.605L55.8951 273.92L56.6677 277.845L57.4403 281.769L59.0403 281.454L58.2677 277.53ZM56.6677 277.845L55.8951 273.92L54.2951 274.235L55.0677 278.16L55.8403 282.084L57.4403 281.769L56.6677 277.845ZM55.0677 278.16L54.2951 274.235C53.5689 274.378 52.856 274.422 52.1474 274.372L51.8677 278.363L51.588 282.353C53.0127 282.453 54.4331 282.361 55.8403 282.084L55.0677 278.16ZM51.8677 278.363L52.1474 274.372L50.5474 274.26L50.2677 278.25L49.988 282.241L51.588 282.353L51.8677 278.363ZM50.2677 278.25L50.5474 274.26L48.9474 274.148L48.6677 278.138L48.388 282.128L49.988 282.241L50.2677 278.25ZM48.6677 278.138L48.9474 274.148C47.9178 274.076 46.8881 273.989 45.8582 273.888L45.4677 277.869L45.0771 281.85C46.1806 281.958 47.2842 282.051 48.388 282.128L48.6677 278.138ZM45.4677 277.869L45.8582 273.888L44.2582 273.731L43.8677 277.712L43.4771 281.693L45.0771 281.85L45.4677 277.869ZM43.8677 277.712L44.2582 273.731L42.6582 273.574L42.2677 277.555L41.8771 281.536L43.4771 281.693L43.8677 277.712ZM42.2677 277.555L42.6582 273.574C41.5115 273.462 40.3643 273.384 39.2166 273.341L39.0677 277.339L38.9188 281.336C39.9044 281.373 40.8905 281.439 41.8771 281.536L42.2677 277.555ZM39.0677 277.339L39.2166 273.341L37.6166 273.282L37.4677 277.279L37.3188 281.276L38.9188 281.336L39.0677 277.339ZM37.4677 277.279L37.6166 273.282L36.0166 273.222L35.8677 277.219L35.7188 281.217L37.3188 281.276L37.4677 277.279ZM35.8677 277.219L36.0166 273.222C34.8576 273.179 33.6984 273.176 32.5394 273.213L32.6677 277.211L32.796 281.209C33.7703 281.178 34.7445 281.18 35.7188 281.217L35.8677 277.219ZM32.6677 277.211L32.5394 273.213L30.9394 273.265L31.0677 277.262L31.196 281.26L32.796 281.209L32.6677 277.211ZM31.0677 277.262L30.9394 273.265L29.3394 273.316L29.4677 277.314L29.596 281.312L31.196 281.26L31.0677 277.262ZM29.4677 277.314L29.3394 273.316C28.307 273.349 27.2746 273.369 26.2422 273.375L26.2677 277.375L26.2932 281.375C27.3941 281.368 28.4951 281.347 29.596 281.312L29.4677 277.314ZM26.2677 277.375L26.2422 273.375L24.6422 273.386L24.6677 277.386L24.6932 281.385L26.2932 281.375L26.2677 277.375ZM24.6677 277.386L24.6422 273.386L23.0422 273.396L23.0677 277.396L23.0932 281.396L24.6932 281.385L24.6677 277.386ZM23.0677 277.396L23.0422 273.396C21.8166 273.404 20.5923 273.484 19.3704 273.637L19.8677 277.606L20.365 281.575C21.2764 281.461 22.1855 281.401 23.0932 281.396L23.0677 277.396ZM19.8677 277.606L19.3704 273.637L17.7704 273.838L18.2677 277.807L18.765 281.776L20.365 281.575L19.8677 277.606ZM18.2677 277.807L17.7704 273.838L16.1704 274.038L16.6677 278.007L17.165 281.976L18.765 281.776L18.2677 277.807ZM16.6677 278.007L16.1704 274.038C15.3777 274.138 14.589 274.154 13.8 274.088L13.4677 278.074L13.1354 282.061C14.4797 282.173 15.8244 282.144 17.165 281.976L16.6677 278.007ZM13.4677 278.074L13.8 274.088L12.2 273.955L11.8677 277.941L11.5354 281.927L13.1354 282.061L13.4677 278.074ZM11.8677 277.941L12.2 273.955L10.6 273.822L10.2677 277.808L9.93542 281.794L11.5354 281.927L11.8677 277.941ZM10.2677 277.808L10.6 273.822C10.4366 273.808 10.4211 273.783 10.4946 273.817C10.5317 273.833 10.5833 273.861 10.6415 273.904C10.7 273.946 10.7537 273.996 10.7993 274.047L7.80354 276.698L4.80781 279.348C6.21661 280.941 8.0923 281.64 9.93542 281.794L10.2677 277.808ZM7.80354 276.698L10.7993 274.047L9.93512 273.07L6.93939 275.721L3.94366 278.372L4.80781 279.348L7.80354 276.698ZM6.93939 275.721L9.93512 273.07L9.07096 272.094L6.07524 274.744L3.07951 277.395L3.94366 278.372L6.93939 275.721ZM6.07524 274.744L9.07096 272.094C9.10383 272.131 9.13293 272.172 9.15643 272.212C9.17971 272.252 9.19212 272.283 9.19742 272.298C9.20779 272.328 9.18232 272.272 9.17869 272.089L5.17947 272.168L1.18025 272.247C1.21566 274.039 1.74047 275.882 3.07951 277.395L6.07524 274.744ZM5.17947 272.168L9.17869 272.089L9.14708 270.489L5.14786 270.568L1.14864 270.647L1.18025 272.247L5.17947 272.168ZM5.14786 270.568L9.14708 270.489L9.11547 268.889L5.11625 268.968L1.11703 269.047L1.14864 270.647L5.14786 270.568ZM5.11625 268.968L9.11547 268.889C9.09612 267.909 9.10882 266.93 9.15361 265.95L5.15778 265.768L1.16195 265.585C1.10921 266.739 1.09423 267.893 1.11703 269.047L5.11625 268.968ZM5.15778 265.768L9.15361 265.95L9.22675 264.35L5.23092 264.168L1.2351 263.985L1.16195 265.585L5.15778 265.768ZM5.23092 264.168L9.22675 264.35L9.2999 262.75L5.30407 262.568L1.30824 262.385L1.2351 263.985L5.23092 264.168ZM5.30407 262.568L9.2999 262.75C9.33335 262.019 9.45841 261.27 9.68582 260.5L5.84938 259.368L2.01295 258.236C1.6108 259.598 1.37232 260.983 1.30824 262.385L5.30407 262.568ZM5.84938 259.368L9.68582 260.5L10.158 258.9L6.32155 257.768L2.48512 256.636L2.01295 258.236L5.84938 259.368ZM6.32155 257.768L10.158 258.9L10.6302 257.3L6.79372 256.168L2.95729 255.036L2.48512 256.636L6.32155 257.768ZM6.79372 256.168L10.6302 257.3C11.1648 255.488 11.1605 253.63 10.6192 251.821L6.78711 252.968L2.955 254.114C3.05208 254.439 3.05225 254.714 2.95729 255.036L6.79372 256.168ZM6.78711 252.968L10.6192 251.821L10.1404 250.221L6.30832 251.368L2.47622 252.514L2.955 254.114L6.78711 252.968ZM6.30832 251.368L10.1404 250.221L9.66165 248.621L5.82954 249.768L1.99743 250.914L2.47622 252.514L6.30832 251.368ZM5.82954 249.768L9.66165 248.621C9.42017 247.814 9.27281 247.026 9.2115 246.252L5.224 246.568L1.23649 246.884C1.3442 248.243 1.60053 249.588 1.99743 250.914L5.82954 249.768ZM5.224 246.568L9.2115 246.252L9.08474 244.652L5.09724 244.968L1.10973 245.284L1.23649 246.884L5.224 246.568ZM5.09724 244.968L9.08474 244.652L8.95798 243.052L4.97048 243.368L0.982972 243.684L1.10973 245.284L5.09724 244.968ZM4.97048 243.368L8.95798 243.052C8.89825 242.298 8.92642 241.543 9.04465 240.781L5.09193 240.168L1.13921 239.554C0.926487 240.926 0.873689 242.304 0.982972 243.684L4.97048 243.368ZM5.09193 240.168L9.04465 240.781L9.29286 239.181L5.34014 238.568L1.38742 237.954L1.13921 239.554L5.09193 240.168ZM5.34014 238.568L9.29286 239.181L9.54107 237.581L5.58836 236.968L1.63564 236.354L1.38742 237.954L5.34014 238.568ZM5.58836 236.968L9.54107 237.581C9.70394 236.531 9.87368 235.481 10.0503 234.431L6.10572 233.768L2.16115 233.104C1.97889 234.188 1.80372 235.271 1.63564 236.354L5.58836 236.968ZM6.10572 233.768L10.0503 234.431L10.3195 232.831L6.37488 232.168L2.4303 231.504L2.16115 233.104L6.10572 233.768ZM6.37488 232.168L10.3195 232.831L10.5886 231.231L6.64404 230.568L2.69946 229.904L2.4303 231.504L6.37488 232.168ZM6.64404 230.568L10.5886 231.231C10.8559 229.642 10.806 228.047 10.4468 226.476L6.5474 227.368L2.64801 228.259C2.77657 228.822 2.79101 229.36 2.69946 229.904L6.64404 230.568ZM6.5474 227.368L10.4468 226.476L10.081 224.876L6.18161 225.768L2.28221 226.659L2.64801 228.259L6.5474 227.368ZM6.18161 225.768L10.081 224.876L9.71521 223.276L5.81581 224.168L1.91642 225.059L2.28221 226.659L6.18161 225.768ZM5.81581 224.168L9.71521 223.276C9.61337 222.831 9.61732 222.406 9.73291 221.95L5.85546 220.968L1.97801 219.985C1.55302 221.662 1.53053 223.371 1.91642 225.059L5.81581 224.168ZM5.85546 220.968L9.73291 221.95L10.1383 220.35L6.26089 219.368L2.38344 218.385L1.97801 219.985L5.85546 220.968ZM6.26089 219.368L10.1383 220.35L10.5438 218.75L6.66633 217.768L2.78888 216.785L2.38344 218.385L6.26089 219.368ZM6.66633 217.768L10.5438 218.75C10.8834 217.41 11.077 216.054 11.1178 214.687L7.1196 214.568L3.12139 214.448C3.09847 215.215 2.98984 215.992 2.78888 216.785L6.66633 217.768ZM7.1196 214.568L11.1178 214.687L11.1656 213.087L7.16743 212.968L3.16922 212.848L3.12139 214.448L7.1196 214.568ZM7.16743 212.968L11.1656 213.087L11.2135 211.487L7.21527 211.368L3.21705 211.248L3.16922 212.848L7.16743 212.968ZM7.21527 211.368L11.2135 211.487C11.251 210.233 11.2005 208.98 11.0624 207.729L7.08655 208.168L3.11068 208.606C3.20805 209.489 3.24334 210.369 3.21705 211.248L7.21527 211.368ZM7.08655 208.168L11.0624 207.729L10.8859 206.129L6.91001 206.568L2.93414 207.006L3.11068 208.606L7.08655 208.168ZM6.91001 206.568L10.8859 206.129L10.7093 204.529L6.73346 204.968L2.75759 205.406L2.93414 207.006L6.91001 206.568ZM6.73346 204.968L10.7093 204.529C10.573 203.294 10.3579 202.063 10.0655 200.839L6.1749 201.768L2.28426 202.697C2.50122 203.605 2.6585 204.508 2.75759 205.406L6.73346 204.968ZM6.1749 201.768L10.0655 200.839L9.68352 199.239L5.79288 200.168L1.90224 201.097L2.28426 202.697L6.1749 201.768ZM5.79288 200.168L9.68352 199.239L9.3015 197.639L5.41086 198.568L1.52022 199.497L1.90224 201.097L5.79288 200.168ZM5.41086 198.568L9.3015 197.639C9.11197 196.845 9.01313 196.065 8.99916 195.295L4.99982 195.368L1.00048 195.44C1.0252 196.803 1.20039 198.157 1.52022 199.497L5.41086 198.568ZM4.99982 195.368L8.99916 195.295L8.97014 193.695L4.9708 193.768L0.971456 193.84L1.00048 195.44L4.99982 195.368ZM4.9708 193.768L8.97014 193.695L8.94112 192.095L4.94178 192.168L0.942436 192.24L0.971456 193.84L4.9708 193.768ZM4.94178 192.168L8.94112 192.095C8.92545 191.231 8.97506 190.365 9.09085 189.496L5.12586 188.968L1.16087 188.44C0.992521 189.704 0.919415 190.971 0.942436 192.24L4.94178 192.168ZM5.12586 188.968L9.09085 189.496L9.30395 187.896L5.33896 187.368L1.37397 186.84L1.16087 188.44L5.12586 188.968ZM5.33896 187.368L9.30395 187.896L9.51705 186.296L5.55206 185.768L1.58707 185.24L1.37397 186.84L5.33896 187.368ZM5.55206 185.768L9.51705 186.296C9.66515 185.184 9.79389 184.072 9.90324 182.959L5.92242 182.568L1.9416 182.176C1.84127 183.197 1.7231 184.218 1.58707 185.24L5.55206 185.768ZM5.92242 182.568L9.90324 182.959L10.0605 181.359L6.07968 180.968L2.09886 180.576L1.9416 182.176L5.92242 182.568ZM6.07968 180.968L10.0605 181.359L10.2178 179.759L6.23694 179.368L2.25613 178.976L2.09886 180.576L6.07968 180.968ZM6.23694 179.368L10.2178 179.759C10.3262 178.656 10.4194 177.553 10.4974 176.45L6.50736 176.168L2.51732 175.886C2.44447 176.916 2.3574 177.946 2.25613 178.976L6.23694 179.368ZM6.50736 176.168L10.4974 176.45L10.6105 174.85L6.62051 174.568L2.63048 174.286L2.51732 175.886L6.50736 176.168ZM6.62051 174.568L10.6105 174.85L10.7237 173.25L6.73367 172.968L2.74363 172.686L2.63048 174.286L6.62051 174.568ZM6.73367 172.968L10.7237 173.25C10.8277 171.78 10.7096 170.317 10.3787 168.874L6.47994 169.768L2.58112 170.662C2.73943 171.352 2.79052 172.022 2.74363 172.686L6.73367 172.968ZM6.47994 169.768L10.3787 168.874L10.0119 167.274L6.11305 168.168L2.21424 169.062L2.58112 170.662L6.47994 169.768ZM6.11305 168.168L10.0119 167.274L9.64498 165.674L5.74616 166.568L1.84735 167.462L2.21424 169.062L6.11305 168.168ZM5.74616 166.568L9.64498 165.674C9.51904 165.124 9.50709 164.599 9.60165 164.066L5.66316 163.368L1.72467 162.669C1.44072 164.269 1.48411 165.878 1.84735 167.462L5.74616 166.568ZM5.66316 163.368L9.60165 164.066L9.88553 162.466L5.94704 161.768L2.00855 161.069L1.72467 162.669L5.66316 163.368ZM5.94704 161.768L9.88553 162.466L10.1694 160.866L6.23092 160.168L2.29244 159.469L2.00855 161.069L5.94704 161.768ZM6.23092 160.168L10.1694 160.866C10.4254 159.424 10.4726 157.97 10.3076 156.516L6.3331 156.968L2.35865 157.419C2.43588 158.099 2.41495 158.778 2.29244 159.469L6.23092 160.168ZM6.3331 156.968L10.3076 156.516L10.1258 154.916L6.15139 155.368L2.17694 155.819L2.35865 157.419L6.3331 156.968ZM6.15139 155.368L10.1258 154.916L9.94414 153.316L5.96969 153.768L1.99523 154.219L2.17694 155.819L6.15139 155.368ZM5.96969 153.768L9.94414 153.316C9.85543 152.535 9.85133 151.757 9.93159 150.977L5.95259 150.568L1.9736 150.158C1.83437 151.512 1.84166 152.867 1.99523 154.219L5.96969 153.768ZM5.95259 150.568L9.93159 150.977L10.0962 149.377L6.11721 148.968L2.13821 148.558L1.9736 150.158L5.95259 150.568ZM6.11721 148.968L10.0962 149.377L10.2608 147.777L6.28182 147.368L2.30283 146.958L2.13821 148.558L6.11721 148.968ZM6.28182 147.368L10.2608 147.777C10.413 146.298 10.3355 144.821 10.0351 143.361L6.11717 144.168L2.19927 144.974C2.33782 145.647 2.37015 146.304 2.30283 146.958L6.28182 147.368ZM6.11717 144.168L10.0351 143.361L9.70579 141.761L5.78789 142.568L1.87 143.374L2.19927 144.974L6.11717 144.168ZM5.78789 142.568L9.70579 141.761L9.37651 140.161L5.45862 140.968L1.54072 141.774L1.87 143.374L5.78789 142.568ZM5.45862 140.968L9.37651 140.161C9.23507 139.474 9.19841 138.803 9.26 138.135L5.2769 137.768L1.2938 137.4C1.15865 138.866 1.24314 140.328 1.54072 141.774L5.45862 140.968ZM5.2769 137.768L9.26 138.135L9.40755 136.535L5.42445 136.168L1.44135 135.8L1.2938 137.4L5.2769 137.768ZM5.42445 136.168L9.40755 136.535L9.5551 134.935L5.572 134.568L1.5889 134.2L1.44135 135.8L5.42445 136.168ZM5.572 134.568L9.5551 134.935C9.6655 133.738 9.71678 132.54 9.70878 131.341L5.70887 131.368L1.70896 131.394C1.7152 132.329 1.67524 133.264 1.5889 134.2L5.572 134.568ZM5.70887 131.368L9.70878 131.341L9.6981 129.741L5.69819 129.768L1.69828 129.794L1.70896 131.394L5.70887 131.368ZM5.69819 129.768L9.6981 129.741L9.68741 128.141L5.6875 128.168L1.68759 128.194L1.69828 129.794L5.69819 129.768ZM5.6875 128.168L9.68741 128.141C9.68148 127.252 9.73461 126.362 9.84743 125.469L5.87898 124.968L1.91053 124.466C1.7538 125.707 1.67928 126.95 1.68759 128.194L5.6875 128.168ZM5.87898 124.968L9.84743 125.469L10.0496 123.869L6.08114 123.368L2.11269 122.866L1.91053 124.466L5.87898 124.968ZM6.08114 123.368L10.0496 123.869L10.2518 122.269L6.2833 121.768L2.31485 121.266L2.11269 122.866L6.08114 123.368ZM6.2833 121.768L10.2518 122.269C10.396 121.127 10.5074 119.985 10.5859 118.842L6.59531 118.568L2.60471 118.294C2.53672 119.284 2.44013 120.275 2.31485 121.266L6.2833 121.768ZM6.59531 118.568L10.5859 118.842L10.6958 117.242L6.70517 116.968L2.71456 116.694L2.60471 118.294L6.59531 118.568ZM6.70517 116.968L10.6958 117.242L10.8056 115.642L6.81502 115.368L2.82441 115.094L2.71456 116.694L6.70517 116.968ZM6.81502 115.368L10.8056 115.642C10.8978 114.299 10.8511 112.958 10.6669 111.622L6.70435 112.168L2.74181 112.714C2.85164 113.511 2.87873 114.303 2.82441 115.094L6.81502 115.368ZM6.70435 112.168L10.6669 111.622L10.4464 110.022L6.48382 110.568L2.52128 111.114L2.74181 112.714L6.70435 112.168ZM6.48382 110.568L10.4464 110.022L10.2258 108.422L6.26329 108.968L2.30076 109.514L2.52128 111.114L6.48382 110.568ZM6.26329 108.968L10.2258 108.422C10.0925 107.454 9.99642 106.488 9.93734 105.523L5.94481 105.768L1.95229 106.012C2.02382 107.18 2.14004 108.348 2.30076 109.514L6.26329 108.968ZM5.94481 105.768L9.93734 105.523L9.83938 103.923L5.84686 104.168L1.85433 104.412L1.95229 106.012L5.94481 105.768ZM5.84686 104.168L9.83938 103.923L9.74143 102.323L5.7489 102.568L1.75638 102.812L1.85433 104.412L5.84686 104.168ZM5.7489 102.568L9.74143 102.323C9.68585 101.415 9.68449 100.508 9.73733 99.6002L5.74409 99.3677L1.75086 99.1352C1.67951 100.361 1.68136 101.587 1.75638 102.812L5.7489 102.568ZM5.74409 99.3677L9.73733 99.6002L9.83048 98.0002L5.83724 97.7677L1.844 97.5352L1.75086 99.1352L5.74409 99.3677ZM5.83724 97.7677L9.83048 98.0002L9.92362 96.4002L5.93039 96.1677L1.93715 95.9352L1.844 97.5352L5.83724 97.7677ZM5.93039 96.1677L9.92362 96.4002C9.98117 95.4117 10.0679 94.4227 10.1838 93.433L6.21095 92.9677L2.23811 92.5023C2.10414 93.646 2.0038 94.7904 1.93715 95.9352L5.93039 96.1677ZM6.21095 92.9677L10.1838 93.433L10.3712 91.833L6.39836 91.3677L2.42552 90.9023L2.23811 92.5023L6.21095 92.9677ZM6.39836 91.3677L10.3712 91.833L10.5586 90.233L6.58578 89.7677L2.61294 89.3023L2.42552 90.9023L6.39836 91.3677ZM6.58578 89.7677L10.5586 90.233C10.7441 88.6498 10.6214 87.0735 10.2137 85.5299L6.34631 86.5512L2.47889 87.5725C2.64044 88.1842 2.67737 88.7523 2.61294 89.3023L6.58578 89.7677ZM6.34631 86.5512L10.2137 85.5299L9.78684 83.9134L5.91942 84.9347L2.05201 85.956L2.47889 87.5725L6.34631 86.5512ZM5.91942 84.9347L9.78684 83.9134L9.35996 82.2969L5.49254 83.3182L1.62512 84.3396L2.05201 85.956L5.91942 84.9347ZM5.49254 83.3182L9.35996 82.2969C9.24027 81.8437 9.24177 81.4523 9.33647 81.0614L5.44892 80.1197L1.56136 79.1779C1.14505 80.8965 1.17563 82.6375 1.62512 84.3396L5.49254 83.3182ZM5.44892 80.1197L9.33647 81.0614L9.71974 79.4793L5.83218 78.5376L1.94462 77.5958L1.56136 79.1779L5.44892 80.1197ZM5.83218 78.5376L9.71974 79.4793L10.103 77.8972L6.21544 76.9555L2.32789 76.0137L1.94462 77.5958L5.83218 78.5376ZM6.21544 76.9555L10.103 77.8972C10.4124 76.6201 10.6104 75.326 10.696 74.0175L6.70452 73.7563L2.71306 73.4951C2.65759 74.3427 2.52951 75.1814 2.32789 76.0137L6.21544 76.9555ZM6.70452 73.7563L10.696 74.0175L10.8018 72.4005L6.81034 72.1393L2.81888 71.8781L2.71306 73.4951L6.70452 73.7563ZM6.81034 72.1393L10.8018 72.4005L10.9076 70.7835L6.91616 70.5223L2.9247 70.2611L2.81888 71.8781L6.81034 72.1393ZM6.91616 70.5223L10.9076 70.7835C10.9384 70.313 11.0663 69.8702 11.3201 69.4171L7.83044 67.4621L4.34074 65.5071C3.51662 66.9782 3.035 68.5755 2.9247 70.2611L6.91616 70.5223ZM7.83044 67.4621L11.3201 69.4171L12.1286 67.974L8.6389 66.019L5.14921 64.064L4.34074 65.5071L7.83044 67.4621ZM8.6389 66.019L12.1286 67.974L12.9371 66.5309L9.44737 64.5759L5.95767 62.6209L5.14921 64.064L8.6389 66.019ZM9.44737 64.5759L12.9371 66.5309C13.5451 65.4456 14.0859 64.3455 14.557 63.2308L10.8726 61.6735L7.18825 60.1161C6.83701 60.9471 6.42761 61.782 5.95767 62.6209L9.44737 64.5759ZM10.8726 61.6735L14.557 63.2308L15.1739 61.7715L11.4895 60.2142L7.80507 58.6568L7.18825 60.1161L10.8726 61.6735ZM11.4895 60.2142L15.1739 61.7715L15.7907 60.3122L12.1063 58.7549L8.42189 57.1975L7.80507 58.6568L11.4895 60.2142ZM12.1063 58.7549L15.7907 60.3122C16.3496 58.9898 16.7169 57.6013 16.9033 56.1612L12.9365 55.6476L8.96956 55.134C8.87154 55.8911 8.68539 56.5741 8.42189 57.1975L12.1063 58.7549ZM12.9365 55.6476L16.9033 56.1612L17.1167 54.5132L13.1498 53.9997L9.18291 53.4861L8.96956 55.134L12.9365 55.6476ZM13.1498 53.9997L17.1167 54.5132L17.3301 52.8653L13.3632 52.3517L9.39627 51.8381L9.18291 53.4861L13.1498 53.9997ZM13.3632 52.3517L17.3301 52.8653C17.4046 52.2891 17.5772 51.7994 17.8395 51.357L14.3989 49.3169L10.9583 47.2767C10.1241 48.6835 9.60615 50.217 9.39627 51.8381L13.3632 52.3517ZM14.3989 49.3169L17.8395 51.357L18.6619 49.9702L15.2213 47.93L11.7807 45.8898L10.9583 47.2767L14.3989 49.3169ZM15.2213 47.93L18.6619 49.9702L19.4843 48.5833L16.0437 46.5431L12.6031 44.5029L11.7807 45.8898L15.2213 47.93ZM16.0437 46.5431L19.4843 48.5833C20.0796 47.5793 20.6411 46.5533 21.1688 45.5054L17.5962 43.7063L14.0236 41.9073C13.5778 42.7925 13.1043 43.6577 12.6031 44.5029L16.0437 46.5431ZM17.5962 43.7063L21.1688 45.5054L21.8989 44.0555L18.3263 42.2564L14.7537 40.4574L14.0236 41.9073L17.5962 43.7063ZM18.3263 42.2564L21.8989 44.0555L22.629 42.6056L19.0564 40.8066L15.4838 39.0075L14.7537 40.4574L18.3263 42.2564ZM19.0564 40.8066L22.629 42.6056C22.9369 41.9942 23.3243 41.446 23.7988 40.9507L20.9103 38.1836L18.0218 35.4165C16.998 36.4853 16.1494 37.6858 15.4838 39.0075L19.0564 40.8066ZM20.9103 38.1836L23.7988 40.9507L24.9226 39.7776L22.0341 37.0105L19.1456 34.2434L18.0218 35.4165L20.9103 38.1836ZM22.0341 37.0105L24.9226 39.7776L26.0464 38.6045L23.1579 35.8374L20.2694 33.0704L19.1456 34.2434L22.0341 37.0105ZM23.1579 35.8374L26.0464 38.6045C26.9245 37.6879 27.7345 36.7145 28.4754 35.6853L25.2291 33.3483L21.9828 31.0113C21.4605 31.7369 20.8897 32.4229 20.2694 33.0704L23.1579 35.8374ZM25.2291 33.3483L28.4754 35.6853L29.4228 34.3692L26.1765 32.0322L22.9303 29.6952L21.9828 31.0113L25.2291 33.3483ZM26.1765 32.0322L29.4228 34.3692L30.3703 33.0532L27.124 30.7162L23.8777 28.3791L22.9303 29.6952L26.1765 32.0322ZM27.124 30.7162L30.3703 33.0532C30.5979 32.737 30.8924 32.4797 31.3262 32.2702L29.5865 28.6683L27.8468 25.0664C26.2605 25.8326 24.9133 26.9406 23.8777 28.3791L27.124 30.7162ZM29.5865 28.6683L31.3262 32.2702L32.8413 31.5384L31.1016 27.9365L29.3619 24.3346L27.8468 25.0664L29.5865 28.6683ZM31.1016 27.9365L32.8413 31.5384L34.3564 30.8066L32.6167 27.2047L30.877 23.6029L29.3619 24.3346L31.1016 27.9365ZM32.6167 27.2047L34.3564 30.8066C35.7085 30.1535 36.9396 29.3237 38.0239 28.3079L35.2893 25.3886L32.5547 22.4694C32.0957 22.8994 31.5451 23.2802 30.877 23.6029L32.6167 27.2047ZM35.2893 25.3886L38.0239 28.3079L39.1814 27.2236L36.4468 24.3044L33.7122 21.3852L32.5547 22.4694L35.2893 25.3886ZM36.4468 24.3044L39.1814 27.2236L40.3389 26.1393L37.6043 23.2201L34.8696 20.3009L33.7122 21.3852L36.4468 24.3044ZM37.6043 23.2201L40.3389 26.1393C40.9333 25.5824 41.5718 25.0851 42.2567 24.6455L40.0958 21.2794L37.9349 17.9133C36.841 18.6155 35.8185 19.412 34.8696 20.3009L37.6043 23.2201ZM40.0958 21.2794L42.2567 24.6455L43.5908 23.7891L41.4299 20.423L39.269 17.0569L37.9349 17.9133L40.0958 21.2794ZM41.4299 20.423L43.5908 23.7891L44.9248 22.9326L42.7639 19.5665L40.6031 16.2005L39.269 17.0569L41.4299 20.423ZM42.7639 19.5665L44.9248 22.9326C45.8313 22.3507 46.7339 21.7615 47.6326 21.165L45.4207 17.8323L43.2087 14.4995C42.3439 15.0735 41.4753 15.6405 40.6031 16.2005L42.7639 19.5665ZM45.4207 17.8323L47.6326 21.165L48.9553 20.2872L46.7433 16.9544L44.5314 13.6217L43.2087 14.4995L45.4207 17.8323ZM46.7433 16.9544L48.9553 20.2872L50.2779 19.4093L48.066 16.0766L45.854 12.7438L44.5314 13.6217L46.7433 16.9544ZM48.066 16.0766L50.2779 19.4093C51.1271 18.8458 51.9889 18.2917 52.8636 17.7472L50.7495 14.3515L48.6355 10.9558C47.6956 11.5409 46.7684 12.1369 45.854 12.7438L48.066 16.0766ZM50.7495 14.3515L52.8636 17.7472L54.2245 16.8999L52.1105 13.5042L49.9964 10.1085L48.6355 10.9558L50.7495 14.3515ZM52.1105 13.5042L54.2245 16.8999L55.5854 16.0527L53.4714 12.657L51.3573 9.26127L49.9964 10.1085L52.1105 13.5042ZM53.4714 12.657L55.5854 16.0527C56.1093 15.7265 56.6677 15.4975 57.279 15.3604L56.4038 11.4573L55.5287 7.55426C54.0445 7.88703 52.6479 8.45778 51.3573 9.26127L53.4714 12.657ZM56.4038 11.4573L57.279 15.3604L58.8505 15.0081L57.9754 11.105L57.1002 7.20189L55.5287 7.55426L56.4038 11.4573ZM57.9754 11.105L58.8505 15.0081L60.4221 14.6557L59.5469 10.7526L58.6718 6.84952L57.1002 7.20189L57.9754 11.105ZM59.5469 10.7526L60.4221 14.6557C61.5745 14.3973 62.7075 14.0946 63.8207 13.7472L62.6291 9.92881L61.4375 6.11042C60.5365 6.39159 59.6147 6.63808 58.6718 6.84952L59.5469 10.7526ZM62.6291 9.92881L63.8207 13.7472L65.3313 13.2758L64.1397 9.45738L62.9481 5.639L61.4375 6.11042L62.6291 9.92881ZM64.1397 9.45738L65.3313 13.2758L66.842 12.8043L65.6504 8.98596L64.4588 5.16757L62.9481 5.639L64.1397 9.45738ZM65.6504 8.98596L66.842 12.8043C67.7572 12.5187 68.6816 12.2665 69.6152 12.0475L68.702 8.15318L67.7889 4.25881C66.6678 4.52168 65.5577 4.82461 64.4588 5.16757L65.6504 8.98596ZM68.702 8.15318L69.6152 12.0475L71.1563 11.6862L70.2431 7.79182L69.3299 3.89745L67.7889 4.25881L68.702 8.15318ZM70.2431 7.79182L71.1563 11.6862L72.6973 11.3248L71.7841 7.43046L70.8709 3.5361L69.3299 3.89745L70.2431 7.79182ZM71.7841 7.43046L72.6973 11.3248C73.8135 11.0631 74.9283 10.7614 76.0418 10.4202L74.8697 6.59575L73.6976 2.77132C72.7517 3.06123 71.8095 3.31602 70.8709 3.5361L71.7841 7.43046ZM74.8697 6.59575L76.0418 10.4202L77.5863 9.94683L76.4143 6.1224L75.2422 2.29796L73.6976 2.77132L74.8697 6.59575ZM76.4143 6.1224L77.5863 9.94683L79.1309 9.47347L77.9588 5.64904L76.7868 1.82461L75.2422 2.29796L76.4143 6.1224ZM77.9588 5.64904L79.1309 9.47347C79.9497 9.22254 80.7806 9.04151 81.6258 8.92963L81.1009 4.96422L80.576 0.998809C79.2912 1.16888 78.0274 1.44439 76.7868 1.82461L77.9588 5.64904ZM81.1009 4.96422L81.6258 8.92963L83.2233 8.71817L82.6984 4.75276L82.1735 0.787349L80.576 0.998809L81.1009 4.96422ZM82.6984 4.75276L83.2233 8.71817L84.8209 8.50671L84.296 4.5413L83.7711 0.575889L82.1735 0.787349L82.6984 4.75276ZM84.296 4.5413L84.8209 8.50671C85.0421 8.47742 85.2267 8.45699 85.3777 8.44358C85.5307 8.42999 85.6339 8.42499 85.6953 8.42368C85.7629 8.42224 85.7452 8.42608 85.667 8.41847C85.6251 8.41438 85.5483 8.40534 85.4456 8.38497C85.3457 8.36516 85.1898 8.32846 84.9995 8.25976L86.3576 4.49738L87.7158 0.735005C86.8235 0.412914 85.9427 0.416598 85.5249 0.425498C84.9766 0.437179 84.3782 0.49553 83.7711 0.575889L84.296 4.5413ZM86.3576 4.49738L84.9995 8.25976L85.4636 8.4273L86.8217 4.66492L88.1799 0.902545L87.7158 0.735005L86.3576 4.49738ZM86.8217 4.66492L85.4636 8.4273L85.9277 8.59484L87.2859 4.83246L88.644 1.07008L88.1799 0.902545L86.8217 4.66492ZM87.2859 4.83246L85.9277 8.59484C86.5798 8.83021 87.2499 8.90911 87.6451 8.94776C88.1287 8.99506 88.6784 9.02096 89.2657 9.03363L89.352 5.03456L89.4383 1.03549C88.9576 1.02512 88.6289 1.00581 88.4239 0.985754C88.3225 0.975843 88.2852 0.968946 88.2954 0.970771C88.3022 0.972004 88.3343 0.977881 88.3858 0.990686C88.4348 1.00289 88.5256 1.02735 88.644 1.07008L87.2859 4.83246ZM89.352 5.03456L89.2657 9.03363L90.8677 9.06819L90.954 5.06912L91.0403 1.07005L89.4383 1.03549L89.352 5.03456Z" fill="#FFBA84"/>
</svg>
