<svg width="318" height="416" viewBox="0 0 318 416" fill="none" xmlns="http://www.w3.org/2000/svg">
<path d="M6 158C6 73.5004 74.5004 5 159 5V5C243.5 5 312 73.5004 312 158V410H6V158Z" fill="white"/>
<path d="M169.844 0.53125C171.703 0.333504 173.524 0.661434 175.188 1.46875L178.25 2.96875C178.457 3.06699 178.608 3.08158 178.844 3.03125L180.531 2.6875L182.188 2.3125C183.846 1.95498 185.529 1.95118 187.188 2.34375L188.75 2.71875L190.344 3.09375C191.505 3.36991 192.649 3.71257 193.781 4.09375L195.312 4.59375L196.844 5.125C197.809 5.44996 198.779 5.74821 199.75 6.03125L201.281 6.46875L202.844 6.9375L207.438 8.25L209 8.6875C210.391 9.08693 211.707 9.69835 212.938 10.4688L214.312 11.3125L215.688 12.1875C216.389 12.6268 217.136 12.972 217.875 13.25L219.344 13.8125L220.844 14.375C221.883 14.7659 222.911 15.1958 223.938 15.625L225.406 16.2188L226.875 16.8438C227.843 17.2487 228.833 17.6656 229.812 18.0625L231.312 18.6562L232.781 19.25C233.898 19.7026 234.998 20.2186 236.062 20.7812L237.5 21.5312L238.906 22.2812C240.061 22.8915 241.156 23.6024 242.188 24.4062L243.469 25.4062L244.719 26.375C245.399 26.9054 246.12 27.3936 246.875 27.8125L249.688 29.375C250.85 30.0192 251.952 30.7715 252.969 31.625L254.219 32.6562L255.438 33.6875C256.391 34.4888 257.284 35.3576 258.125 36.2812L259.219 37.4688L260.312 38.6875C260.715 39.1284 261.182 39.5117 261.75 39.8125L263.219 40.5625L264.688 41.3438C266.12 42.1009 267.379 43.1218 268.406 44.375L269.406 45.625L270.438 46.875C271.178 47.7786 271.887 48.7044 272.562 49.6562L274.438 52.2812C275.045 53.1373 275.665 53.9786 276.281 54.8125L277.219 56.0938L278.188 57.375C278.598 57.9298 279.071 58.45 279.656 58.9062L280.969 59.9062L282.25 60.9062C283.66 62.0064 284.725 63.4407 285.406 65.0938L286.031 66.5938L286.656 68.125C286.805 68.4831 287.025 68.7859 287.375 69.0625L288.719 70.0938L290.031 71.125C291.51 72.2906 292.588 73.8263 293.188 75.625L293.688 77.1875L294.219 78.75C294.51 79.6231 294.865 80.4613 295.25 81.25L295.938 82.6875L296.625 84.0938C297.01 84.8829 297.472 85.667 297.969 86.4062L298.844 87.7188L299.75 89.0625C300.443 90.0941 301.073 91.1711 301.625 92.2812L303.062 95.1562C303.631 96.3007 304.086 97.499 304.469 98.7188L304.969 100.25L305.438 101.781C305.74 102.745 306.066 103.71 306.406 104.656L306.969 106.156L307.5 107.656C307.792 108.466 308.139 109.273 308.562 110.062L310.125 112.938C310.809 114.213 311.309 115.562 311.625 116.969L311.969 118.531L312.344 120.125C312.573 121.144 312.815 122.173 313.062 123.188L313.812 126.312C314.208 127.933 314.239 129.582 313.938 131.219L313.625 132.906L313.312 134.562C313.262 134.84 313.292 135.049 313.406 135.281L314.156 136.781L314.906 138.312C315.732 139.992 316.07 141.811 315.844 143.688L315.656 145.312L315.438 146.938C315.362 147.562 315.392 148.177 315.531 148.781L315.906 150.344L316.281 151.938C316.644 153.515 316.682 155.124 316.406 156.719L316.125 158.312L315.844 159.938C315.725 160.624 315.698 161.299 315.781 161.969L316 163.562L316.188 165.156C316.336 166.356 316.443 167.578 316.469 168.781L316.531 171.969C316.56 173.323 316.446 174.692 316.188 176.031L315.562 179.219C315.411 180.008 315.356 180.789 315.375 181.562L315.438 184.75C315.458 185.582 315.55 186.436 315.719 187.281L316.031 188.875L316.375 190.469C316.621 191.701 316.761 192.946 316.844 194.188L316.969 195.781L317.062 197.406C317.16 198.898 317.023 200.387 316.656 201.844L315.844 205.031C315.722 205.514 315.718 205.972 315.812 206.438L316.156 208.062L316.469 209.656C316.755 211.042 316.879 212.438 316.812 213.844L316.75 215.438L316.656 217.062C316.61 218.042 316.611 219.021 316.625 220V221.594L316.656 223.188C316.674 224.452 316.605 225.741 316.438 227L316 230.188C315.901 230.929 315.887 231.667 315.969 232.406L316.156 234L316.344 235.625C316.511 237.131 316.419 238.642 316.094 240.125L315.406 243.312C315.28 243.886 315.252 244.442 315.344 245L315.625 246.594L315.875 248.219C316.066 249.374 316.236 250.529 316.344 251.688L316.469 253.281L316.625 254.875C316.74 256.115 316.767 257.383 316.719 258.625L316.594 261.812C316.549 262.969 316.47 264.126 316.344 265.281L316.156 266.906L316 268.5C315.88 269.594 315.74 270.687 315.594 271.781L315.375 273.375L315.156 275C315.055 275.763 315.057 276.522 315.125 277.281L315.25 278.906L315.406 280.5C315.49 281.423 315.628 282.352 315.812 283.281L316.438 286.469C316.729 287.935 316.793 289.424 316.625 290.906L316.438 292.5L316.281 294.125C316.171 295.1 316.077 296.089 316.031 297.062L315.969 298.656L315.875 300.25C315.821 301.393 315.745 302.546 315.625 303.688L315.469 305.281L315.281 306.875C315.205 307.603 315.237 308.329 315.344 309.062L315.562 310.688L315.812 312.281C316.032 313.776 315.986 315.293 315.719 316.781L315.156 319.969C315.096 320.308 315.123 320.658 315.281 321.094L315.844 322.688L316.438 324.281C317.138 326.213 317.152 328.247 316.469 330.188L315.344 333.375C315.266 333.596 315.24 333.757 315.312 333.969L315.875 335.562L316.406 337.156C317.004 338.904 317.134 340.748 316.719 342.562L315.969 345.75C315.85 346.272 315.868 346.77 315.969 347.281L316.281 348.875L316.594 350.5C316.868 351.902 316.943 353.33 316.844 354.75L316.75 356.344L316.625 357.938C316.548 359.041 316.452 360.147 316.344 361.25L316.031 364.438C315.935 365.424 315.88 366.421 315.844 367.406L315.719 370.594C315.682 371.568 315.687 372.557 315.719 373.531L315.75 375.125L315.812 376.719C315.848 377.819 315.868 378.931 315.875 380.031V381.625L315.906 383.219C315.912 384.126 315.948 385.057 316.062 385.969L316.281 387.562L316.469 389.156C316.637 390.496 316.674 391.844 316.562 393.188L316.438 394.781L316.281 396.406C316.214 397.229 316.233 398.051 316.312 398.875L316.625 402.062C316.765 403.525 316.675 405.025 316.406 406.5L316.094 408.188L315.781 409.906C315.575 411.038 315.052 412.436 313.812 413.5C312.528 414.6 311.012 414.901 309.75 414.844L308.156 414.75L306.562 414.688C305.161 414.623 303.769 414.402 302.406 414L300.812 413.5L299.219 413.031C298.897 412.936 298.606 412.934 298.281 413.031L296.688 413.531L295.094 414C293.769 414.396 292.42 414.642 291.062 414.75L289.469 414.875L287.844 415.031C286.469 415.139 285.085 415.087 283.719 414.875L280.531 414.375C279.449 414.207 278.363 414.026 277.281 413.844L275.688 413.562L274.062 413.312C273.525 413.224 272.993 413.218 272.438 413.344L270.844 413.719L269.219 414.094C267.536 414.476 265.828 414.455 264.156 414.031L260.969 413.219C260.177 413.018 259.391 412.898 258.625 412.875L257.031 412.844L255.438 412.781C254.559 412.755 253.663 412.778 252.781 412.875L249.594 413.25C248.697 413.349 247.782 413.502 246.875 413.719L245.281 414.094L243.656 414.469C242.324 414.786 240.981 414.975 239.625 415L238 415.031L236.406 415.062C235.144 415.085 233.882 415.011 232.625 414.844L231 414.625L229.406 414.406C228.388 414.271 227.362 414.163 226.344 414.062L223.156 413.75C222.127 413.649 221.092 413.542 220.062 413.469L218.469 413.375L216.844 413.25C216.189 413.205 215.525 413.251 214.844 413.406L213.25 413.781L211.625 414.156C210.045 414.517 208.44 414.564 206.844 414.281L203.656 413.719C202.966 413.596 202.274 413.579 201.594 413.656L200 413.812L198.406 414C197.058 414.153 195.693 414.169 194.344 414.031L192.719 413.875L191.125 413.688C190.475 413.621 189.825 413.676 189.156 413.812L187.562 414.125L185.938 414.469C184.495 414.764 183.024 414.854 181.562 414.719L178.375 414.406C177.439 414.32 176.497 414.275 175.562 414.281L173.969 414.312H172.375C171.13 414.321 169.865 414.25 168.625 414.094L167.031 413.875L165.438 413.688C164.447 413.562 163.458 413.474 162.469 413.406L160.875 413.281L159.281 413.188C158.49 413.133 157.672 413.14 156.875 413.25L153.688 413.688C152.522 413.848 151.356 413.991 150.188 414.062L147 414.25C145.776 414.325 144.537 414.321 143.312 414.25L141.719 414.156L140.094 414.062C138.957 413.996 137.823 413.883 136.688 413.75L135.062 413.562L133.469 413.375C132.954 413.316 132.412 413.366 131.844 413.531L128.656 414.469C127.065 414.931 125.425 415.044 123.781 414.812L120.594 414.375C119.865 414.272 119.132 414.263 118.406 414.344L116.781 414.531L115.188 414.688C113.62 414.865 112.059 414.773 110.531 414.375L108.938 413.938L107.344 413.531C106.516 413.315 105.68 413.177 104.875 413.125L101.688 412.938C101.108 412.9 100.507 412.942 99.875 413.125L98.25 413.594L96.6562 414.062C95.1881 414.491 93.6764 414.691 92.1562 414.625L88.9688 414.5C88.1055 414.463 87.241 414.472 86.375 414.562L84.75 414.75L83.1562 414.906C81.797 415.049 80.4207 415.034 79.0625 414.875L75.875 414.5C75.103 414.41 74.3333 414.42 73.5625 414.5L71.9688 414.656L70.3438 414.844C68.6964 415.013 67.0714 414.796 65.5 414.281L63.9062 413.781L62.3125 413.25C61.7043 413.051 61.128 412.997 60.5938 413.031L57.4062 413.219C56.2026 413.296 54.9854 413.297 53.7812 413.25L50.5938 413.125C49.6506 413.088 48.6934 413.106 47.75 413.156L44.5625 413.344C43.5656 413.397 42.5602 413.46 41.5625 413.562L39.9375 413.719L38.3438 413.906C36.9372 414.051 35.5248 413.998 34.125 413.781L30.9375 413.281C30.0821 413.149 29.2228 413.089 28.375 413.094H26.7812L25.1562 413.125C24.1042 413.132 23.0521 413.143 22 413.156H20.4062L18.7812 413.188C17.9204 413.199 17.0554 413.268 16.1875 413.406L14.5625 413.688L12.9688 413.938C11.3343 414.198 9.66658 414.09 8.0625 413.531L6.71875 413.062L5.34375 412.594C4.14407 412.174 2.80231 411.285 2.09375 409.656C1.43832 408.148 1.61831 406.673 1.90625 405.656L2.375 404.031L2.84375 402.438C3.02302 401.807 3.07337 401.204 3.03125 400.625L2.90625 399.031L2.8125 397.438C2.72669 396.257 2.67198 395.056 2.6875 393.875L2.75 390.688C2.76063 389.871 2.67449 389.046 2.53125 388.219L1.96875 385.031C1.71639 383.574 1.68775 382.09 1.875 380.625L2.09375 379.031L2.28125 377.438C2.38669 376.613 2.4176 375.789 2.375 374.969L2.3125 373.344L2.21875 371.75C2.15173 370.483 2.18869 369.202 2.3125 367.938L2.625 364.75C2.70334 363.948 2.7047 363.146 2.625 362.344L2.46875 360.75L2.28125 359.125C2.14628 357.762 2.17043 356.392 2.34375 355.031L2.5625 353.438L2.75 351.844C2.82406 351.262 2.80025 350.671 2.65625 350.062L1.90625 346.875C1.51005 345.2 1.50548 343.486 1.90625 341.812L2.28125 340.219L2.6875 338.594C2.8414 337.945 2.8683 337.305 2.8125 336.688L2.6875 335.094L2.53125 333.5C2.43175 332.398 2.35086 331.29 2.28125 330.188L2.09375 327C2.0262 325.931 1.94031 324.851 1.875 323.781L1.6875 320.594C1.6248 319.567 1.53121 318.527 1.4375 317.5L1.3125 315.906L1.15625 314.312C1.02895 312.917 1.06579 311.512 1.28125 310.125L1.78125 306.938C1.88568 306.265 1.91044 305.577 1.8125 304.906L1.5625 303.312L1.34375 301.719C1.16211 300.475 1.04261 299.219 1.03125 297.969V296.375L1 294.781C0.986315 293.276 1.23228 291.79 1.6875 290.344L2.1875 288.75L2.6875 287.125C2.85906 286.575 2.89523 286.078 2.84375 285.594L2.6875 283.969L2.5 282.375C2.39987 281.466 2.24156 280.543 2.03125 279.625L1.6875 278.031L1.3125 276.438C0.986733 275.016 0.858353 273.573 0.9375 272.125L1.125 268.938C1.19404 267.677 1.3438 266.406 1.59375 265.156L2.21875 261.969C2.35311 261.297 2.38372 260.624 2.3125 259.969L2.15625 258.375L1.96875 256.781C1.83105 255.515 1.78483 254.238 1.84375 252.969L1.9375 251.344L2 249.75C2.05764 248.528 2.20278 247.31 2.40625 246.094L2.65625 244.469L2.9375 242.875C3.00728 242.455 2.99622 242.015 2.84375 241.531L2.3125 239.938L1.8125 238.344C1.24322 236.536 1.22527 234.668 1.75 232.844L2.21875 231.219L2.6875 229.625C2.90579 228.867 3.00739 228.126 3.03125 227.406L3.15625 224.219C3.18184 223.447 3.11185 222.66 2.96875 221.875L2.65625 220.25L2.375 218.656C2.14342 217.391 2.02891 216.119 2 214.844L1.9375 213.219L1.90625 211.625C1.88135 210.493 1.90533 209.351 1.9375 208.219L1.96875 206.625L2.03125 205.031C2.05904 204.053 2.03542 203.072 2 202.094L1.9375 200.5L1.875 198.875C1.84101 197.952 1.78696 197.021 1.65625 196.094L1.40625 194.5L1.1875 192.906C1.01047 191.651 0.930146 190.386 0.9375 189.125V187.531L0.96875 185.906C0.975371 184.834 0.985813 183.76 1 182.688V181.094L1.03125 179.5C1.04594 178.389 1.0719 177.267 1.125 176.156L1.21875 174.562L1.28125 172.938C1.34689 171.585 1.55611 170.231 1.90625 168.906L2.34375 167.312L2.75 165.719C2.86907 165.268 2.87896 164.84 2.78125 164.406L2.4375 162.812L2.0625 161.219C1.70869 159.648 1.66467 158.055 1.9375 156.469L2.5 153.281C2.5916 152.749 2.57012 152.182 2.4375 151.594L1.6875 148.344C1.29155 146.578 1.37943 144.791 1.9375 143.062L2.9375 139.938C3.14903 139.285 3.27985 138.625 3.28125 137.969V134.719C3.2854 133.324 3.44405 131.945 3.78125 130.594L4.1875 129.031L4.5625 127.469C4.8173 126.448 5.06954 125.427 5.3125 124.406L6.0625 121.281C6.34199 120.106 6.69235 118.952 7.09375 117.812L7.625 116.281L8.15625 114.781C8.50342 113.796 8.82968 112.799 9.15625 111.812L9.65625 110.312L10.1562 108.781C10.52 107.682 10.9357 106.602 11.375 105.531L11.9688 104.062L12.5938 102.562C13.0354 101.487 13.5087 100.413 14.0312 99.375L14.75 97.9688L15.4688 96.5312C15.7264 96.0178 15.9184 95.4272 16 94.75L16.1875 93.0938L16.375 91.4062C16.5741 89.765 17.12 88.2031 17.9688 86.7812L19.5938 84.0312C20.312 82.828 21.1971 81.726 22.1875 80.7188L24.5 78.3438C24.8885 77.9477 25.155 77.5143 25.3438 77.0312L26.5312 73.9688C27.068 72.5789 27.8165 71.2825 28.75 70.125L29.75 68.875L30.75 67.6562C31.3832 66.8711 31.9994 66.0587 32.5938 65.25L33.5312 63.9688L34.5 62.6562C35.1386 61.7874 35.7859 60.9237 36.4375 60.0625L38.375 57.5C39.1033 56.5383 39.8904 55.6269 40.7188 54.75L41.8125 53.5625L42.9062 52.4062C43.5733 51.7005 44.2222 50.9709 44.8438 50.2188L46.9062 47.7188C47.8972 46.5202 49.0889 45.5295 50.4375 44.75L51.8438 43.9375L53.2812 43.0938C53.9929 42.6814 54.6461 42.2327 55.2188 41.7188L56.4062 40.6562L57.5625 39.5938C58.1926 39.0284 58.8148 38.4056 59.375 37.7188L60.4062 36.4375L61.4375 35.1875C62.4295 33.9724 63.6078 32.9655 64.9688 32.1875L66.375 31.375L67.75 30.5938C68.3309 30.262 68.8901 29.8276 69.375 29.3125L71.625 26.9375C72.9437 25.5366 74.577 24.5971 76.4375 24.1875L78.0938 23.8438L79.75 23.4688C80.2885 23.3508 80.7206 23.1461 81.0625 22.875L83.5625 20.875C84.5363 20.1028 85.5642 19.3903 86.625 18.75L88 17.9375L89.375 17.0938C90.5866 16.3629 91.8905 15.8059 93.25 15.4062L94.7812 14.9375L96.3438 14.5C97.2799 14.2248 98.197 13.9022 99.0938 13.5625L100.594 13L102.062 12.4375C103.068 12.0565 104.085 11.6831 105.094 11.3125L106.594 10.75L108.094 10.2188C109.043 9.87021 109.995 9.47827 110.938 9.09375L112.406 8.5L113.906 7.90625C114.898 7.5015 115.904 7.09071 116.906 6.6875L118.406 6.09375L119.906 5.46875C121.496 4.83229 123.174 4.58141 124.875 4.71875L126.531 4.875L128.188 5C128.866 5.05477 129.493 4.99482 130.062 4.84375L131.594 4.4375L133.156 4.03125C134.361 3.71246 135.578 3.45925 136.812 3.3125L138.406 3.125L139.969 2.9375C140.965 2.81939 141.974 2.69195 142.969 2.53125L144.562 2.28125L146.125 2.03125C147.5 1.80909 148.891 1.75747 150.281 1.875L153.469 2.125C154.239 2.1901 154.645 2.15717 154.781 2.125L155.875 1.84375L156.938 1.5625C157.085 1.52392 157.211 1.49634 157.312 1.46875C157.506 1.37655 157.643 1.27587 157.719 1.25C158.055 1.13556 158.337 1.07346 158.406 1.0625C158.606 1.03136 158.783 1.03525 158.844 1.03125C159.001 1.0211 159.169 1.00286 159.312 1H162.219L163.812 1.03125C164.728 1.03451 165.661 0.973733 166.594 0.875L168.219 0.6875L169.844 0.53125ZM169.062 8.65625L167.469 8.8125C166.245 8.94264 164.998 9.03559 163.781 9.03125L162.188 9H160C159.955 9.01409 159.911 9.02055 159.875 9.03125C159.634 9.10259 159.302 9.18611 158.938 9.28125L156.812 9.84375C155.515 10.1821 154.139 10.2364 152.812 10.125L151.188 9.96875L149.594 9.84375C148.856 9.78205 148.128 9.79026 147.406 9.90625L145.812 10.1875L144.25 10.4375C143.148 10.6156 142.043 10.7751 140.938 10.9062L137.75 11.2812C136.889 11.384 136.03 11.5267 135.188 11.75L133.656 12.1562L132.094 12.5938C130.614 12.9838 129.095 13.0917 127.562 12.9688L125.875 12.8438L124.219 12.7188C123.708 12.6782 123.278 12.7442 122.875 12.9062L119.875 14.0938C118.882 14.4932 117.889 14.9116 116.906 15.3125L115.438 15.9062L113.938 16.5C112.908 16.9199 111.882 17.3375 110.844 17.7188L109.344 18.2812L107.844 18.8125C106.863 19.1726 105.884 19.5361 104.906 19.9062L103.406 20.4688L101.938 21.0312C100.848 21.4439 99.7222 21.8245 98.5938 22.1562L97.0625 22.625L95.5 23.0625C94.8003 23.2682 94.1483 23.5669 93.5312 23.9375L92.1562 24.7812L90.7812 25.5938C90.0126 26.0574 89.2716 26.5942 88.5625 27.1562L87.2812 28.1562L86.0312 29.1562C84.6876 30.2218 83.1361 30.9159 81.4688 31.2812L79.8125 31.6562L78.1562 32C77.817 32.0749 77.6177 32.2148 77.4375 32.4062L76.3125 33.5938L75.1875 34.8125C74.1721 35.89 72.9996 36.7997 71.7188 37.5312L70.3438 38.3125L68.9375 39.125C68.4381 39.4102 68.0061 39.7827 67.625 40.25L66.5938 41.5L65.5625 42.7812C64.7489 43.7783 63.851 44.6835 62.9062 45.5312L61.75 46.5938L60.5625 47.6562C59.5626 48.5535 58.4589 49.3502 57.2812 50.0312L55.8438 50.8438L54.4375 51.6875C53.8945 52.0017 53.4336 52.363 53.0625 52.8125L52.0625 54.0625L51.0312 55.3125C50.2942 56.205 49.5116 57.0674 48.7188 57.9062L46.5312 60.2188C45.8985 60.8882 45.3059 61.6091 44.75 62.3438L43.7812 63.625L42.8125 64.875C42.1803 65.7105 41.5569 66.5634 40.9375 67.4062L40 68.6875L39.0312 69.9688C38.3647 70.8757 37.6779 71.777 36.9688 72.6562L34.9688 75.1562C34.5643 75.6578 34.242 76.2196 34 76.8438L32.8125 79.9062C32.2224 81.4315 31.3341 82.803 30.1875 83.9688L29.0312 85.125L27.875 86.3125C27.3203 86.8767 26.8518 87.4834 26.4688 88.125L25.6562 89.5L24.8125 90.9062C24.5664 91.3234 24.4133 91.7994 24.3438 92.375L24.125 94.0312L23.9375 95.7188C23.7513 97.2623 23.319 98.7426 22.625 100.125L21.1875 103C20.758 103.854 20.332 104.709 19.9688 105.594L19.375 107.094L18.7812 108.562C18.4139 109.458 18.0545 110.362 17.75 111.281L16.75 114.344C16.4087 115.375 16.05 116.409 15.6875 117.438L15.1562 118.938L14.625 120.469C14.3178 121.341 14.0578 122.226 13.8438 123.125L13.0938 126.25C12.8432 127.303 12.5752 128.353 12.3125 129.406L11.9375 130.969L11.5312 132.531C11.3509 133.254 11.2829 133.994 11.2812 134.75V138C11.2766 139.496 11.025 140.979 10.5625 142.406L9.5625 145.531C9.45221 145.876 9.41194 146.202 9.5 146.594L10.25 149.844C10.6058 151.423 10.6487 153.03 10.375 154.625L9.8125 157.812C9.7194 158.353 9.74843 158.907 9.875 159.469L10.2188 161.062L10.5938 162.656C10.9759 164.351 10.941 166.072 10.5 167.75L10.0625 169.375L9.65625 170.969C9.44419 171.772 9.31841 172.568 9.28125 173.344L9.1875 174.938L9.125 176.531C9.07614 177.552 9.04475 178.573 9.03125 179.594L9 181.188V182.781C8.98602 183.838 8.97525 184.912 8.96875 185.969L8.9375 187.562V189.156C8.93215 190.026 9.00154 190.906 9.125 191.781L9.5625 194.969C9.73196 196.17 9.83108 197.388 9.875 198.594L10 201.781C10.0419 202.933 10.0326 204.099 10 205.25L9.96875 206.844L9.9375 208.469C9.90945 209.464 9.8843 210.474 9.90625 211.469L9.96875 214.656C9.98764 215.506 10.0924 216.359 10.25 217.219L10.5312 218.812L10.8438 220.406C11.0898 221.748 11.1696 223.113 11.125 224.469L11.0938 226.062L11.0312 227.688C10.9836 229.09 10.7682 230.48 10.375 231.844L9.90625 233.438L9.4375 235.062C9.353 235.361 9.33883 235.622 9.4375 235.938L9.96875 237.531L10.4688 239.125C10.9871 240.769 11.0967 242.48 10.8125 244.188L10.5625 245.812L10.2812 247.406C10.129 248.315 10.0427 249.222 10 250.125L9.90625 251.719L9.84375 253.344C9.80433 254.197 9.84447 255.05 9.9375 255.906L10.0938 257.5L10.2812 259.094C10.442 260.572 10.3548 262.07 10.0625 263.531L9.4375 266.719C9.26081 267.602 9.1416 268.502 9.09375 269.375L9 270.969L8.9375 272.562C8.90017 273.246 8.93089 273.946 9.09375 274.656L9.84375 277.844C10.1218 279.057 10.3342 280.278 10.4688 281.5L10.625 283.094L10.8125 284.719C10.9901 286.353 10.8045 287.965 10.3125 289.531L9.8125 291.156L9.3125 292.75C9.09825 293.433 8.99432 294.094 9 294.719L9.03125 296.312V297.906C9.03933 298.789 9.12027 299.674 9.25 300.562L9.46875 302.156L9.71875 303.75C9.93227 305.212 9.91436 306.695 9.6875 308.156L9.1875 311.344C9.07246 312.085 9.05933 312.829 9.125 313.562L9.28125 315.188L9.40625 316.781C9.50698 317.885 9.58876 318.989 9.65625 320.094L9.78125 321.688L9.875 323.312L10.25 329.688C10.3151 330.718 10.4069 331.751 10.5 332.781L10.6562 334.375L10.7812 335.969C10.9174 337.476 10.8222 338.992 10.4688 340.469L10.0625 342.062L9.6875 343.688C9.58064 344.141 9.58053 344.579 9.6875 345.031L10.4375 348.219C10.7979 349.742 10.8849 351.292 10.6875 352.844L10.5 354.438L10.2812 356.062C10.1853 356.825 10.1742 357.584 10.25 358.344L10.5625 361.531C10.6951 362.86 10.6925 364.203 10.5625 365.531L10.25 368.719C10.1651 369.586 10.1729 370.478 10.2188 371.344L10.2812 372.938L10.375 374.531C10.4441 375.836 10.3843 377.138 10.2188 378.438L10.0312 380.062L9.8125 381.656C9.72835 382.321 9.75854 382.983 9.875 383.656L10.1562 385.25L10.4062 386.844C10.6317 388.145 10.7664 389.469 10.75 390.781L10.7188 392.406L10.6875 394C10.6752 394.948 10.7125 395.895 10.7812 396.844L10.9062 398.438L11 400.062C11.111 401.606 10.9559 403.133 10.5312 404.625L10.1875 405.781L10.6875 405.969C10.8926 406.04 11.2214 406.111 11.7188 406.031L14.9062 405.531C16.1613 405.331 17.4252 405.204 18.6875 405.188L20.2812 405.156H21.875C22.9505 405.142 24.0495 405.132 25.125 405.125L26.7188 405.094H28.3125C29.5952 405.086 30.8811 405.177 32.1562 405.375L35.3438 405.875C36.0741 405.988 36.8076 406.012 37.5312 405.938L39.125 405.781L40.7188 405.594C41.8497 405.477 42.9933 405.404 44.125 405.344L45.7188 405.25L47.3438 405.156C48.5284 405.094 49.7214 405.11 50.9062 405.156L54.0938 405.281C55.0187 405.318 55.9495 405.309 56.875 405.25L58.5 405.125L60.0938 405.031C61.6901 404.93 63.2586 405.158 64.7812 405.656L66.375 406.156L68 406.688C68.5534 406.867 69.0529 406.925 69.5312 406.875L71.125 406.719L72.7188 406.531C74.0777 406.39 75.4548 406.404 76.8125 406.562L80 406.938C80.7711 407.028 81.5425 407.018 82.3125 406.938L83.9062 406.781L85.5312 406.625C86.7905 406.492 88.0505 406.446 89.3125 406.5L92.5 406.625C93.1069 406.651 93.7481 406.597 94.4062 406.406L96.0312 405.938L97.625 405.469C99.1167 405.033 100.642 404.839 102.188 404.938L103.812 405.031L105.406 405.156C106.729 405.242 108.044 405.443 109.344 405.781L110.938 406.219L112.562 406.625C113.158 406.779 113.723 406.812 114.281 406.75L115.906 406.562L117.5 406.406C118.896 406.249 120.295 406.243 121.688 406.438L123.312 406.688L124.906 406.906C125.393 406.974 125.899 406.938 126.438 406.781L129.625 405.844C131.186 405.391 132.792 405.248 134.406 405.438L137.594 405.812C138.579 405.928 139.578 406.005 140.562 406.062L142.188 406.156L143.781 406.25C144.687 406.302 145.594 406.305 146.5 406.25L149.688 406.062C150.652 406.003 151.627 405.914 152.594 405.781L155.781 405.344C157.117 405.16 158.471 405.096 159.812 405.188L161.406 405.312L163 405.406C164.141 405.485 165.297 405.606 166.438 405.75L168.031 405.938L169.656 406.156C170.544 406.268 171.429 406.318 172.312 406.312H173.906L175.5 406.281C176.694 406.273 177.902 406.328 179.094 406.438L180.719 406.594L182.312 406.75C182.979 406.811 183.658 406.766 184.344 406.625L185.938 406.281L187.531 405.969C188.987 405.669 190.463 405.599 191.938 405.75L193.562 405.906L195.156 406.062C195.935 406.142 196.721 406.151 197.5 406.062L200.688 405.688C202.139 405.523 203.591 405.589 205.031 405.844L206.625 406.125L208.25 406.406C208.779 406.499 209.299 406.469 209.844 406.344L211.438 406L213.062 405.625C214.501 405.296 215.972 405.178 217.438 405.281L219.031 405.375L220.625 405.5C221.728 405.578 222.835 405.673 223.938 405.781L227.125 406.094C228.237 406.203 229.358 406.321 230.469 406.469L233.656 406.906C234.526 407.022 235.417 407.078 236.281 407.062L239.469 407C240.239 406.986 241.019 406.877 241.812 406.688L245 405.938C246.22 405.646 247.457 405.418 248.688 405.281L250.312 405.125L251.906 404.938C253.154 404.8 254.405 404.744 255.656 404.781L257.25 404.844L258.875 404.875C260.237 404.917 261.602 405.13 262.938 405.469L266.125 406.281C266.576 406.395 266.998 406.38 267.438 406.281L269.062 405.906L270.656 405.562C272.226 405.204 273.819 405.139 275.406 405.406L277 405.688L278.594 405.938C279.643 406.114 280.701 406.306 281.75 406.469L283.344 406.719L284.969 406.969C285.723 407.085 286.472 407.09 287.219 407.031L288.812 406.906L290.438 406.781C291.203 406.72 291.983 406.581 292.781 406.344L294.406 405.875L296 405.375C297.806 404.836 299.66 404.842 301.469 405.375L303.062 405.844L304.688 406.312C305.454 406.538 306.21 406.654 306.938 406.688L308.219 406.75L308.531 405.062C308.679 404.253 308.72 403.514 308.656 402.844L308.344 399.656C308.219 398.352 308.204 397.024 308.312 395.719L308.469 394.125L308.594 392.531C308.66 391.742 308.631 390.949 308.531 390.156L308.344 388.562L308.125 386.969C307.972 385.747 307.914 384.507 307.906 383.281L307.875 381.688V380.094C307.868 379.066 307.845 378.028 307.812 377L307.75 375.375L307.719 373.781C307.682 372.625 307.676 371.469 307.719 370.312L307.844 367.125C307.887 365.977 307.95 364.803 308.062 363.656L308.375 360.469C308.476 359.439 308.584 358.405 308.656 357.375L308.75 355.781L308.875 354.188C308.925 353.48 308.893 352.756 308.75 352.031L308.406 350.438L308.094 348.844C307.775 347.223 307.819 345.578 308.188 343.969L308.562 342.375L308.906 340.781C308.979 340.462 308.975 340.135 308.844 339.75L308.312 338.156L307.75 336.562C307.093 334.641 307.106 332.631 307.781 330.719L308.906 327.531C308.973 327.342 308.976 327.227 308.906 327.031L308.344 325.438L307.75 323.812C307.138 322.122 306.962 320.35 307.281 318.562L307.562 316.938L307.844 315.344C307.958 314.702 307.968 314.072 307.875 313.438L307.656 311.844L307.406 310.25C307.201 308.854 307.196 307.433 307.344 306.031L307.656 302.844C307.76 301.855 307.86 300.863 307.906 299.875L307.969 298.281L308.031 296.656C308.086 295.51 308.182 294.364 308.312 293.219L308.5 291.594L308.688 290C308.761 289.352 308.726 288.695 308.594 288.031L307.969 284.844C307.73 283.641 307.547 282.428 307.438 281.219L307.281 279.625L307.156 278.031C307.032 276.668 307.069 275.296 307.25 273.938L307.438 272.344L307.656 270.719C307.794 269.687 307.919 268.656 308.031 267.625L308.406 264.438C308.513 263.463 308.556 262.473 308.594 261.5L308.719 258.312C308.753 257.421 308.739 256.518 308.656 255.625L308.5 254.031L308.375 252.438C308.285 251.467 308.161 250.473 308 249.5L307.719 247.906L307.469 246.312C307.208 244.739 307.251 243.152 307.594 241.594L308.281 238.406C308.423 237.759 308.445 237.124 308.375 236.5L308.219 234.906L308.031 233.312C307.876 231.921 307.877 230.514 308.062 229.125L308.5 225.938C308.617 225.063 308.669 224.182 308.656 223.312L308.625 221.719V220.125C308.609 218.975 308.601 217.806 308.656 216.656L308.75 215.062L308.812 213.469C308.847 212.749 308.808 212.021 308.656 211.281L308.312 209.656L308 208.062C307.657 206.404 307.682 204.735 308.094 203.094L308.5 201.469L308.906 199.875C309.073 199.21 309.134 198.568 309.094 197.938L308.969 196.312L308.875 194.719C308.816 193.831 308.71 192.928 308.531 192.031L308.188 190.438L307.875 188.844C307.618 187.56 307.47 186.266 307.438 184.969L307.406 183.344L307.375 181.75C307.342 180.394 307.46 179.029 307.719 177.688L308 176.094L308.312 174.5C308.465 173.71 308.547 172.931 308.531 172.156L308.5 170.531L308.469 168.938C308.449 168.012 308.365 167.085 308.25 166.156L308.062 164.562L307.844 162.938C307.665 161.48 307.717 160.013 307.969 158.562L308.25 156.969L308.531 155.344C308.624 154.802 308.59 154.282 308.469 153.75L308.125 152.156L307.75 150.562C307.403 149.052 307.314 147.508 307.5 145.969L307.719 144.344L307.906 142.719C307.938 142.438 307.883 142.178 307.719 141.844L307 140.312L306.25 138.812C305.368 137.025 305.079 135.08 305.438 133.125L305.75 131.438L306.062 129.781C306.171 129.191 306.143 128.68 306.031 128.219L305.656 126.625L305.281 125.062L304.156 120.281L303.812 118.719C303.658 118.032 303.409 117.364 303.062 116.719L302.281 115.281L301.531 113.844C300.925 112.714 300.397 111.535 299.969 110.344L299.438 108.844L298.875 107.344C298.497 106.294 298.148 105.225 297.812 104.156L297.344 102.625L296.844 101.094C296.587 100.279 296.286 99.4829 295.906 98.7188L294.469 95.8438C294.072 95.0463 293.624 94.2751 293.125 93.5312L291.312 90.8438C290.618 89.8082 289.982 88.7403 289.438 87.625L288.062 84.75C287.517 83.631 287.025 82.452 286.625 81.25L286.125 79.7188L285.594 78.1562C285.5 77.876 285.344 77.6593 285.062 77.4375L283.75 76.375L282.438 75.3438C281.031 74.2353 279.936 72.8191 279.25 71.1562L278.625 69.6562L278 68.125C277.847 67.7561 277.627 67.4638 277.312 67.2188L274.75 65.2188C273.609 64.3288 272.604 63.2804 271.75 62.125L270.781 60.8438L269.844 59.5625C269.197 58.6879 268.542 57.8026 267.906 56.9062L266.969 55.5938L266.062 54.2812C265.494 53.48 264.874 52.6986 264.25 51.9375L263.219 50.6875L262.219 49.4375C261.881 49.0252 261.451 48.6774 260.938 48.4062L259.5 47.6562L258.031 46.875C256.661 46.1511 255.448 45.2058 254.406 44.0625L252.219 41.6875C251.614 41.023 250.964 40.3858 250.281 39.8125L247.844 37.75C247.221 37.2269 246.528 36.7715 245.812 36.375L243 34.8125C241.88 34.1914 240.822 33.4747 239.812 32.6875L238.531 31.7188L237.281 30.7188C236.619 30.2025 235.895 29.7341 235.156 29.3438L233.75 28.5938L232.312 27.8438C231.491 27.4101 230.644 27.0057 229.781 26.6562L228.281 26.0625L226.812 25.4688C225.808 25.0615 224.807 24.6345 223.812 24.2188L222.344 23.625L220.844 23C219.911 22.6099 218.976 22.2301 218.031 21.875L215.031 20.75C213.789 20.282 212.605 19.6791 211.469 18.9688L210.062 18.0938L208.688 17.25C208.077 16.868 207.444 16.5649 206.781 16.375L205.25 15.9375L203.688 15.5C202.656 15.2044 201.624 14.8939 200.594 14.5938L199.062 14.1562L197.5 13.7188C196.424 13.4049 195.349 13.0471 194.281 12.6875L192.75 12.1875L191.219 11.6562C190.319 11.3536 189.392 11.0942 188.469 10.875L185.344 10.125C184.914 10.0235 184.438 10.0042 183.875 10.125L182.219 10.5L180.531 10.8438C178.549 11.2711 176.577 11.0423 174.75 10.1562L173.219 9.40625L171.688 8.6875C171.309 8.50356 170.99 8.43658 170.688 8.46875L169.062 8.65625ZM162.719 6.4375C162.832 6.13893 162.902 5.81048 162.938 5.4375C162.906 5.81975 162.823 6.14541 162.719 6.4375Z" fill="#FFBA84"/>
</svg>
