<svg xmlns="http://www.w3.org/2000/svg" viewBox="0 0 28 28" id="Delete-2-Line--Streamline-Mingcute" height="28" width="28">
  <desc>
    Delete 2 Line Streamline Icon: https://streamlinehq.com
  </desc>
  <g fill="none" fill-rule="nonzero">
    <path d="M28 0v28H0V0h28ZM14.691833333333335 27.134333333333334l-0.012833333333333334 0.0023333333333333335 -0.08283333333333333 0.04083333333333334 -0.023333333333333334 0.004666666666666667 -0.016333333333333335 -0.004666666666666667 -0.08283333333333333 -0.04083333333333334c-0.011666666666666667 -0.004666666666666667 -0.022166666666666668 -0.0011666666666666668 -0.028000000000000004 0.005833333333333334l-0.004666666666666667 0.011666666666666667 -0.019833333333333335 0.49933333333333335 0.005833333333333334 0.023333333333333334 0.011666666666666667 0.015166666666666667 0.12133333333333333 0.08633333333333333 0.0175 0.004666666666666667 0.014000000000000002 -0.004666666666666667 0.12133333333333333 -0.08633333333333333 0.014000000000000002 -0.018666666666666668 0.004666666666666667 -0.019833333333333335 -0.019833333333333335 -0.4981666666666667c-0.0023333333333333335 -0.011666666666666667 -0.0105 -0.019833333333333335 -0.019833333333333335 -0.021Zm0.3091666666666667 -0.13183333333333336 -0.015166666666666667 0.0023333333333333335 -0.21583333333333335 0.1085 -0.011666666666666667 0.011666666666666667 -0.0035000000000000005 0.012833333333333334 0.021 0.5016666666666667 0.005833333333333334 0.014000000000000002 0.009333333333333334 0.008166666666666668 0.23450000000000004 0.1085c0.014000000000000002 0.004666666666666667 0.026833333333333334 0 0.03383333333333334 -0.009333333333333334l0.004666666666666667 -0.016333333333333335 -0.03966666666666667 -0.7163333333333334c-0.0035000000000000005 -0.014000000000000002 -0.011666666666666667 -0.023333333333333334 -0.023333333333333334 -0.025666666666666667Zm-0.8341666666666667 0.0023333333333333335a0.026833333333333334 0.026833333333333334 0 0 0 -0.0315 0.007000000000000001l-0.007000000000000001 0.016333333333333335 -0.03966666666666667 0.7163333333333334c0 0.014000000000000002 0.008166666666666668 0.023333333333333334 0.019833333333333335 0.028000000000000004l0.0175 -0.0023333333333333335 0.23450000000000004 -0.1085 0.011666666666666667 -0.009333333333333334 0.004666666666666667 -0.012833333333333334 0.019833333333333335 -0.5016666666666667 -0.0035000000000000005 -0.014000000000000002 -0.011666666666666667 -0.011666666666666667 -0.21466666666666667 -0.10733333333333334Z" stroke-width="1.1667"></path>
    <path fill="#b0332b" d="M16.66 2.3333333333333335a2.3333333333333335 2.3333333333333335 0 0 1 2.213166666666667 1.5960000000000003L19.506666666666668 5.833333333333334H23.333333333333336a1.1666666666666667 1.1666666666666667 0 1 1 0 2.3333333333333335l-0.0035000000000000005 0.08283333333333333 -1.0115 14.166833333333335A3.5 3.5 0 0 1 18.82766666666667 25.666666666666668H9.172333333333334a3.5 3.5 0 0 1 -3.490666666666667 -3.2503333333333337L4.670166666666667 8.248333333333335A1.1783333333333335 1.1783333333333335 0 0 1 4.666666666666667 8.166666666666668a1.1666666666666667 1.1666666666666667 0 0 1 0 -2.3333333333333335h3.8266666666666667l0.6335000000000001 -1.904A2.3333333333333335 2.3333333333333335 0 0 1 11.341166666666668 2.3333333333333335h5.317666666666667Zm4.3365 5.833333333333334H7.003500000000001l1.0056666666666667 14.082833333333333a1.1666666666666667 1.1666666666666667 0 0 0 1.1631666666666667 1.0838333333333334h9.655333333333333a1.1666666666666667 1.1666666666666667 0 0 0 1.1631666666666667 -1.0838333333333334L20.9965 8.166666666666668ZM11.666666666666668 11.666666666666668a1.1666666666666667 1.1666666666666667 0 0 1 1.1585 1.0301666666666667L12.833333333333334 12.833333333333334v5.833333333333334a1.1666666666666667 1.1666666666666667 0 0 1 -2.325166666666667 0.1365L10.5 18.666666666666668v-5.833333333333334a1.1666666666666667 1.1666666666666667 0 0 1 1.1666666666666667 -1.1666666666666667Zm4.666666666666667 0a1.1666666666666667 1.1666666666666667 0 0 1 1.1666666666666667 1.1666666666666667v5.833333333333334a1.1666666666666667 1.1666666666666667 0 1 1 -2.3333333333333335 0v-5.833333333333334a1.1666666666666667 1.1666666666666667 0 0 1 1.1666666666666667 -1.1666666666666667Zm0.3266666666666667 -7H11.340000000000002l-0.38850000000000007 1.1666666666666667h6.097l-0.3896666666666667 -1.1666666666666667Z" stroke-width="1.1667"></path>
  </g>
</svg>