<svg width="24" height="24" viewBox="0 0 24 24" fill="none" xmlns="http://www.w3.org/2000/svg">
<path fill-rule="evenodd" clip-rule="evenodd" d="M3 12C3 11.7348 3.10536 11.4804 3.29289 11.2929C3.48043 11.1054 3.73478 11 4 11H20C20.2652 11 20.5196 11.1054 20.7071 11.2929C20.8946 11.4804 21 11.7348 21 12C21 12.2652 20.8946 12.5196 20.7071 12.7071C20.5196 12.8946 20.2652 13 20 13H4C3.86868 13 3.73864 12.9741 3.61732 12.9239C3.49599 12.8736 3.38575 12.8 3.29289 12.7071C3.20003 12.6142 3.12638 12.504 3.07612 12.3827C3.02587 12.2614 3 12.1313 3 12Z" fill="#B0332B"/>
</svg>
