<svg width="29" height="28" viewBox="0 0 29 28" fill="none" xmlns="http://www.w3.org/2000/svg">
<path fill-rule="evenodd" clip-rule="evenodd" d="M10.6115 2.33325C12.1748 2.33325 13.5725 3.04259 14.5 4.15792C14.9739 3.58636 15.5682 3.12646 16.2403 2.81105C16.9125 2.49564 17.646 2.33249 18.3885 2.33325H18.4667C19.2712 2.33325 20.0427 2.65284 20.6116 3.2217C21.1804 3.79056 21.5 4.5621 21.5 5.36659C21.5 5.94992 21.374 6.50175 21.15 6.99992H21.5C22.4283 6.99992 23.3185 7.36867 23.9749 8.02505C24.6313 8.68142 25 9.57166 25 10.4999V20.9999C25 21.9282 24.6313 22.8184 23.9749 23.4748C23.3185 24.1312 22.4283 24.4999 21.5 24.4999H7.5C6.57174 24.4999 5.6815 24.1312 5.02513 23.4748C4.36875 22.8184 4 21.9282 4 20.9999V10.4999C4 9.57166 4.36875 8.68142 5.02513 8.02505C5.6815 7.36867 6.57174 6.99992 7.5 6.99992H7.85C7.626 6.50175 7.5 5.94992 7.5 5.36659C7.5 4.5621 7.81958 3.79056 8.38844 3.2217C8.9573 2.65284 9.72884 2.33325 10.5333 2.33325H10.6115ZM22.6667 16.3333H15.6667V22.1666H21.5C21.7858 22.1665 22.0616 22.0616 22.2751 21.8718C22.4886 21.6819 22.6251 21.4202 22.6585 21.1364L22.6667 20.9999V16.3333ZM13.3333 16.3333H6.33333V20.9999C6.33333 21.3093 6.45625 21.6061 6.67504 21.8249C6.89383 22.0437 7.19058 22.1666 7.5 22.1666H13.3333V16.3333ZM13.3333 9.33325H7.5C7.21424 9.33329 6.93844 9.4382 6.7249 9.62809C6.51136 9.81797 6.37493 10.0796 6.3415 10.3634L6.33333 10.4999V13.9999H13.3333V9.33325ZM21.5 9.33325H15.6667V13.9999H22.6667V10.4999C22.6667 10.1905 22.5437 9.89375 22.325 9.67496C22.1062 9.45617 21.8094 9.33325 21.5 9.33325ZM10.6115 4.66659H10.5333C10.3477 4.66659 10.1696 4.74034 10.0384 4.87161C9.90708 5.00289 9.83333 5.18094 9.83333 5.36659C9.83333 5.58108 9.87558 5.79347 9.95766 5.99164C10.0397 6.1898 10.1601 6.36986 10.3117 6.52153C10.618 6.82784 11.0335 6.99992 11.4667 6.99992H13.3053C13.2116 6.35198 12.8877 5.75949 12.3927 5.33096C11.8978 4.90244 11.2662 4.66658 10.6115 4.66659ZM18.4667 4.66659H18.3885C17.0818 4.66659 15.991 5.58592 15.7285 6.81325L15.6935 6.99992H17.5333C17.7478 6.99992 17.9602 6.95767 18.1584 6.87559C18.3565 6.79351 18.5366 6.6732 18.6883 6.52153C18.8399 6.36986 18.9603 6.1898 19.0423 5.99164C19.1244 5.79347 19.1667 5.58108 19.1667 5.36659C19.1666 5.20057 19.1076 5.03998 19.0001 4.91346C18.8926 4.78695 18.7437 4.70276 18.5798 4.67592L18.4667 4.66659Z" fill="#B0332B"/>
</svg>
