<svg width="28" height="28" viewBox="0 0 28 28" fill="none" xmlns="http://www.w3.org/2000/svg">
<path d="M22.1673 4.66675C23.0956 4.66675 23.9858 5.0355 24.6422 5.69187C25.2986 6.34825 25.6673 7.23849 25.6673 8.16675V19.8334C25.6673 20.7617 25.2986 21.6519 24.6422 22.3083C23.9858 22.9647 23.0956 23.3334 22.1673 23.3334H5.83398C4.90573 23.3334 4.01549 22.9647 3.35911 22.3083C2.70273 21.6519 2.33398 20.7617 2.33398 19.8334V8.16675C2.33398 7.23849 2.70273 6.34825 3.35911 5.69187C4.01549 5.0355 4.90573 4.66675 5.83398 4.66675H22.1673ZM23.334 11.6667H4.66732V19.8334C4.66736 20.1192 4.77227 20.395 4.96215 20.6085C5.15204 20.8221 5.41369 20.9585 5.69748 20.9919L5.83398 21.0001H22.1673C22.4531 21 22.7289 20.8951 22.9424 20.7052C23.156 20.5154 23.2924 20.2537 23.3258 19.9699L23.334 19.8334V11.6667ZM19.834 15.1667C20.1313 15.1671 20.4174 15.2809 20.6336 15.4851C20.8498 15.6892 20.9799 15.9682 20.9974 16.265C21.0148 16.5619 20.9182 16.8542 20.7273 17.0822C20.5365 17.3102 20.2658 17.4568 19.9705 17.4919L19.834 17.5001H16.334C16.0366 17.4998 15.7506 17.3859 15.5344 17.1818C15.3182 16.9776 15.188 16.6986 15.1706 16.4018C15.1532 16.1049 15.2498 15.8126 15.4406 15.5846C15.6315 15.3566 15.9022 15.21 16.1975 15.1749L16.334 15.1667H19.834ZM22.1673 7.00008H5.83398C5.52456 7.00008 5.22782 7.123 5.00903 7.34179C4.79023 7.56058 4.66732 7.85733 4.66732 8.16675V9.33342H23.334V8.16675C23.334 7.85733 23.2111 7.56058 22.9923 7.34179C22.7735 7.123 22.4767 7.00008 22.1673 7.00008Z" fill="#B0332B"/>
</svg>
