<svg width="28" height="28" viewBox="0 0 28 28" fill="none" xmlns="http://www.w3.org/2000/svg">
<path d="M21.4917 3.26309L21.942 3.32842C22.642 3.43925 23.426 3.62475 23.9078 4.10659C24.3909 4.58959 24.5763 5.37359 24.6872 6.07359L24.7525 6.52275C24.8995 7.58442 24.938 8.97625 24.6872 10.5209C24.1925 13.5694 22.5697 17.2059 18.4945 20.0234C18.4757 20.2317 18.4691 20.4409 18.4747 20.6499L18.4945 21.2834C18.5062 21.7058 18.4992 22.1269 18.3825 22.5318C18.1608 23.3018 17.371 23.8093 16.6325 24.1733L16.2708 24.3448L15.8042 24.5501L15.4857 24.6784C14.6608 24.9934 13.6657 25.2139 13.0147 24.5618C12.7195 24.2666 12.583 23.8653 12.4733 23.4639L12.4197 23.2633C12.233 22.5551 12.0218 21.8516 11.7582 21.1702C11.6853 21.2587 11.6082 21.3436 11.5272 21.4246C10.8913 22.0592 10.0292 22.3789 9.16702 22.6263L8.59418 22.7838L8.02252 22.9354L7.46485 23.0754L6.96085 23.1921L6.35768 23.3204L5.98085 23.3939C5.79286 23.429 5.59916 23.4178 5.4165 23.3612C5.23383 23.3046 5.0677 23.2043 4.93248 23.0691C4.79726 22.9339 4.69702 22.7678 4.64043 22.5851C4.58384 22.4024 4.5726 22.2087 4.60768 22.0208L4.73718 21.3779L4.88768 20.7036L5.03235 20.1086L5.29485 19.1228C5.55502 18.1661 5.87118 17.1803 6.57818 16.4744L6.69368 16.3636L5.80352 16.0439L4.90868 15.7359C4.38485 15.5633 3.83418 15.3813 3.45385 15.0009C2.75852 14.3056 3.05368 13.2206 3.40018 12.3678L3.59385 11.9163L3.75368 11.5651C4.12352 10.7788 4.64852 9.87342 5.48385 9.63309C5.88868 9.51642 6.30868 9.50942 6.73218 9.51992L7.36568 9.54092C7.57568 9.54442 7.78568 9.54092 7.99218 9.52109C10.8085 5.44592 14.4462 3.82309 17.4947 3.32842C18.8166 3.11049 20.1634 3.08848 21.4917 3.26309ZM17.868 5.63142C15.3037 6.04792 12.1875 7.42109 9.75618 11.0786C9.46102 11.5219 8.96285 11.7331 8.45535 11.8136C8.16835 11.8603 7.87902 11.8719 7.58852 11.8719L6.71702 11.8591C6.57235 11.8591 6.42652 11.8591 6.28185 11.8661C5.92718 12.3374 5.67985 12.8974 5.49435 13.4539L7.24435 14.0898L7.96418 14.3616C9.28018 14.8773 10.5542 15.5014 11.5342 16.4814C13.185 18.1323 14.0238 20.2918 14.6305 22.4979C15.1625 22.3113 15.6968 22.0733 16.1495 21.7338L16.1565 21.2986L16.1437 20.4283C16.1437 20.1389 16.1553 19.8496 16.202 19.5603C16.2813 19.0528 16.4937 18.5546 16.937 18.2594C20.5945 15.8281 21.9677 12.7119 22.3842 10.1476C22.5942 8.85259 22.5592 7.69525 22.4414 6.84242C22.3961 6.4886 22.3208 6.13927 22.2162 5.79825C21.8751 5.69403 21.5258 5.61909 21.172 5.57425C20.0738 5.43188 18.9606 5.45037 17.868 5.63142ZM8.22668 18.1241C7.81835 18.6176 7.62818 19.2651 7.47535 19.9068L7.34935 20.4528L7.28518 20.7164L8.09485 20.5263C8.73652 20.3746 9.38518 20.1821 9.87752 19.7738C9.98583 19.6654 10.0717 19.5367 10.1303 19.3951C10.1889 19.2535 10.2191 19.1017 10.219 18.9485C10.2189 18.7953 10.1887 18.6435 10.13 18.502C10.0713 18.3604 9.98533 18.2318 9.87693 18.1235C9.76854 18.0152 9.63987 17.9293 9.49827 17.8707C9.35668 17.8121 9.20493 17.782 9.05169 17.782C8.89845 17.7821 8.74672 17.8123 8.60516 17.871C8.46361 17.9297 8.335 18.0157 8.22668 18.1241ZM14.8265 9.87575C15.0432 9.65904 15.3004 9.48712 15.5834 9.3698C15.8665 9.25249 16.1699 9.19208 16.4764 9.19203C16.7828 9.19197 17.0862 9.25227 17.3693 9.36949C17.6525 9.4867 17.9097 9.65853 18.1264 9.87517C18.3431 10.0918 18.5151 10.349 18.6324 10.6321C18.7497 10.9152 18.8101 11.2186 18.8102 11.525C18.8102 11.8314 18.7499 12.1349 18.6327 12.418C18.5155 12.7011 18.3437 12.9584 18.127 13.1751C17.6893 13.6128 17.0957 13.8586 16.4768 13.8586C15.8578 13.8586 15.2642 13.6128 14.8265 13.1751C14.3888 12.7374 14.143 12.1438 14.143 11.5248C14.143 10.9059 14.3888 10.3134 14.8265 9.87575Z" fill="#B0332B"/>
</svg>
