<svg width="56" height="56" viewBox="0 0 56 56" fill="none" xmlns="http://www.w3.org/2000/svg">
<rect width="56" height="56" rx="16" fill="#B0332B"/>
<path fill-rule="evenodd" clip-rule="evenodd" d="M20.5007 39.6666C21.1637 39.6666 21.7996 39.93 22.2684 40.3988C22.7373 40.8677 23.0007 41.5035 23.0007 42.1666C23.0007 42.8296 22.7373 43.4655 22.2684 43.9344C21.7996 44.4032 21.1637 44.6666 20.5007 44.6666C19.8376 44.6666 19.2017 44.4032 18.7329 43.9344C18.264 43.4655 18.0007 42.8296 18.0007 42.1666C18.0007 41.5035 18.264 40.8677 18.7329 40.3988C19.2017 39.93 19.8376 39.6666 20.5007 39.6666ZM37.1673 39.6666C37.8304 39.6666 38.4662 39.93 38.9351 40.3988C39.4039 40.8677 39.6673 41.5035 39.6673 42.1666C39.6673 42.8296 39.4039 43.4655 38.9351 43.9344C38.4662 44.4032 37.8304 44.6666 37.1673 44.6666C36.5043 44.6666 35.8684 44.4032 35.3996 43.9344C34.9307 43.4655 34.6673 42.8296 34.6673 42.1666C34.6673 41.5035 34.9307 40.8677 35.3996 40.3988C35.8684 39.93 36.5043 39.6666 37.1673 39.6666ZM13.2307 11.3333C14.4949 11.3334 15.7121 11.8125 16.6374 12.674C17.5626 13.5355 18.1271 14.7156 18.2173 15.9766L18.2423 16.3333H41.004C41.4923 16.3332 41.9747 16.4404 42.417 16.6473C42.8593 16.8542 43.2507 17.1558 43.5636 17.5307C43.8765 17.9056 44.1032 18.3447 44.2277 18.8169C44.3522 19.2891 44.3714 19.7828 44.284 20.2633L41.5557 35.2633C41.4159 36.0313 41.0111 36.7259 40.4116 37.226C39.8122 37.7262 39.0563 38 38.2757 37.9999H19.5523C18.7092 37.9999 17.8974 37.6805 17.2805 37.1059C16.6635 36.5313 16.2872 35.7442 16.2273 34.9033L14.894 16.2149C14.864 15.794 14.6755 15.4001 14.3665 15.1128C14.0575 14.8254 13.651 14.6659 13.229 14.6666H13.0007C12.5586 14.6666 12.1347 14.491 11.8221 14.1784C11.5096 13.8659 11.334 13.4419 11.334 12.9999C11.334 12.5579 11.5096 12.134 11.8221 11.8214C12.1347 11.5088 12.5586 11.3333 13.0007 11.3333H13.2307ZM41.004 19.6666H18.4807L19.5523 34.6666H38.2757L41.004 19.6666Z" fill="white"/>
</svg>
