<svg width="56" height="56" viewBox="0 0 56 56" fill="none" xmlns="http://www.w3.org/2000/svg">
<rect width="56" height="56" rx="16" fill="#3D3D3D"/>
<path d="M28.0003 36.1248C30.0713 36.1248 31.7502 37.8037 31.7502 39.8747C31.75 41.9455 30.0712 43.6246 28.0003 43.6246C25.9295 43.6245 24.2506 41.9455 24.2504 39.8747C24.2504 37.8038 25.9294 36.1249 28.0003 36.1248Z" fill="white"/>
<path d="M27.9478 12.3755C32.883 12.3755 38 15.6763 38 20.9763C37.9997 23.9508 36.2835 26.3712 34.0267 27.8353C33.9514 27.8912 33.8732 27.9444 33.7924 27.9927L30.7443 29.8164V31.1298C30.7441 31.8717 30.4499 32.5839 29.9253 33.1085C29.4006 33.6331 28.6885 33.9275 27.9466 33.9276C27.2044 33.9276 26.4914 33.6333 25.9667 33.1085C25.4421 32.5839 25.1478 31.8717 25.1476 31.1298V28.2307C25.1476 28.2069 25.1506 28.1824 25.1512 28.1587C25.1524 28.1137 25.154 28.0683 25.1573 28.0232C25.1611 27.9721 25.1655 27.921 25.172 27.8707C25.1765 27.8357 25.182 27.8005 25.1879 27.7657C25.1978 27.7065 25.2097 27.6477 25.2233 27.5899C25.2264 27.5764 25.2284 27.5619 25.2318 27.5484C25.2367 27.5288 25.2435 27.5093 25.2489 27.4898C25.2636 27.4363 25.28 27.3833 25.2977 27.3311C25.3105 27.2935 25.3237 27.2557 25.338 27.2188C25.3549 27.1753 25.3727 27.1319 25.3917 27.0894C25.4127 27.0424 25.4354 26.9959 25.4589 26.9503C25.4755 26.918 25.4923 26.8854 25.5101 26.8538C25.5347 26.8103 25.5614 26.7677 25.5882 26.7257C25.6139 26.6855 25.6411 26.646 25.6688 26.6073C25.691 26.5761 25.7137 26.5448 25.7372 26.5145C25.7678 26.4751 25.7997 26.4362 25.8324 26.3985C25.8612 26.3653 25.8911 26.3327 25.9215 26.3009C25.9502 26.2707 25.9794 26.2406 26.0094 26.2118C26.0477 26.175 26.0873 26.139 26.1278 26.1043C26.1536 26.0822 26.1805 26.0608 26.2071 26.0396C26.2537 26.0027 26.3021 25.9675 26.3512 25.9335C26.3773 25.9153 26.4037 25.897 26.4305 25.8797C26.4564 25.863 26.4821 25.8444 26.5086 25.8285L30.8225 23.2455C30.8454 23.2306 30.8674 23.2135 30.8908 23.1992C31.9905 22.5258 32.4017 21.6671 32.402 20.9763C32.402 19.8685 31.0224 17.9723 27.9478 17.9723C26.6548 17.9723 25.5447 18.359 24.7631 18.9109C24.0107 19.4436 23.6383 20.0634 23.5302 20.5979C23.3704 21.3123 22.9369 21.9363 22.323 22.3349C21.7088 22.7335 20.9618 22.8754 20.2442 22.7304C19.5267 22.5853 18.8939 22.1641 18.4827 21.5586C18.0718 20.9529 17.9145 20.2098 18.0445 19.4895C18.4826 17.3165 19.8308 15.5421 21.5368 14.3359C23.3123 13.0817 25.5626 12.3755 27.9478 12.3755Z" fill="white"/>
</svg>
