<svg width="56" height="56" viewBox="0 0 56 56" fill="none" xmlns="http://www.w3.org/2000/svg">
<rect width="56" height="56" rx="16" fill="#B0332B"/>
<path d="M24.7956 12.3564C25.359 11.0898 27.094 11.0281 27.774 12.1664L27.8723 12.3564L29.609 16.2648C31.1254 19.6763 33.6473 22.5435 36.8373 24.4831L37.374 24.7981L40.4573 26.5314C40.7024 26.6686 40.9093 26.865 41.0591 27.1027C41.2089 27.3403 41.2968 27.6117 41.3149 27.892C41.3329 28.1724 41.2806 28.4528 41.1625 28.7077C41.0444 28.9626 40.8645 29.1839 40.639 29.3514L40.459 29.4681L37.374 31.2014C34.1196 33.032 31.5018 35.8127 29.8706 39.1714L29.609 39.7348L27.8723 43.6431C27.309 44.9098 25.574 44.9714 24.894 43.8331L24.7956 43.6431L23.059 39.7348C21.5425 36.3232 19.0207 33.456 15.8306 31.5164L15.294 31.2014L12.2106 29.4681C11.9655 29.3309 11.7587 29.1345 11.6089 28.8968C11.4591 28.6592 11.3712 28.3878 11.3531 28.1075C11.335 27.8272 11.3874 27.5468 11.5055 27.2918C11.6235 27.0369 11.8035 26.8156 12.029 26.6481L12.209 26.5314L15.294 24.7981C18.5483 22.9675 21.1662 20.1869 22.7973 16.8281L23.059 16.2648L24.7956 12.3564ZM26.334 17.1031C24.2607 21.7698 20.8573 25.4931 16.4006 27.9998C20.8573 30.5064 24.2607 34.2298 26.334 38.8964C28.414 34.2181 31.8173 30.5031 36.2673 27.9998C31.8106 25.4931 28.4073 21.7698 26.334 17.1031ZM40.034 11.5364C40.862 13.4154 42.2734 14.9776 44.059 15.9914C44.3256 16.1414 44.3256 16.5248 44.059 16.6748C42.2729 17.6895 40.8614 19.2529 40.034 21.1331C40.0023 21.2039 39.9509 21.264 39.8858 21.3062C39.8207 21.3483 39.7449 21.3708 39.6673 21.3708C39.5898 21.3708 39.5139 21.3483 39.4488 21.3062C39.3838 21.264 39.3323 21.2039 39.3007 21.1331C38.4729 19.2535 37.0615 17.6907 35.2757 16.6764C35.2154 16.642 35.1653 16.5923 35.1304 16.5323C35.0955 16.4723 35.0772 16.4042 35.0772 16.3348C35.0772 16.2654 35.0955 16.1972 35.1304 16.1372C35.1653 16.0772 35.2154 16.0275 35.2757 15.9931C37.062 14.9779 38.4735 13.4139 39.3007 11.5331C39.3323 11.4623 39.3838 11.4022 39.4488 11.36C39.5139 11.3179 39.5898 11.2954 39.6673 11.2954C39.7449 11.2954 39.8207 11.3179 39.8858 11.36C39.9509 11.4022 40.0023 11.4623 40.034 11.5331V11.5364Z" fill="white"/>
</svg>
