<svg xmlns="http://www.w3.org/2000/svg" viewBox="0 0 28 28" id="Shopping-Cart-1-Line--Streamline-Mingcute" height="28" width="28">
  <desc>
    Shopping Cart 1 Line Streamline Icon: https://streamlinehq.com
  </desc>
  <g fill="none" fill-rule="evenodd">
    <path d="M28 0v28H0V0zM14.691833333333335 27.134333333333334l-0.012833333333333334 0.0023333333333333335 -0.08283333333333333 0.04083333333333334 -0.023333333333333334 0.004666666666666667 -0.016333333333333335 -0.004666666666666667 -0.08283333333333333 -0.04083333333333334c-0.011666666666666667 -0.004666666666666667 -0.022166666666666668 -0.0011666666666666668 -0.028000000000000004 0.005833333333333334l-0.004666666666666667 0.011666666666666667 -0.019833333333333335 0.49933333333333335 0.005833333333333334 0.023333333333333334 0.011666666666666667 0.015166666666666667 0.12133333333333333 0.08633333333333333 0.0175 0.004666666666666667 0.014000000000000002 -0.004666666666666667 0.12133333333333333 -0.08633333333333333 0.014000000000000002 -0.018666666666666668 0.004666666666666667 -0.019833333333333335 -0.019833333333333335 -0.4981666666666667c-0.0023333333333333335 -0.011666666666666667 -0.0105 -0.019833333333333335 -0.019833333333333335 -0.021m0.3091666666666667 -0.13183333333333336 -0.015166666666666667 0.0023333333333333335 -0.21583333333333335 0.1085 -0.011666666666666667 0.011666666666666667 -0.0035000000000000005 0.012833333333333334 0.021 0.5016666666666667 0.005833333333333334 0.014000000000000002 0.009333333333333334 0.008166666666666668 0.23450000000000004 0.1085c0.014000000000000002 0.004666666666666667 0.026833333333333334 0 0.03383333333333334 -0.009333333333333334l0.004666666666666667 -0.016333333333333335 -0.03966666666666667 -0.7163333333333334c-0.0035000000000000005 -0.014000000000000002 -0.011666666666666667 -0.023333333333333334 -0.023333333333333334 -0.025666666666666667m-0.8341666666666667 0.0023333333333333335a0.026833333333333334 0.026833333333333334 0 0 0 -0.0315 0.007000000000000001l-0.007000000000000001 0.016333333333333335 -0.03966666666666667 0.7163333333333334c0 0.014000000000000002 0.008166666666666668 0.023333333333333334 0.019833333333333335 0.028000000000000004l0.0175 -0.0023333333333333335 0.23450000000000004 -0.1085 0.011666666666666667 -0.009333333333333334 0.004666666666666667 -0.012833333333333334 0.019833333333333335 -0.5016666666666667 -0.0035000000000000005 -0.014000000000000002 -0.011666666666666667 -0.011666666666666667z" stroke-width="1.1667"></path>
    <path fill="#ffffff" d="M8.75 22.166666666666668a1.75 1.75 0 1 1 0 3.5 1.75 1.75 0 0 1 0 -3.5m11.666666666666668 0a1.75 1.75 0 1 1 0 3.5 1.75 1.75 0 0 1 0 -3.5M3.661 2.3333333333333335A3.5 3.5 0 0 1 7.151666666666667 5.583666666666667L7.1691666666666665 5.833333333333334h15.933166666666668a2.3333333333333335 2.3333333333333335 0 0 1 2.2960000000000003 2.7510000000000003l-1.9098333333333335 10.5A2.3333333333333335 2.3333333333333335 0 0 1 21.1925 21H8.086166666666667a2.3333333333333335 2.3333333333333335 0 0 1 -2.3275 -2.167666666666667l-0.9333333333333335 -13.081833333333334A1.1666666666666667 1.1666666666666667 0 0 0 3.6598333333333337 4.666666666666667H3.5a1.1666666666666667 1.1666666666666667 0 0 1 0 -2.3333333333333335zm19.441333333333336 5.833333333333334H7.336000000000001l0.7501666666666668 10.5h13.106333333333334z" stroke-width="1.1667"></path>
  </g>
</svg>