<svg width="57" height="56" viewBox="0 0 57 56" fill="none" xmlns="http://www.w3.org/2000/svg">
<rect x="0.5" width="56" height="56" rx="16" fill="#B0332B"/>
<path fill-rule="evenodd" clip-rule="evenodd" d="M28.501 11.3333C28.943 11.3333 29.3669 11.5088 29.6795 11.8214C29.992 12.134 30.1676 12.5579 30.1676 12.9999V14.6033L31.2576 14.0266C31.6484 13.8199 32.1052 13.777 32.5277 13.9072C32.9501 14.0373 33.3035 14.33 33.5101 14.7208C33.7168 15.1115 33.7597 15.5683 33.6296 15.9908C33.4994 16.4132 33.2067 16.7666 32.816 16.9733L30.1676 18.3733V21.5433C31.3593 21.8499 32.421 22.4766 33.2576 23.3283L36.0043 21.7433L35.8926 18.7499C35.8761 18.3081 36.0357 17.8778 36.3364 17.5537C36.637 17.2296 37.0542 17.0382 37.496 17.0216C37.9378 17.005 38.3681 17.1646 38.6922 17.4653C39.0163 17.766 39.2077 18.1831 39.2243 18.6249L39.2693 19.8583L40.6576 19.0566C40.8473 18.9454 41.057 18.8729 41.2748 18.8431C41.4925 18.8133 41.7141 18.8269 41.9266 18.8831C42.139 18.9393 42.3383 19.0369 42.5129 19.1704C42.6875 19.304 42.834 19.4707 42.9439 19.661C43.0538 19.8514 43.125 20.0616 43.1533 20.2796C43.1816 20.4975 43.1666 20.719 43.109 20.9311C43.0514 21.1432 42.9524 21.3418 42.8178 21.5155C42.6831 21.6893 42.5154 21.8346 42.3243 21.9433L40.936 22.7433L41.981 23.3999C42.1664 23.5164 42.327 23.6682 42.4537 23.8467C42.5804 24.0252 42.6707 24.2269 42.7195 24.4404C42.7682 24.6538 42.7745 24.8747 42.7378 25.0905C42.7012 25.3064 42.6224 25.5129 42.506 25.6983C42.3895 25.8836 42.2377 26.0443 42.0592 26.171C41.8807 26.2977 41.679 26.388 41.4655 26.4368C41.2521 26.4855 41.0312 26.4917 40.8154 26.4551C40.5995 26.4185 40.393 26.3397 40.2076 26.2233L37.671 24.6299L34.926 26.2133C35.2507 27.3817 35.2507 28.6165 34.926 29.7849L37.671 31.3699L40.2076 29.7766C40.582 29.5414 41.0345 29.4646 41.4655 29.5631C41.8966 29.6615 42.2708 29.9272 42.506 30.3016C42.7411 30.676 42.8179 31.1285 42.7195 31.5595C42.621 31.9905 42.3554 32.3648 41.981 32.5999L40.9376 33.2549L42.3243 34.0566C42.5154 34.1652 42.6831 34.3106 42.8178 34.4843C42.9524 34.658 43.0514 34.8566 43.109 35.0688C43.1666 35.2809 43.1816 35.5023 43.1533 35.7203C43.125 35.9382 43.0538 36.1484 42.9439 36.3388C42.834 36.5292 42.6875 36.6959 42.5129 36.8294C42.3383 36.9629 42.139 37.0606 41.9266 37.1168C41.7141 37.1729 41.4925 37.1865 41.2748 37.1567C41.057 37.127 40.8473 37.0544 40.6576 36.9433L39.271 36.1433L39.2243 37.3749C39.2077 37.8167 39.0163 38.2339 38.6922 38.5345C38.3681 38.8352 37.9378 38.9948 37.496 38.9783C37.0542 38.9617 36.637 38.7703 36.3364 38.4461C36.0357 38.122 35.8761 37.6917 35.8926 37.2499L36.0043 34.2566L33.2576 32.6716C32.421 33.5216 31.3576 34.1499 30.1676 34.4566V37.6266L32.816 39.0266C33.2067 39.2332 33.4994 39.5866 33.6296 40.0091C33.7597 40.4315 33.7168 40.8883 33.5101 41.2791C33.3035 41.6698 32.9501 41.9625 32.5277 42.0927C32.1052 42.2229 31.6484 42.1799 31.2576 41.9733L30.1676 41.3966V42.9999C30.1676 43.4419 29.992 43.8659 29.6795 44.1784C29.3669 44.491 28.943 44.6666 28.501 44.6666C28.0589 44.6666 27.635 44.491 27.3225 44.1784C27.0099 43.8659 26.8343 43.4419 26.8343 42.9999V41.3966L25.7443 41.9733C25.5508 42.0756 25.3391 42.1388 25.1212 42.1593C24.9033 42.1798 24.6835 42.1571 24.4743 42.0927C24.2651 42.0282 24.0707 41.9232 23.9021 41.7836C23.7336 41.644 23.5941 41.4726 23.4918 41.2791C23.3895 41.0856 23.3263 40.8739 23.3058 40.656C23.2853 40.438 23.3079 40.2182 23.3724 40.0091C23.4368 39.7999 23.5419 39.6055 23.6815 39.4369C23.8211 39.2683 23.9925 39.1289 24.186 39.0266L26.8343 37.6266V34.4566C25.6609 34.1533 24.5926 33.5355 23.7443 32.6699L20.9976 34.2566L21.1093 37.2499C21.1257 37.6917 20.9658 38.1219 20.665 38.4459C20.3642 38.7699 19.9469 38.9611 19.5051 38.9774C19.0633 38.9938 18.6331 38.834 18.3092 38.5331C17.9852 38.2323 17.794 37.8151 17.7776 37.3733L17.7326 36.1416L16.3443 36.9416C16.1546 37.059 15.9432 37.1371 15.7228 37.1712C15.5023 37.2054 15.2772 37.195 15.0608 37.1405C14.8445 37.0861 14.6412 36.9888 14.4632 36.8544C14.2851 36.7199 14.1359 36.5511 14.0243 36.3579C13.9127 36.1648 13.841 35.9511 13.8135 35.7297C13.786 35.5083 13.8032 35.2837 13.8641 35.0691C13.9251 34.8544 14.0285 34.6542 14.1682 34.4803C14.3079 34.3064 14.4812 34.1623 14.6776 34.0566L16.066 33.2549L15.021 32.5983C14.6565 32.3587 14.4004 31.9858 14.3077 31.5596C14.2151 31.1334 14.2931 30.6879 14.5252 30.3186C14.7573 29.9493 15.1249 29.6857 15.5491 29.5844C15.9733 29.4831 16.4204 29.5521 16.7943 29.7766L19.331 31.3699L22.076 29.7849C21.7518 28.617 21.7518 27.3828 22.076 26.2149L19.331 24.6316L16.7943 26.2233C16.4204 26.4478 15.9733 26.5168 15.5491 26.4154C15.1249 26.3141 14.7573 26.0505 14.5252 25.6812C14.2931 25.3119 14.2151 24.8664 14.3077 24.4402C14.4004 24.014 14.6565 23.6411 15.021 23.4016L16.066 22.7449L14.6776 21.9449C14.2946 21.7239 14.0151 21.3598 13.9005 20.9327C13.786 20.5056 13.8458 20.0504 14.0668 19.6674C14.2878 19.2844 14.6519 19.0049 15.0791 18.8903C15.5062 18.7758 15.9613 18.8356 16.3443 19.0566L17.7326 19.8583L17.7776 18.6249C17.7942 18.1831 17.9856 17.766 18.3097 17.4653C18.4702 17.3164 18.6585 17.2006 18.8637 17.1245C19.069 17.0483 19.2872 17.0134 19.506 17.0216C19.7247 17.0298 19.9397 17.081 20.1387 17.1723C20.3377 17.2636 20.5167 17.3932 20.6656 17.5537C20.8145 17.7142 20.9303 17.9024 21.0064 18.1077C21.0826 18.3129 21.1175 18.5312 21.1093 18.7499L20.9976 21.7433L23.7443 23.3299C24.5926 22.4643 25.6609 21.8466 26.8343 21.5433V18.3733L24.186 16.9733C23.7952 16.7666 23.5026 16.4132 23.3724 15.9908C23.2422 15.5683 23.2852 15.1115 23.4918 14.7208C23.6985 14.33 24.0519 14.0373 24.4743 13.9072C24.8967 13.777 25.3536 13.8199 25.7443 14.0266L26.8343 14.6033V12.9999C26.8343 12.5579 27.0099 12.134 27.3225 11.8214C27.635 11.5088 28.0589 11.3333 28.501 11.3333ZM28.501 31.3333C28.9387 31.3333 29.3722 31.247 29.7766 31.0795C30.181 30.912 30.5485 30.6665 30.858 30.3569C31.1675 30.0474 31.4131 29.6799 31.5806 29.2755C31.7481 28.8711 31.8343 28.4377 31.8343 27.9999C31.8343 27.5622 31.7481 27.1287 31.5806 26.7243C31.4131 26.3199 31.1675 25.9524 30.858 25.6429C30.5485 25.3334 30.181 25.0878 29.7766 24.9203C29.3722 24.7528 28.9387 24.6666 28.501 24.6666C27.6169 24.6666 26.7691 25.0178 26.144 25.6429C25.5188 26.268 25.1676 27.1159 25.1676 27.9999C25.1676 28.884 25.5188 29.7318 26.144 30.3569C26.7691 30.9821 27.6169 31.3333 28.501 31.3333Z" fill="white"/>
</svg>
