<svg width="872" height="494" viewBox="0 0 872 494" fill="none" xmlns="http://www.w3.org/2000/svg">
<path d="M476.984 0.734375L478.672 0.78125C480.695 0.83743 482.742 0.884556 484.766 0.921875L488.234 1.01562C490.182 1.05149 492.146 1.03066 494.094 0.96875L495.828 0.921875L497.516 0.875C499.82 0.801752 502.152 0.841006 504.453 1.0625L506.188 1.25L507.922 1.39062C509.799 1.57079 511.672 1.69056 513.547 1.71875L515.281 1.76562H517.016C519.203 1.79807 521.392 1.90468 523.578 2.09375L525.312 2.23438L527.047 2.42188C528.637 2.55946 530.23 2.50789 531.828 2.28125L533.562 2.04688L535.297 1.76562C538.053 1.3762 540.818 1.50197 543.547 2.09375L547.016 2.84375C548.501 3.16421 549.971 3.28392 551.422 3.17188L553.156 3.03125L554.844 2.89062C556.961 2.72707 559.101 2.60315 561.219 2.51562L562.953 2.42188L564.688 2.375C566.906 2.28356 569.125 2.27412 571.344 2.375L573.078 2.46875L574.812 2.51562C576.844 2.60801 578.875 2.71013 580.906 2.79688L582.641 2.89062L584.375 2.9375C586.105 3.01135 587.843 2.94798 589.578 2.75L593.047 2.375C595.188 2.1301 597.327 1.90883 599.469 1.76562L602.938 1.57812C605.523 1.40602 608.114 1.57827 610.672 2.09375L612.406 2.42188L614.094 2.75C615.41 3.01539 616.725 3.07131 618.031 2.84375L619.766 2.51562L621.5 2.23438C623.777 1.83583 626.057 1.56298 628.344 1.4375L631.812 1.25C633.875 1.13685 635.937 1.00994 638 0.921875L639.734 0.875L641.469 0.78125C644.046 0.671285 646.615 0.919011 649.156 1.48438L652.625 2.23438C654.003 2.54192 655.359 2.63551 656.703 2.46875L658.438 2.23438L660.172 2.04688C662.525 1.75073 664.89 1.60103 667.25 1.67188L668.984 1.71875L670.719 1.8125C672.822 1.87586 674.944 1.96903 677.047 2.09375L678.734 2.1875L680.469 2.28125C682.37 2.39404 684.287 2.44901 686.188 2.42188L687.922 2.375H689.656C691.641 2.34654 693.625 2.27345 695.609 2.1875L697.344 2.09375L699.078 2.04688C701.322 1.94995 703.584 1.9673 705.828 2.09375L707.516 2.1875L709.25 2.28125C711.183 2.39016 713.13 2.41882 715.062 2.42188H716.797L718.531 2.46875C720.219 2.47113 721.936 2.30273 723.641 2L725.328 1.67188L727.062 1.39062C729.633 0.934086 732.255 0.823505 734.844 1.0625L736.531 1.20312L738.266 1.39062C739.962 1.54728 741.679 1.53407 743.375 1.39062L746.844 1.10938C749.164 0.914117 751.507 0.886269 753.828 1.01562L755.516 1.10938L757.25 1.20312C759.46 1.32627 761.7 1.51019 763.906 1.8125L765.594 2.04688L767.328 2.28125C768.903 2.49702 770.493 2.53773 772.062 2.375L773.797 2.1875L775.531 2.04688C777.796 1.81278 780.06 1.69006 782.328 1.71875H784.062L785.797 1.76562C787.997 1.79429 790.208 1.88941 792.406 2.09375L794.141 2.28125L795.875 2.42188C797.423 2.56618 799.003 2.52647 800.562 2.28125L802.25 2L803.984 1.71875C806.227 1.36604 808.485 1.13953 810.734 1.01562L814.203 0.828125C816.808 0.685376 819.416 0.914961 821.984 1.48438L823.719 1.85938L825.406 2.23438C827.133 2.61725 828.854 2.85908 830.516 2.9375L832.203 3.03125L833.891 3.07812C836.339 3.19369 838.76 3.60208 841.109 4.25L842.75 4.67188L844.391 5.14062C847.096 5.89051 849.567 7.17361 851.75 8.9375L853.062 9.96875L854.328 11.0469C855.947 12.3551 857.567 13.7084 859.156 15.125L860.469 16.25L861.734 17.4219C863.977 19.4229 865.678 21.8789 866.75 24.6875L867.359 26.2812L867.969 27.9219C868.951 30.4996 869.443 33.182 869.469 35.9375L869.516 37.6719V39.4062C869.53 41.1111 869.676 42.841 869.984 44.5625L870.312 46.2969L870.641 47.9844C871.146 50.8075 871.066 53.6638 870.453 56.4688L869.703 59.9375C869.358 61.5085 869.183 63.0882 869.234 64.625L869.328 66.3125L869.375 68.0469C869.439 69.9417 869.588 71.8683 869.797 73.7656L869.984 75.4531L870.172 77.1875C870.409 79.3378 870.567 81.5046 870.688 83.6562L870.875 87.125C871.019 89.6968 870.831 92.2697 870.312 94.8125L869.984 96.5469L869.609 98.2812C869.374 99.4544 869.419 100.604 869.703 101.797L870.078 103.531L870.5 105.266C871.102 107.786 871.382 110.345 871.344 112.906V114.641L871.297 116.328V124.062L871.344 125.797C871.373 128.457 870.972 131.083 870.219 133.672L869.75 135.406L869.234 137.141C868.885 138.341 868.808 139.481 869 140.609L869.328 142.344L869.609 144.078C870.019 146.499 870.191 148.954 870.125 151.391L870.078 153.078L870.031 154.812C869.982 156.629 870.058 158.478 870.219 160.297L870.359 161.984L870.5 163.719C870.706 166.041 870.762 168.379 870.641 170.703L870.453 174.172C870.346 176.212 870.224 178.273 870.125 180.312L870.031 182L869.984 183.734C869.902 185.43 869.96 187.142 870.172 188.844L870.359 190.578L870.594 192.312C870.926 194.972 870.846 197.638 870.359 200.281L869.703 203.75C869.423 205.271 869.383 206.797 869.516 208.297L869.656 209.984L869.797 211.719C870.019 214.234 869.934 216.76 869.562 219.266L869.328 221L869.047 222.734C868.865 223.957 868.943 225.206 869.281 226.484L869.75 228.219L870.219 229.906C871.017 232.922 871.012 236.018 870.266 239.047L869.422 242.516C869.126 243.727 869.103 244.896 869.328 246.078L869.984 249.547C870.525 252.388 870.508 255.25 869.891 258.078L869.469 259.812L869.094 261.547C868.805 262.87 868.794 264.186 869 265.484L869.281 267.172L869.562 268.906C869.978 271.52 870.004 274.161 869.656 276.781L869.188 280.25C868.963 281.937 868.868 283.634 868.953 285.312L869.047 287.047L869.141 288.734C869.236 290.609 869.397 292.528 869.656 294.406L869.938 296.094L870.172 297.828C870.526 300.399 870.508 302.99 870.172 305.562L869.703 309.031C869.47 310.81 869.364 312.603 869.375 314.375L869.422 316.109V317.844C869.435 319.858 869.476 321.876 869.516 323.891V325.625L869.562 327.359C869.597 329.071 869.766 330.789 870.078 332.516L870.406 334.25L870.688 335.984C871.197 338.794 871.175 341.623 870.594 344.422L870.266 346.156L869.891 347.891C869.558 349.498 869.385 351.093 869.422 352.672L869.516 356.141C869.562 358.094 869.665 360.046 869.797 362L869.891 363.734L870.031 365.469C870.172 367.558 870.266 369.661 870.359 371.75L870.453 373.484L870.547 375.172C870.646 377.383 870.628 379.617 870.547 381.828L870.5 383.562L870.406 385.297C870.334 387.25 870.345 389.203 870.359 391.156V394.625C870.376 396.813 870.312 399 870.172 401.188L870.078 402.922L869.938 404.656C869.814 406.578 869.756 408.501 869.75 410.422V413.891C869.744 415.938 869.717 417.984 869.703 420.031V423.5C869.689 425.673 869.579 427.844 869.422 430.016L869.328 431.75L869.188 433.484C869.054 435.326 869.039 437.176 869.094 439.016L869.188 442.484C869.245 444.399 869.378 446.331 869.562 448.25L869.703 449.984L869.891 451.672C870.122 454.087 870.098 456.541 869.891 458.984L869.75 460.766L869.609 462.5C869.324 465.849 868.052 468.909 865.859 471.453L864.688 472.812L863.516 474.125C862.196 475.653 860.931 477.199 859.719 478.719L857.562 481.438C855.717 483.748 853.398 485.527 850.719 486.781L847.625 488.281C845.457 489.296 843.198 490.095 840.875 490.719L839.188 491.188L837.5 491.609C834.766 492.342 831.967 492.565 829.156 492.219L825.688 491.75C824.076 491.55 822.461 491.55 820.859 491.703L819.125 491.891L817.391 492.031C815.16 492.246 812.92 492.357 810.688 492.359H807.219C805.348 492.361 803.467 492.428 801.594 492.594L799.859 492.781L798.125 492.922C795.419 493.161 792.722 492.95 790.062 492.312L786.594 491.469C785.371 491.178 784.181 491.15 782.984 491.375L779.516 492.031C776.911 492.524 774.267 492.671 771.641 492.406L769.953 492.219L768.219 492.031C766.629 491.871 765.031 491.922 763.438 492.125L761.703 492.312L759.969 492.547C757.504 492.862 755.033 492.901 752.562 492.688L749.094 492.406C747.399 492.259 745.68 492.253 743.984 492.406L742.297 492.547L740.562 492.734C738.034 492.963 735.487 492.878 732.969 492.5L731.234 492.219L729.5 491.984C727.793 491.729 726.087 491.618 724.391 491.656L720.922 491.75C719.16 491.791 717.396 491.939 715.625 492.219L712.156 492.781C709.429 493.213 706.671 493.147 703.953 492.641L700.484 491.984C699.149 491.738 697.831 491.755 696.5 491.984L694.766 492.266L693.031 492.594C690.65 493.007 688.256 493.21 685.859 493.203H684.125L682.391 493.156C679.969 493.148 677.528 492.954 675.125 492.5L673.438 492.172L671.703 491.844C670.013 491.524 668.311 491.331 666.641 491.328H663.219C661.306 491.325 659.367 491.389 657.453 491.516L655.719 491.656L653.984 491.75C652.048 491.878 650.109 492.041 648.172 492.266L646.438 492.5L644.703 492.688C642.492 492.944 640.261 493.13 638.047 493.203L636.312 493.25L634.625 493.297C632.478 493.368 630.303 493.379 628.156 493.344H626.422L624.688 493.297C622.422 493.259 620.151 493.071 617.891 492.781L616.156 492.594L614.422 492.359C612.839 492.158 611.266 492.154 609.688 492.312L607.953 492.453L606.219 492.641C603.657 492.9 601.083 492.806 598.531 492.406L596.797 492.172L595.062 491.891C593.34 491.622 591.617 491.501 589.906 491.516H586.438C584.716 491.532 582.969 491.694 581.234 491.984L579.547 492.266L577.812 492.594C575.357 493.005 572.878 493.123 570.406 493.016L568.672 492.969L566.938 492.875C564.799 492.782 562.653 492.646 560.516 492.453L558.781 492.312L557.047 492.125C555.343 491.972 553.641 491.997 551.938 492.125L550.203 492.219L548.469 492.359C546.378 492.517 544.278 492.671 542.188 492.781L538.719 492.969C536.227 493.1 533.741 492.921 531.266 492.5L527.797 491.938C525.92 491.618 524.043 491.386 522.172 491.234L518.703 490.953C516.905 490.808 515.109 490.738 513.312 490.812L509.844 491C508.039 491.076 506.219 491.224 504.406 491.516L502.672 491.797L500.984 492.078C498.215 492.524 495.394 492.454 492.641 491.891L490.953 491.562L489.219 491.188C487.903 490.918 486.585 490.913 485.281 491.141L483.547 491.422L481.859 491.75C479.471 492.167 477.045 492.365 474.641 492.359H471.172C468.791 492.352 466.413 492.158 464.047 491.75L462.312 491.422L460.578 491.141C459.266 490.915 457.964 490.922 456.641 491.188L454.906 491.516L453.172 491.891C450.778 492.37 448.369 492.61 445.953 492.641L444.219 492.688H442.484C440.188 492.715 437.886 492.621 435.594 492.359L433.859 492.125L432.125 491.938C430.238 491.721 428.337 491.577 426.453 491.516L424.719 491.469L423.031 491.422C420.991 491.355 418.931 491.293 416.891 491.234L413.422 491.141C411.907 491.098 410.382 491.249 408.828 491.609L407.094 491.984L405.359 492.406C402.744 493.012 400.095 493.204 397.438 493.016L395.703 492.922L393.969 492.781C391.953 492.639 389.937 492.526 387.922 492.406L386.188 492.312L384.453 492.172C382.256 492.042 380.038 491.857 377.844 491.562L376.156 491.328L374.422 491.094C373.03 490.907 371.614 490.958 370.203 491.234L368.469 491.562L366.781 491.891C364.034 492.43 361.243 492.49 358.484 492.031L356.75 491.75L355.016 491.422C353.383 491.15 351.758 491.069 350.141 491.141L348.406 491.234L346.672 491.281C344.485 491.379 342.297 491.43 340.109 491.375L336.641 491.281C335.127 491.244 333.599 491.39 332.047 491.75L330.312 492.172L328.578 492.547C325.749 493.207 322.856 493.287 320 492.781L318.312 492.5L316.578 492.172C315.209 491.93 313.82 491.938 312.453 492.172L310.766 492.453L309.031 492.781C306.52 493.211 303.966 493.329 301.438 493.156L299.703 493.062L298.016 492.922C295.885 492.776 293.724 492.594 291.594 492.359L289.859 492.172L288.172 491.984C286.559 491.807 284.91 491.808 283.297 491.984L281.609 492.172L279.875 492.359C277.239 492.648 274.57 492.515 271.953 492.031L270.266 491.75L268.531 491.422C267.168 491.17 265.809 491.151 264.453 491.375L260.984 491.938C258.648 492.325 256.302 492.557 253.953 492.594H252.219L250.484 492.641C248.38 492.673 246.261 492.673 244.156 492.641L242.422 492.594H240.734C238.462 492.559 236.158 492.367 233.891 492.078L232.156 491.891L230.469 491.656C228.706 491.432 226.928 491.347 225.172 491.375H223.438L221.703 491.422C219.518 491.458 217.325 491.442 215.141 491.328L211.672 491.141C209.881 491.048 208.073 491.057 206.281 491.188L204.594 491.328L202.859 491.422C200.584 491.587 198.292 491.61 196.016 491.516L194.281 491.469L192.547 491.375C190.799 491.303 189.049 491.38 187.297 491.562L183.828 491.938C181.524 492.178 179.199 492.232 176.891 492.172H175.156L173.469 492.125C171.461 492.073 169.43 492.043 167.422 492.031L165.688 491.984H163.953C161.875 491.972 159.797 491.941 157.719 491.891L154.25 491.797C152.382 491.752 150.494 491.819 148.625 491.938L146.938 492.031L145.203 492.125C143.006 492.265 140.792 492.344 138.594 492.312L136.859 492.266H135.125C133.111 492.236 131.092 492.216 129.078 492.219H125.609C123.773 492.222 121.918 492.305 120.078 492.5L118.344 492.688L116.656 492.875C114.131 493.142 111.582 493.127 109.062 492.781L107.328 492.5L105.594 492.266C103.738 492.01 101.867 491.869 100.016 491.797L98.2812 491.703L96.5938 491.656C94.4309 491.571 92.2396 491.443 90.0781 491.234L86.6094 490.859C85.2194 490.727 83.8177 490.822 82.3906 491.141L80.6562 491.562L78.9219 491.938C76.2426 492.539 73.5285 492.704 70.8125 492.406L67.3438 492.031C65.7967 491.861 64.2552 491.865 62.7031 492.078L59.2344 492.547C56.9299 492.866 54.6088 493.047 52.2969 493.062H48.8281C46.3057 493.078 43.8001 492.797 41.3281 492.219L39.6406 491.844L37.9062 491.422C36.1239 491.005 34.3145 490.725 32.5156 490.531L30.7812 490.344L29.0938 490.156C25.8176 489.804 22.8517 488.485 20.375 486.312L19.0625 485.188L17.75 484.016C16.0189 482.495 14.4187 480.878 12.9219 479.188L10.6719 476.656C8.92216 474.678 7.49422 472.477 6.45312 470.047L5.14062 466.953C4.25517 464.887 3.457 462.702 2.79688 460.484L2.32812 458.797L1.8125 457.109C1.00214 454.383 0.695636 451.589 0.96875 448.766L1.34375 445.297C1.51738 443.519 1.55356 441.727 1.48438 439.953L1.4375 438.219L1.34375 436.531C1.24812 434.079 1.41492 431.609 1.8125 429.172L2.375 425.703C2.67633 423.857 2.87495 422.011 2.98438 420.172L3.17188 416.703C3.2709 415.024 3.23803 413.325 3.03125 411.641L2.79688 409.953L2.60938 408.219C2.35878 406.177 2.11591 404.12 1.85938 402.078L1.39062 398.609C1.06613 396.015 1.13451 393.416 1.53125 390.828L1.76562 389.094L2.04688 387.359C2.30681 385.665 2.41491 383.979 2.375 382.297L2.28125 378.828C2.23247 376.831 2.18601 374.826 2.09375 372.828L1.90625 369.359C1.81617 367.412 1.67297 365.448 1.48438 363.5L1.34375 361.766L1.15625 360.031C0.898739 357.346 1.07922 354.663 1.67188 352.016L2.04688 350.281L2.46875 348.547C2.85003 346.838 3.04801 345.122 3.125 343.438L3.21875 341.75L3.3125 340.016C3.40006 338.1 3.39892 336.165 3.35938 334.25L3.3125 332.516V330.781C3.27053 328.75 3.22514 326.719 3.17188 324.688L3.07812 321.219C3.03508 319.612 2.82123 317.986 2.42188 316.344L1.57812 312.875C0.944004 310.261 0.708363 307.615 0.875 304.953L1.0625 301.484C1.19969 299.298 1.42548 297.105 1.71875 294.922L2.1875 291.453C2.4114 289.776 2.45614 288.106 2.375 286.438L2.32812 284.703L2.23438 282.969C2.11619 280.56 2.1967 278.151 2.51562 275.75L2.98438 272.281C3.186 270.767 3.19225 269.249 2.98438 267.734L2.75 266L2.51562 264.312C2.22295 262.18 1.958 260.025 1.76562 257.891L1.48438 254.422C1.24767 251.791 1.38462 249.151 1.90625 246.547L2.23438 244.812L2.60938 243.078C2.88375 241.697 2.89685 240.315 2.70312 238.953L2.46875 237.266L2.23438 235.531C1.88774 233.095 1.76806 230.618 1.90625 228.172L2 226.484L2.09375 224.75C2.20382 222.801 2.2671 220.839 2.28125 218.891V217.156L2.32812 215.422C2.34184 213.5 2.2875 211.578 2.1875 209.656L2 206.188C1.89671 204.207 1.74892 202.215 1.57812 200.234L1.4375 198.5L1.29688 196.812C1.07878 194.283 1.18614 191.736 1.57812 189.219L1.8125 187.484L2.09375 185.75C2.35 184.108 2.41393 182.457 2.32812 180.828L2.28125 179.141L2.1875 177.406C2.08775 175.513 1.91864 173.584 1.67188 171.688L1.4375 169.953L1.20312 168.266C0.867066 165.682 0.886925 163.065 1.25 160.484L1.71875 157.016C1.96903 155.23 2.11806 153.45 2.14062 151.672V149.938L2.1875 148.203C2.21078 146.314 2.16903 144.421 2.04688 142.531L1.90625 140.797L1.8125 139.062C1.65971 136.705 1.69404 134.34 1.90625 131.984L2.1875 128.516C2.33264 126.891 2.33182 125.269 2.14062 123.641L1.95312 121.906L1.71875 120.172C1.45343 117.917 1.32248 115.634 1.29688 113.375V111.688L1.25 109.953C1.2272 107.941 1.21489 105.918 1.15625 103.906L1.0625 102.172L1.01562 100.438C0.955979 98.3908 0.924768 96.3435 0.875 94.2969L0.78125 90.8281C0.722747 88.4206 0.879769 86.0047 1.25 83.6094L1.53125 81.875L1.76562 80.1406C1.98867 78.6889 2.02543 77.231 1.8125 75.7812L1.53125 74.0938L1.29688 72.3594C0.887621 69.573 1.00582 66.7712 1.625 64.0156L2.375 60.5469C2.62836 59.4146 2.65051 58.3154 2.375 57.1719L1.53125 53.7031C0.790726 50.666 0.805302 47.5788 1.625 44.5625L2.5625 41.0938C3.01982 39.4126 3.30016 37.793 3.40625 36.2188L3.54688 34.5312L3.64062 32.8438C3.82826 30.0648 4.57164 27.3815 5.79688 24.875L6.54688 23.375L7.29688 21.8281C8.34257 19.6901 9.56869 17.637 11 15.6875L12.0781 14.2344L13.1094 12.8281C15.0653 10.1709 17.6768 8.27735 20.7969 7.20312L22.4375 6.59375L24.125 6.03125C26.4292 5.23872 28.7615 4.68172 31.1094 4.34375L34.3906 3.875C34.8236 3.81267 35.2121 3.74267 35.5156 3.6875C35.7036 3.65332 35.8594 3.62075 35.9844 3.59375C36.9376 2.91271 37.8649 2.59351 38.3281 2.46875C38.9139 2.31206 39.4973 2.19417 39.9688 2.14062C40.9151 2.0346 41.9936 2.03823 43.1094 2.04688H46.5781C48.7628 2.06431 50.9572 2.16086 53.1406 2.32812L56.6094 2.60938C58.4944 2.75316 60.3975 2.79957 62.2812 2.79688H65.7031C67.7133 2.794 69.7398 2.78803 71.75 2.75L75.2188 2.65625C76.8957 2.6242 78.5842 2.47672 80.2812 2.14062L82.0156 1.76562L83.75 1.4375C86.6888 0.853063 89.6567 0.929075 92.5625 1.67188L94.2969 2.14062L96.0312 2.5625C97.572 2.9549 99.0872 3.15007 100.578 3.125L104.047 3.03125C105.965 2.99859 107.894 2.94763 109.812 2.79688L113.281 2.51562C115.138 2.36907 116.997 2.12652 118.859 1.8125L122.328 1.25C124.834 0.826997 127.353 0.697436 129.875 0.875L131.609 0.96875L133.344 1.10938C135.509 1.26328 137.696 1.48363 139.859 1.76562L141.594 2L143.281 2.1875C144.886 2.39667 146.51 2.43285 148.109 2.28125L149.844 2.14062L151.578 1.95312C153.594 1.76201 155.609 1.55513 157.625 1.34375L159.359 1.15625L161.094 1.01562C163.417 0.771947 165.751 0.694753 168.078 0.78125L171.547 0.875C173.429 0.945649 175.336 0.960586 177.219 0.875L178.906 0.78125L180.641 0.734375C182.852 0.633822 185.085 0.606979 187.297 0.6875L189.031 0.734375L190.766 0.828125C192.923 0.907056 195.079 1.04387 197.234 1.25L198.969 1.39062L200.703 1.57812C202.853 1.78393 205.024 2.05681 207.172 2.375L208.859 2.60938L210.594 2.84375C211.926 3.04104 213.269 3.03732 214.625 2.75L218.094 2C220.823 1.42189 223.59 1.31833 226.344 1.71875L228.078 2L229.812 2.23438C231.428 2.46771 233.035 2.5323 234.641 2.42188L236.375 2.28125L238.109 2.1875C240.182 2.04346 242.271 1.88382 244.344 1.76562L246.078 1.67188L247.766 1.57812C250.184 1.44021 252.62 1.55058 255.031 1.85938L256.766 2.04688L258.5 2.28125C260.028 2.47614 261.565 2.48523 263.094 2.28125L264.828 2.04688L266.516 1.8125C269.032 1.4768 271.588 1.45491 274.109 1.71875L275.844 1.85938L277.531 2.04688C279.37 2.23926 281.227 2.37083 283.062 2.375H286.531C288.638 2.37898 290.753 2.3995 292.859 2.46875L294.594 2.51562L296.328 2.60938C298.447 2.67916 300.585 2.74487 302.703 2.89062L304.391 3.03125L306.125 3.17188C307.675 3.27854 309.243 3.16778 310.812 2.89062L312.547 2.60938L314.281 2.28125C316.603 1.86985 318.931 1.60451 321.266 1.53125L324.734 1.4375C326.935 1.36937 329.144 1.37949 331.344 1.48438L334.812 1.67188C337.098 1.78128 339.38 2.0396 341.656 2.42188L345.125 2.98438C346.614 3.23444 348.101 3.25324 349.578 3.07812L351.312 2.89062L353 2.70312C355.117 2.45215 357.257 2.22015 359.375 2.04688L362.844 1.76562C365.077 1.58321 367.312 1.498 369.547 1.53125L371.281 1.57812H373.016C375.062 1.60903 377.11 1.68422 379.156 1.71875H380.891L382.625 1.76562C384.939 1.80468 387.257 1.98379 389.562 2.32812L391.297 2.60938L393.031 2.84375C394.785 3.10487 396.538 3.21791 398.281 3.21875H400.016L401.75 3.26562C403.821 3.26671 405.913 3.28118 407.984 3.3125H409.672L411.406 3.35938C413.084 3.38476 414.776 3.21815 416.469 2.9375L419.938 2.375C422.212 1.99671 424.498 1.77691 426.781 1.67188L430.25 1.48438C432.451 1.38379 434.658 1.36437 436.859 1.4375L438.594 1.53125L440.328 1.57812C442.401 1.6473 444.49 1.71772 446.562 1.8125L448.297 1.90625L449.984 2C451.807 2.08333 453.646 2.02817 455.469 1.90625L457.203 1.8125L458.938 1.67188C460.937 1.53799 462.938 1.38181 464.938 1.20312L468.406 0.921875C470.683 0.718936 472.971 0.624235 475.25 0.6875L476.984 0.734375ZM177.734 12.875C175.532 12.9749 173.328 12.9571 171.125 12.875L169.391 12.8281L167.656 12.7344C165.896 12.6683 164.124 12.7371 162.359 12.9219L158.891 13.2969C156.828 13.5131 154.765 13.7108 152.703 13.9062L150.969 14.0938L149.234 14.2344C146.739 14.4706 144.224 14.4183 141.734 14.0938L140.047 13.8594L138.312 13.6719C136.38 13.42 134.43 13.1997 132.5 13.0625L130.766 12.9688L129.031 12.8281C127.475 12.7187 125.916 12.7983 124.344 13.0625L120.875 13.625C118.661 13.9988 116.439 14.2937 114.219 14.4688L110.75 14.75C108.581 14.9204 106.404 14.9946 104.234 15.0312L100.766 15.125C98.1684 15.168 95.5784 14.8386 93.0312 14.1875L91.2969 13.7656L89.6094 13.2969C88.4192 12.9926 87.2509 12.973 86.0938 13.2031L84.3594 13.5312L82.625 13.9062C80.246 14.3782 77.8523 14.6101 75.4531 14.6562L71.9844 14.75C69.9063 14.7894 67.8281 14.7938 65.75 14.7969H62.2812C60.0778 14.8 57.874 14.7311 55.6719 14.5625L52.2031 14.2812C50.2965 14.1355 48.3898 14.0621 46.4844 14.0469H41.5625C40.4711 14.6687 39.4579 15.0672 39.0312 15.1719C38.1775 15.3809 37.1885 15.5812 36.125 15.7344L34.4844 15.9688L32.7969 16.2031C31.2356 16.429 29.6411 16.8154 28.0156 17.375L26.375 17.9375L24.6875 18.5469C23.8777 18.8282 23.2741 19.2616 22.7656 19.9531L20.7031 22.7656C19.681 24.1558 18.802 25.6009 18.0781 27.0781L16.5781 30.1719C16.0296 31.2941 15.7237 32.4343 15.6406 33.6406L15.5 35.3281L15.4062 37.0156C15.2437 39.4314 14.7958 41.875 14.1406 44.2812L13.6719 45.9688L13.2031 47.7031C12.9127 48.7697 12.9023 49.7929 13.1562 50.8438L14 54.3125C14.7162 57.2497 14.7541 60.2228 14.0938 63.1719L13.3438 66.6406C13.0426 67.981 12.9639 69.3154 13.1562 70.625L13.4375 72.3125L13.6719 74.0469C14.059 76.6826 14.0303 79.335 13.625 81.9688L13.3906 83.7031L13.1094 85.4375C12.8465 87.1382 12.7402 88.8584 12.7812 90.5469L12.8281 92.2344L12.875 93.9688C12.9245 96.0071 12.9562 98.0711 13.0156 100.109L13.1094 103.578C13.1698 105.654 13.2265 107.736 13.25 109.812L13.2969 111.547V113.281C13.3182 115.108 13.4564 116.934 13.6719 118.766L14.0469 122.234C14.3352 124.686 14.3606 127.139 14.1406 129.594L13.8594 133.062C13.7032 134.796 13.6545 136.534 13.7656 138.266L13.9062 140L14 141.734C14.1426 143.934 14.2145 146.143 14.1875 148.344L14.1406 150.078V151.812C14.1119 154.112 13.9471 156.411 13.625 158.703L13.3438 160.438L13.1094 162.172C12.8973 163.684 12.9129 165.209 13.1094 166.719L13.3438 168.406L13.5312 170.141C13.8169 172.337 14.0245 174.551 14.1406 176.75L14.3281 180.219C14.4574 182.678 14.3333 185.132 13.9531 187.578L13.6719 189.312L13.4375 191.047C13.1916 192.622 13.1152 194.218 13.25 195.781L13.3906 197.469L13.5312 199.203C13.7137 201.319 13.8896 203.462 14 205.578L14.0938 207.312L14.1875 209C14.3005 211.166 14.3437 213.35 14.3281 215.516L14.2812 217.25V218.984C14.2656 221.125 14.2145 223.266 14.0938 225.406L13.9062 228.875C13.8135 230.523 13.8579 232.186 14.0938 233.844L14.3281 235.578L14.6094 237.266C14.9974 239.993 14.9175 242.761 14.375 245.469L14 247.203L13.6719 248.891C13.3729 250.383 13.3057 251.878 13.4375 253.344L13.7188 256.812C13.8944 258.761 14.1074 260.722 14.375 262.672L14.6094 264.406L14.8906 266.094C15.2448 268.675 15.2345 271.293 14.8906 273.875L14.4219 277.344C14.1998 279.021 14.1537 280.69 14.2344 282.359L14.2812 284.094L14.375 285.828C14.4935 288.244 14.4172 290.686 14.0938 293.094L13.8594 294.781L13.625 296.516C13.3694 298.419 13.1818 300.334 13.0625 302.234L12.9219 303.969L12.8281 305.703C12.7386 307.133 12.8438 308.585 13.2031 310.062L14.0469 313.531C14.6403 315.976 15.0131 318.457 15.0781 320.938L15.125 322.625L15.1719 324.359C15.2258 326.417 15.27 328.489 15.3125 330.547V332.281L15.3594 334.016C15.404 336.188 15.3646 338.359 15.2656 340.531L15.2188 342.266L15.125 344C15.0152 346.402 14.6725 348.794 14.1406 351.172L13.3906 354.641C13.068 356.082 12.9735 357.503 13.1094 358.906L13.2969 360.641L13.4375 362.375C13.6443 364.515 13.8072 366.655 13.9062 368.797L14 370.531L14.0469 372.266C14.1434 374.353 14.2303 376.459 14.2812 378.547L14.3281 380.234L14.375 381.969C14.4337 384.374 14.2738 386.794 13.9062 389.188L13.625 390.922L13.3906 392.656C13.1631 394.146 13.1122 395.626 13.2969 397.109L13.7656 400.578C14.0237 402.632 14.2636 404.712 14.5156 406.766L14.75 408.453L14.9375 410.188C15.2329 412.594 15.3154 415.04 15.1719 417.453L15.0781 419.141L14.9844 420.875C14.8506 423.123 14.5997 425.384 14.2344 427.625L13.9531 429.359L13.625 431.094C13.3545 432.75 13.2798 434.421 13.3438 436.062L13.3906 437.75L13.4844 439.484C13.5749 441.806 13.4765 444.15 13.25 446.469L13.1094 448.203L12.9219 449.891C12.7989 451.149 12.9204 452.418 13.2969 453.688L14.3281 457.062C14.8619 458.855 15.4601 460.594 16.1562 462.219L16.8125 463.766L17.5156 465.312C18.0542 466.569 18.7274 467.72 19.625 468.734L21.875 471.266C23.0285 472.568 24.3074 473.817 25.6719 475.016L26.9844 476.141L28.2969 477.312C28.9114 477.847 29.5469 478.116 30.3594 478.203L33.8281 478.578C36.1201 478.825 38.4146 479.222 40.6719 479.75L42.3594 480.172L44.0469 480.547C45.616 480.914 47.2142 481.073 48.7812 481.062H52.2031C53.9872 481.05 55.8023 480.935 57.5938 480.688L59.3281 480.453L61.0625 480.172C63.5884 479.824 66.1252 479.8 68.6562 480.078L72.125 480.453C73.501 480.604 74.8842 480.536 76.2969 480.219L79.7656 479.469C82.417 478.875 85.0921 478.693 87.7812 478.953L89.5156 479.094L91.25 479.281C93.1811 479.468 95.1327 479.581 97.0625 479.656L98.75 479.75L100.484 479.797C102.729 479.885 104.995 480.098 107.234 480.406L110.703 480.875C112.265 481.088 113.834 481.133 115.391 480.969L117.125 480.781L118.812 480.594C121.066 480.355 123.353 480.222 125.609 480.219H129.031C131.112 480.215 133.232 480.235 135.312 480.266H137L138.734 480.312C140.619 480.34 142.521 480.291 144.406 480.172L146.141 480.078L147.875 479.938C150.091 479.796 152.314 479.744 154.531 479.797L158 479.891C160.012 479.939 162.035 479.972 164.047 479.984H165.781L167.516 480.031C169.594 480.044 171.672 480.071 173.75 480.125L177.219 480.219C178.998 480.265 180.779 480.17 182.562 479.984L186.031 479.609C188.367 479.365 190.722 479.325 193.062 479.422L194.797 479.469L196.531 479.562C198.343 479.637 200.156 479.601 201.969 479.469L203.703 479.328L205.438 479.234C207.732 479.068 210.033 479.021 212.328 479.141L215.797 479.328C217.701 479.427 219.612 479.453 221.516 479.422L223.25 479.375H224.984C227.314 479.338 229.646 479.454 231.969 479.75L235.438 480.219C237.26 480.45 239.105 480.566 240.922 480.594H242.609L244.344 480.641C246.324 480.671 248.316 480.671 250.297 480.641L252.031 480.594H253.766C255.508 480.566 257.261 480.415 259.016 480.125L260.75 479.844L262.484 479.516C265.216 479.063 267.963 479.107 270.688 479.609L274.156 480.266C275.634 480.539 277.104 480.566 278.562 480.406L282.031 480.031C284.507 479.762 287.009 479.759 289.484 480.031L291.172 480.219L292.906 480.406C294.872 480.623 296.848 480.835 298.812 480.969L300.547 481.062L302.281 481.203C303.845 481.309 305.434 481.192 307.016 480.922L308.703 480.641L310.438 480.359C313.162 479.894 315.918 479.879 318.641 480.359L320.375 480.688L322.109 480.969C323.349 481.188 324.592 481.171 325.859 480.875L327.594 480.5L329.281 480.078C331.812 479.488 334.398 479.216 336.969 479.281L340.438 479.375C342.337 479.423 344.256 479.413 346.156 479.328L347.844 479.234L349.578 479.141C352.049 479.03 354.53 479.201 356.984 479.609L360.453 480.172C361.782 480.393 363.098 480.386 364.438 480.125L366.172 479.797L367.906 479.422C370.59 478.896 373.312 478.824 376.016 479.188L379.484 479.656C381.377 479.91 383.267 480.107 385.156 480.219L388.625 480.406C390.688 480.529 392.75 480.682 394.812 480.828L396.547 480.922L398.281 481.062C399.717 481.164 401.163 481.03 402.641 480.688L404.375 480.312L406.109 479.891C408.643 479.303 411.223 479.066 413.797 479.141L415.531 479.188L417.219 479.234C419.274 479.294 421.351 479.355 423.406 479.422L426.875 479.516C429.08 479.588 431.282 479.779 433.484 480.031L436.953 480.406C438.75 480.612 440.552 480.709 442.344 480.688H444.078L445.812 480.641C447.473 480.619 449.146 480.463 450.828 480.125L452.562 479.75L454.297 479.422C457.062 478.868 459.864 478.849 462.641 479.328L464.375 479.609L466.062 479.891C467.782 480.187 469.514 480.355 471.219 480.359H474.688C476.376 480.363 478.092 480.235 479.797 479.938L481.484 479.609L483.219 479.328C486.01 478.841 488.831 478.854 491.609 479.422L495.078 480.172C496.416 480.444 497.741 480.432 499.062 480.219L500.797 479.938L502.531 479.703C504.803 479.338 507.095 479.095 509.375 479L511.062 478.906L512.797 478.859C515.09 478.764 517.396 478.814 519.688 479L523.156 479.281C525.376 479.462 527.598 479.701 529.812 480.078L531.547 480.406L533.281 480.688C534.894 480.961 536.514 481.053 538.109 480.969L539.797 480.875L541.531 480.781C543.526 480.676 545.536 480.557 547.531 480.406L551 480.125C553.371 479.946 555.755 479.959 558.125 480.172L559.859 480.359L561.594 480.5C563.544 480.676 565.504 480.79 567.453 480.875L570.922 481.062C572.54 481.133 574.163 481.007 575.797 480.734L579.266 480.172C581.616 479.778 583.98 479.537 586.344 479.516H589.812C592.192 479.495 594.57 479.66 596.938 480.031L600.406 480.594C601.944 480.833 603.472 480.842 605 480.688L606.734 480.547L608.469 480.359C610.97 480.107 613.472 480.133 615.969 480.453L617.703 480.688L619.438 480.875C621.264 481.109 623.1 481.267 624.922 481.297L626.656 481.344H628.344C630.291 481.376 632.256 481.361 634.203 481.297L637.672 481.203C639.545 481.141 641.421 480.998 643.297 480.781L645.031 480.547L646.766 480.359C648.911 480.111 651.087 479.939 653.234 479.797L654.922 479.656L656.656 479.562C658.839 479.418 661.035 479.325 663.219 479.328H666.688C669.102 479.333 671.511 479.579 673.906 480.031L677.375 480.688C679.068 481.008 680.763 481.151 682.438 481.156L684.172 481.203H685.859C687.549 481.209 689.264 481.03 690.969 480.734L694.438 480.172C697.185 479.695 699.945 479.709 702.688 480.219L704.422 480.547L706.156 480.828C707.535 481.085 708.913 481.139 710.281 480.922L712.016 480.641L713.703 480.359C716.014 479.993 718.367 479.802 720.688 479.75L722.422 479.703L724.109 479.656C726.499 479.602 728.902 479.769 731.281 480.125L733.016 480.359L734.75 480.641C736.328 480.878 737.917 480.923 739.484 480.781L741.219 480.594L742.906 480.453C745.306 480.236 747.725 480.244 750.125 480.453L753.594 480.734C755.21 480.874 756.847 480.848 758.469 480.641L760.156 480.453L761.891 480.219C764.384 479.9 766.893 479.875 769.391 480.125L771.125 480.266L772.859 480.453C774.328 480.601 775.823 480.547 777.312 480.266L779 479.938L780.734 479.609C783.623 479.063 786.544 479.111 789.406 479.797L792.875 480.641C794.304 480.982 795.711 481.091 797.094 480.969L798.828 480.828L800.516 480.641C802.737 480.444 804.995 480.361 807.219 480.359H810.641C812.494 480.358 814.363 480.257 816.219 480.078L817.953 479.938L819.688 479.75C822.17 479.511 824.659 479.537 827.141 479.844L830.609 480.312C831.897 480.472 833.163 480.364 834.406 480.031L836.094 479.562L837.734 479.141C839.384 478.698 840.99 478.119 842.516 477.406L844.109 476.656L845.656 475.906C846.669 475.43 847.502 474.797 848.188 473.938L849.266 472.578L850.344 471.266C851.66 469.615 853 467.943 854.422 466.297L855.594 464.938L856.766 463.625C857.312 462.993 857.584 462.339 857.656 461.516L857.938 457.953C858.084 456.222 858.098 454.52 857.938 452.844L857.75 451.109L857.609 449.375C857.401 447.203 857.253 445.032 857.188 442.859L857.094 439.391C857.026 437.142 857.072 434.888 857.234 432.641L857.328 430.906L857.469 429.172C857.608 427.255 857.69 425.322 857.703 423.406V419.984L857.75 413.844V410.375C857.757 408.208 857.845 406.025 857.984 403.859L858.078 402.125L858.219 400.438C858.341 398.537 858.373 396.619 858.359 394.719V391.25C858.343 389.113 858.374 386.965 858.453 384.828L858.5 383.094L858.547 381.406C858.616 379.523 858.631 377.617 858.547 375.734L858.453 374L858.406 372.266C858.317 370.265 858.166 368.266 858.031 366.266L857.938 364.531L857.797 362.797C857.654 360.673 857.566 358.547 857.516 356.422L857.422 352.953C857.363 350.443 857.611 347.935 858.125 345.453L858.875 341.984C859.143 340.693 859.153 339.421 858.922 338.141L858.266 334.672C857.839 332.321 857.61 329.96 857.562 327.594L857.516 325.859V324.125C857.475 322.05 857.435 319.965 857.422 317.891V316.156L857.375 314.422C857.361 312.106 857.541 309.794 857.844 307.484L858.078 305.75L858.266 304.016C858.464 302.501 858.474 300.985 858.266 299.469L857.797 296C857.493 293.79 857.253 291.558 857.141 289.344L857.094 287.656L857 285.922C856.877 283.505 856.96 281.065 857.281 278.656L857.516 276.922L857.75 275.234C857.946 273.765 857.938 272.257 857.703 270.781L857.422 269.094L857.141 267.359C856.696 264.564 856.768 261.74 857.375 258.969L858.125 255.5C858.397 254.25 858.453 253.034 858.219 251.797L857.562 248.328C857.008 245.422 857.088 242.486 857.797 239.609L858.219 237.875L858.641 236.188C858.903 235.121 858.879 234.079 858.594 233L858.125 231.266L857.703 229.531C856.96 226.722 856.764 223.865 857.188 221L857.469 219.266L857.703 217.531C857.938 215.949 857.982 214.369 857.844 212.797L857.562 209.328C857.335 206.741 857.465 204.161 857.938 201.594L858.219 199.859L858.547 198.125C858.814 196.679 858.866 195.242 858.688 193.812L858.453 192.078L858.266 190.344C857.967 187.957 857.869 185.566 857.984 183.172L858.172 179.703C858.271 177.657 858.346 175.609 858.453 173.562L858.641 170.094C858.733 168.33 858.703 166.563 858.547 164.797L858.266 161.328C858.064 159.052 857.969 156.763 858.031 154.484L858.078 152.75L858.125 151.062C858.17 149.411 858.033 147.715 857.75 146.047L857.469 144.359L857.188 142.625C856.684 139.659 856.861 136.66 857.703 133.766L858.219 132.078L858.734 130.344C859.171 128.842 859.358 127.369 859.344 125.938L859.297 124.203V116.188L859.344 114.453V112.719C859.367 111.19 859.202 109.647 858.828 108.078L858.406 106.344L858.031 104.609C857.34 101.717 857.25 98.7557 857.844 95.8438L858.219 94.1562L858.547 92.4219C858.864 90.8687 859.007 89.3055 858.922 87.7812L858.828 86.0469L858.734 84.3594C858.626 82.4196 858.433 80.4412 858.219 78.5L858.031 76.8125L857.844 75.0781C857.601 72.8815 857.449 70.6679 857.375 68.4688L857.281 65C857.196 62.4427 857.431 59.8824 857.984 57.3594L858.359 55.625L858.734 53.9375C859.014 52.6626 859.049 51.3971 858.828 50.1406L858.172 46.6719C857.747 44.2973 857.536 41.89 857.516 39.5V37.7656L857.469 36.0781C857.457 34.7483 857.246 33.446 856.766 32.1875L856.156 30.5469L855.5 28.9531C855.107 27.9245 854.555 27.0823 853.766 26.375L852.453 25.2031L851.188 24.0781C849.743 22.7903 848.289 21.5557 846.828 20.375L845.516 19.2969L844.203 18.2656C843.302 17.5376 842.288 17.0317 841.156 16.7188L839.562 16.25L837.922 15.8281C836.438 15.4186 834.902 15.1524 833.328 15.0781L831.641 14.9844L829.953 14.9375C827.582 14.8256 825.197 14.4784 822.828 13.9531L819.359 13.2031C817.838 12.8668 816.344 12.7466 814.859 12.8281L811.391 13.0156C809.551 13.1171 807.705 13.2879 805.859 13.5781L802.391 14.1406C799.859 14.5377 797.294 14.6122 794.75 14.375L793.062 14.2344L791.328 14.0469C789.441 13.8709 787.542 13.7904 785.656 13.7656L783.922 13.7188H782.188C780.377 13.6954 778.564 13.7651 776.75 13.9531L773.281 14.3281C770.764 14.5883 768.246 14.53 765.734 14.1875L762.266 13.7188C760.376 13.4598 758.48 13.2613 756.594 13.1562L753.125 12.9688C751.362 12.8712 749.593 12.9132 747.828 13.0625L744.359 13.3438C741.969 13.5449 739.577 13.5636 737.188 13.3438L735.453 13.1562L733.719 13.0156C732.211 12.8765 730.697 12.9321 729.172 13.2031L727.438 13.4844L725.703 13.8125C723.321 14.2345 720.93 14.4714 718.531 14.4688L716.797 14.4219H715.062C712.906 14.4188 710.75 14.3559 708.594 14.2344L705.125 14.0469C703.281 13.9433 701.437 13.9204 699.594 14L696.125 14.1875C694.022 14.2786 691.901 14.345 689.797 14.375H688.062L686.375 14.4219C684.18 14.4532 681.96 14.3646 679.766 14.2344L676.297 14.0469C674.314 13.9294 672.327 13.8253 670.344 13.7656L666.875 13.6719C665.145 13.6207 663.408 13.7346 661.672 13.9531L659.938 14.1406L658.203 14.375C655.464 14.7175 652.705 14.5571 650 13.9531L648.312 13.5781L646.578 13.2031C645.031 12.8577 643.495 12.7169 641.984 12.7812L640.25 12.875L638.516 12.9219C636.5 13.0079 634.484 13.0926 632.469 13.2031L630.734 13.2969L629 13.4375C627.193 13.5368 625.379 13.7287 623.562 14.0469L621.828 14.3281L620.094 14.6562C617.313 15.1414 614.52 15.0736 611.75 14.5156L608.281 13.8594C606.748 13.5504 605.24 13.4312 603.734 13.5312L602 13.625L600.266 13.7656C598.314 13.8962 596.359 14.0579 594.406 14.2812L592.672 14.4688L590.938 14.7031C588.586 14.9712 586.216 15.0381 583.859 14.9375L582.125 14.8906L580.438 14.7969C578.384 14.7092 576.304 14.609 574.25 14.5156L572.516 14.4219L570.781 14.375C568.912 14.2905 567.025 14.2978 565.156 14.375L563.469 14.4219L561.734 14.5156C559.758 14.5972 557.758 14.6911 555.781 14.8438L552.312 15.125C549.68 15.3262 547.036 15.1259 544.438 14.5625L542.75 14.1875L541.016 13.8125C539.657 13.5179 538.315 13.4845 536.984 13.6719L533.516 14.1406C531.022 14.4944 528.518 14.5913 526.016 14.375L524.281 14.2344L522.547 14.0469C520.644 13.8822 518.73 13.7938 516.828 13.7656H515.094L513.406 13.7188C511.195 13.686 508.959 13.5563 506.75 13.3438L505.016 13.2031L503.281 13.0156C501.498 12.8447 499.717 12.7724 497.938 12.8281L496.203 12.9219L494.469 12.9688C492.32 13.037 490.148 13.0552 488 13.0156L486.312 12.9688L484.578 12.9219C482.511 12.8838 480.41 12.8386 478.344 12.7812L476.656 12.7344L474.922 12.6875C473.115 12.6374 471.293 12.7142 469.484 12.875L466.016 13.1562C463.925 13.343 461.825 13.5319 459.734 13.6719L458 13.7656L456.266 13.9062C454.001 14.0575 451.735 14.0562 449.469 13.9531L447.734 13.9062L446 13.8125C443.977 13.72 441.93 13.6457 439.906 13.5781L438.219 13.5312L436.484 13.4375C434.598 13.3745 432.699 13.3985 430.812 13.4844L429.078 13.5781L427.344 13.625C425.537 13.7076 423.722 13.9324 421.906 14.2344L418.438 14.7969C416.045 15.1937 413.626 15.3958 411.219 15.3594L409.531 15.3125H407.797C405.778 15.282 403.722 15.2666 401.703 15.2656L400.016 15.2188H398.281C395.936 15.2176 393.585 15.0516 391.25 14.7031L389.516 14.4688L387.781 14.1875C385.996 13.9211 384.214 13.7961 382.438 13.7656L378.969 13.6719C376.925 13.6374 374.872 13.609 372.828 13.5781H371.094L369.359 13.5312C367.517 13.5041 365.673 13.5683 363.828 13.7188L360.359 14C358.39 14.161 356.423 14.3761 354.453 14.6094L352.719 14.7969L350.984 15.0312C348.375 15.3405 345.754 15.2778 343.156 14.8438L341.422 14.5156L339.688 14.2344C337.874 13.9296 336.055 13.7586 334.25 13.6719L330.781 13.4844C328.892 13.394 326.998 13.379 325.109 13.4375L321.641 13.5312C319.897 13.5861 318.147 13.7832 316.391 14.0938L314.656 14.4219L312.922 14.7031C310.403 15.1495 307.866 15.2986 305.328 15.125L303.594 14.9844L301.859 14.8906C299.89 14.7551 297.922 14.6276 295.953 14.5625L292.484 14.4688C290.503 14.4035 288.512 14.3789 286.531 14.375H283.062C280.812 14.3708 278.56 14.2349 276.312 14L272.844 13.625C271.271 13.4608 269.687 13.5083 268.109 13.7188L266.375 13.9531L264.688 14.1875C262.124 14.5295 259.518 14.516 256.953 14.1875L255.219 13.9531L253.531 13.7656C251.847 13.5499 250.146 13.4825 248.469 13.5781L245 13.7656C242.985 13.8806 240.969 14.0006 238.953 14.1406L237.219 14.2812L235.484 14.375C233.011 14.5467 230.541 14.451 228.078 14.0938L224.609 13.625C223.274 13.4308 221.938 13.431 220.578 13.7188L217.109 14.4688C214.377 15.0479 211.615 15.1568 208.859 14.75L207.125 14.4688L205.391 14.2344C203.452 13.9472 201.515 13.717 199.578 13.5312L197.844 13.3438L196.109 13.2031C194.178 13.0184 192.226 12.8515 190.297 12.7812L188.562 12.7344L186.875 12.6875C184.992 12.6189 183.087 12.6019 181.203 12.6875L177.734 12.875Z" fill="#FFBA84"/>
</svg>
